<svg width="20" height="20" viewBox="0 0 20 20" fill="none" xmlns="http://www.w3.org/2000/svg">
<path d="M18.3333 16.6666H1.66663V15H2.49996V9.19246C2.49996 5.03579 5.85829 1.66663 9.99996 1.66663C14.1416 1.66663 17.5 5.03579 17.5 9.19246V15H18.3333V16.6666ZM4.16663 15H15.8333V9.19246C15.8333 5.95663 13.2216 3.33329 9.99996 3.33329C6.77829 3.33329 4.16663 5.95663 4.16663 9.19246V15ZM7.91663 17.5H12.0833C12.0833 18.0525 11.8638 18.5824 11.4731 18.9731C11.0824 19.3638 10.5525 19.5833 9.99996 19.5833C9.44742 19.5833 8.91752 19.3638 8.52682 18.9731C8.13612 18.5824 7.91663 18.0525 7.91663 17.5Z" fill="#4B5563"/>
</svg>
