<svg width="40" height="36" viewBox="0 0 40 36" fill="none" xmlns="http://www.w3.org/2000/svg">
<path d="M35.9502 19.5498C35.8655 19.4786 35.7802 19.4075 35.6969 19.3363C34.6298 18.4023 33.4873 17.5855 32.1818 17.0114C29.4963 15.8298 27.0056 16.2004 24.6935 17.9583C23.1931 19.1001 22.0364 20.5514 20.9892 22.1002C19.5898 24.169 18.5377 26.4277 17.3987 28.6395C16.6368 30.1185 15.8151 31.5563 14.6135 32.7386C12.9061 34.419 10.9255 35.5131 8.47829 35.5843C6.57313 35.6383 4.90131 34.9902 3.42726 33.8057C1.95321 32.6212 1.13438 31.059 0.63639 29.2527C0.356805 28.2404 0.351825 27.2323 0.442175 26.2328C0.513316 25.4452 0.806418 24.6712 1.04901 23.9064C1.49506 22.4943 2.30821 21.2621 3.0808 20.0143C5.26531 16.4886 7.44698 12.9614 9.62579 9.43276C10.5691 7.91176 11.4833 6.37369 12.4928 4.89467C13.7086 3.11614 15.2339 1.65703 17.2656 0.819698C19.7456 -0.204024 22.0712 0.153816 24.2496 1.64849C25.7436 2.67506 26.8455 4.0616 27.7625 5.60537C30.4925 10.2006 33.2207 14.7963 35.9473 19.3925C35.9685 19.4292 35.9854 19.4681 35.9978 19.5085C36.0291 19.5875 36.0235 19.6138 35.9502 19.5498Z" fill="#47B475"/>
<path d="M29.4493 17.1686C31.1076 17.1494 32.5568 17.7698 33.9049 18.647C36.2525 20.1758 37.9969 22.2275 39.0007 24.859C39.3749 25.84 39.646 26.851 39.6061 27.9266C39.5443 29.6262 39.0975 31.1884 38.073 32.5558C36.7434 34.3343 34.9585 35.3943 32.7716 35.6903C30.5001 35.9976 28.4818 35.3104 26.7317 33.8513C25.4092 32.7486 24.3463 31.4097 23.4251 29.9684C22.4753 28.4822 21.5896 26.9548 20.6719 25.4473C20.3802 24.9693 20.3653 25.0511 20.6719 24.5303C21.5718 22.9944 22.5095 21.4876 23.7103 20.163C24.9909 18.748 26.4614 17.6225 28.3914 17.2519C28.7358 17.1829 29.0957 17.1921 29.4493 17.1686Z" fill="#47B475"/>
</svg>
