<svg width="20" height="20" viewBox="0 0 20 20" fill="none" xmlns="http://www.w3.org/2000/svg">
<path d="M9.99999 18.3332C5.39749 18.3332 1.66666 14.6023 1.66666 9.99984C1.66666 5.39734 5.39749 1.6665 9.99999 1.6665C14.6025 1.6665 18.3333 5.39734 18.3333 9.99984C18.3333 14.6023 14.6025 18.3332 9.99999 18.3332ZM5.84416 15.2132C7.02378 16.1563 8.48972 16.6689 9.99999 16.6665C11.6417 16.6665 13.1442 16.0732 14.3058 15.0898C13.7631 14.533 13.1142 14.0906 12.3975 13.7888C11.6808 13.4871 10.9109 13.3322 10.1333 13.3332C9.32715 13.3322 8.52958 13.4989 7.79121 13.8225C7.05285 14.1461 6.38981 14.6197 5.84416 15.2132ZM4.67999 14.0165C5.38037 13.2732 6.22555 12.6813 7.16344 12.2771C8.10133 11.8729 9.11206 11.6651 10.1333 11.6665C11.118 11.6652 12.0933 11.8585 13.0031 12.2352C13.9129 12.6118 14.7394 13.1645 15.435 13.8615C16.1484 12.8574 16.5697 11.6754 16.6521 10.4464C16.7346 9.21749 16.475 7.98974 15.9021 6.89938C15.3292 5.80902 14.4654 4.89869 13.4066 4.26937C12.3478 3.64006 11.1354 3.31637 9.90383 3.33421C8.67226 3.35206 7.46971 3.71074 6.42959 4.37047C5.38947 5.03019 4.55246 5.96517 4.0114 7.07167C3.47034 8.17817 3.2464 9.41293 3.36442 10.639C3.48244 11.865 3.9378 13.0344 4.67999 14.0173V14.0165ZM9.99999 10.8332C9.11593 10.8332 8.26809 10.482 7.64297 9.85686C7.01785 9.23174 6.66666 8.38389 6.66666 7.49984C6.66666 6.61578 7.01785 5.76794 7.64297 5.14281C8.26809 4.51769 9.11593 4.1665 9.99999 4.1665C10.884 4.1665 11.7319 4.51769 12.357 5.14281C12.9821 5.76794 13.3333 6.61578 13.3333 7.49984C13.3333 8.38389 12.9821 9.23174 12.357 9.85686C11.7319 10.482 10.884 10.8332 9.99999 10.8332ZM9.99999 9.1665C10.442 9.1665 10.8659 8.99091 11.1785 8.67835C11.4911 8.36579 11.6667 7.94186 11.6667 7.49984C11.6667 7.05781 11.4911 6.63389 11.1785 6.32133C10.8659 6.00877 10.442 5.83317 9.99999 5.83317C9.55796 5.83317 9.13404 6.00877 8.82148 6.32133C8.50892 6.63389 8.33332 7.05781 8.33332 7.49984C8.33332 7.94186 8.50892 8.36579 8.82148 8.67835C9.13404 8.99091 9.55796 9.1665 9.99999 9.1665Z" fill="#6B7280"/>
</svg>
