<svg width="21" height="20" viewBox="0 0 21 20" fill="none" xmlns="http://www.w3.org/2000/svg">
<path d="M14.6666 4.99935H18.8333V6.66602H17.1666V17.4993C17.1666 17.7204 17.0788 17.9323 16.9225 18.0886C16.7663 18.2449 16.5543 18.3327 16.3333 18.3327H4.66663C4.44561 18.3327 4.23365 18.2449 4.07737 18.0886C3.92109 17.9323 3.83329 17.7204 3.83329 17.4993V6.66602H2.16663V4.99935H6.33329V2.49935C6.33329 2.27834 6.42109 2.06637 6.57737 1.91009C6.73365 1.75381 6.94561 1.66602 7.16663 1.66602H13.8333C14.0543 1.66602 14.2663 1.75381 14.4225 1.91009C14.5788 2.06637 14.6666 2.27834 14.6666 2.49935V4.99935ZM15.5 6.66602H5.49996V16.666H15.5V6.66602ZM7.99996 9.16602H9.66663V14.166H7.99996V9.16602ZM11.3333 9.16602H13V14.166H11.3333V9.16602ZM7.99996 3.33268V4.99935H13V3.33268H7.99996Z" fill="white"/>
</svg>
