<svg width="20" height="20" viewBox="0 0 20 20" fill="none" xmlns="http://www.w3.org/2000/svg">
<path d="M10.8333 16.5827C11.7743 16.3903 12.62 15.8788 13.2274 15.1348C13.8347 14.3908 14.1665 13.4598 14.1667 12.4993V9.99935C14.1678 9.42587 14.05 8.85838 13.8208 8.33268H6.17916C5.94996 8.85838 5.83221 9.42587 5.83332 9.99935V12.4993C5.83344 13.4598 6.16524 14.3908 6.77261 15.1348C7.37998 15.8788 8.22566 16.3903 9.16666 16.5827V11.666H10.8333V16.5827ZM4.61332 14.741C4.31762 14.0307 4.1658 13.2688 4.16666 12.4993H1.66666V10.8327H4.16666V9.99935C4.16666 9.46352 4.23916 8.94518 4.37416 8.45268L2.52999 7.38768L3.36332 5.94435L5.04666 6.91602C5.09979 6.83128 5.15508 6.74792 5.21249 6.66602H14.7875C14.845 6.74768 14.9 6.83185 14.9533 6.91602L16.6367 5.94435L17.47 7.38768L15.6258 8.45268C15.7608 8.94435 15.8333 9.46352 15.8333 9.99935V10.8327H18.3333V12.4993H15.8333C15.8333 13.2935 15.675 14.051 15.3867 14.741L17.47 15.9443L16.6367 17.3877L14.5317 16.1727C13.9853 16.848 13.2947 17.3925 12.5106 17.7662C11.7265 18.14 10.8686 18.3335 9.99999 18.3327C9.13134 18.3335 8.2735 18.14 7.48937 17.7662C6.70524 17.3925 6.01468 16.848 5.46832 16.1727L3.36332 17.3877L2.52999 15.9443L4.61332 14.7418V14.741ZM6.66666 4.99935C6.66666 4.11529 7.01785 3.26745 7.64297 2.64233C8.26809 2.01721 9.11593 1.66602 9.99999 1.66602C10.884 1.66602 11.7319 2.01721 12.357 2.64233C12.9821 3.26745 13.3333 4.11529 13.3333 4.99935H6.66666Z" fill="#6B7280"/>
</svg>
