<svg width="21" height="20" viewBox="0 0 21 20" fill="none" xmlns="http://www.w3.org/2000/svg">
<path d="M8.69002 4.16667L7.02335 5.83333H3.83335V15.8333H17.1667V5.83333H13.9767L12.31 4.16667H8.69002ZM8.00002 2.5H13L14.6667 4.16667H18C18.221 4.16667 18.433 4.25446 18.5893 4.41074C18.7456 4.56702 18.8334 4.77899 18.8334 5V16.6667C18.8334 16.8877 18.7456 17.0996 18.5893 17.2559C18.433 17.4122 18.221 17.5 18 17.5H3.00002C2.77901 17.5 2.56704 17.4122 2.41076 17.2559C2.25448 17.0996 2.16669 16.8877 2.16669 16.6667V5C2.16669 4.77899 2.25448 4.56702 2.41076 4.41074C2.56704 4.25446 2.77901 4.16667 3.00002 4.16667H6.33335L8.00002 2.5ZM10.5 15C9.28444 15 8.11866 14.5171 7.25911 13.6576C6.39957 12.798 5.91669 11.6322 5.91669 10.4167C5.91669 9.20109 6.39957 8.0353 7.25911 7.17576C8.11866 6.31622 9.28444 5.83333 10.5 5.83333C11.7156 5.83333 12.8814 6.31622 13.7409 7.17576C14.6005 8.0353 15.0834 9.20109 15.0834 10.4167C15.0834 11.6322 14.6005 12.798 13.7409 13.6576C12.8814 14.5171 11.7156 15 10.5 15ZM10.5 13.3333C11.2736 13.3333 12.0154 13.026 12.5624 12.4791C13.1094 11.9321 13.4167 11.1902 13.4167 10.4167C13.4167 9.64312 13.1094 8.90125 12.5624 8.35427C12.0154 7.80729 11.2736 7.5 10.5 7.5C9.72647 7.5 8.98461 7.80729 8.43763 8.35427C7.89064 8.90125 7.58335 9.64312 7.58335 10.4167C7.58335 11.1902 7.89064 11.9321 8.43763 12.4791C8.98461 13.026 9.72647 13.3333 10.5 13.3333Z" fill="white"/>
</svg>
