<svg width="32" height="32" viewBox="0 0 32 32" fill="none" xmlns="http://www.w3.org/2000/svg">
<g clip-path="url(#clip0_4958_184591)">
<rect width="32" height="32" rx="5" fill="#FEF3C7"/>
<path d="M23.7206 25.3266L22.6199 17.071H22.6505C22.9738 17.071 23.2358 16.809 23.2358 16.4858V4.58542C23.2358 4.37978 23.1283 4.19 22.9526 4.08413C22.7768 3.97816 22.5587 3.9719 22.3775 4.06763C20.0953 5.27182 18.6667 7.63952 18.6667 10.2206V15.2384C18.6667 16.2504 19.4873 17.071 20.4994 17.071H20.6382L19.5375 25.3265C19.4575 25.929 19.641 26.5378 20.0411 26.9952C20.4421 27.4526 21.021 27.7153 21.629 27.7153C22.237 27.7153 22.816 27.4526 23.2169 26.9952C23.617 26.5379 23.8006 25.9291 23.7206 25.3266Z" fill="#F59E0B"/>
<path d="M14.9567 4C14.5127 4 14.1534 4.35933 14.1534 4.8033V9.29072H13.35V4.8033C13.35 4.35933 12.9907 4 12.5467 4C12.1027 4 11.7434 4.35933 11.7434 4.8033V9.29072H10.94V4.8033C10.94 4.35933 10.5807 4 10.1367 4C9.6926 4 9.33333 4.35933 9.33333 4.8033V9.29072V10.0251V12.0538C9.33333 13.2455 10.299 14.2112 11.4907 14.2112H11.6688L10.4026 25.6049C10.3352 26.2144 10.5305 26.824 10.9392 27.2814C11.3487 27.7388 11.9332 28 12.5467 28C13.1602 28 13.7447 27.7388 14.1543 27.2814C14.563 26.824 14.7583 26.2144 14.6908 25.6049L13.4246 14.2113H13.6027C14.7944 14.2113 15.7601 13.2456 15.7601 12.0539V10.0251V9.29077V4.8033C15.7601 4.35933 15.4008 4 14.9567 4Z" fill="#F59E0B"/>
</g>
<defs>
<clipPath id="clip0_4958_184591">
<rect width="32" height="32" fill="white"/>
</clipPath>
</defs>
</svg>
