<svg width="20" height="21" viewBox="0 0 20 21" fill="none" xmlns="http://www.w3.org/2000/svg">
<rect y="0.5" width="20" height="20" rx="10" fill="#4B5563"/>
<path d="M8 7.5V9.4995H9.5V7.5H10.5V9.4995H12V7.5H13V9.4995L13.5 9.5C13.8826 9.49998 14.2508 9.64616 14.5291 9.90864C14.8075 10.1711 14.9751 10.5301 14.9975 10.912L15 11V11.5C15 12.007 14.8115 12.47 14.5005 12.8225L14.5 15C14.5 15.1326 14.4473 15.2598 14.3536 15.3536C14.2598 15.4473 14.1326 15.5 14 15.5H6C5.86739 15.5 5.74021 15.4473 5.64645 15.3536C5.55268 15.2598 5.5 15.1326 5.5 15V12.82C5.23133 12.5139 5.06187 12.1335 5.014 11.729L5.003 11.6025L5 11.5V11C4.99998 10.6174 5.14616 10.2492 5.40864 9.97087C5.67112 9.6925 6.03005 9.52495 6.412 9.5025L6.5 9.5L7 9.4995V7.5H8ZM13.5 10.5H6.5C6.37753 10.5 6.25933 10.545 6.16781 10.6264C6.0763 10.7077 6.01783 10.8199 6.0035 10.9415L6 11V11.4855L6.0015 11.559C6.01655 11.8136 6.12831 12.0528 6.31392 12.2278C6.49952 12.4027 6.74496 12.5001 7 12.5C7.23948 12.5004 7.47114 12.4148 7.65284 12.2588C7.83454 12.1028 7.95418 11.8868 7.99 11.65L7.9975 11.5735L8 11.4855C8.018 10.8615 8.9135 10.839 8.9945 11.4185L8.9995 11.4855L9.0015 11.559C9.01549 11.813 9.12573 12.0521 9.30978 12.2276C9.49384 12.4032 9.73787 12.502 9.99222 12.504C10.2466 12.506 10.4921 12.4109 10.6789 12.2383C10.8656 12.0656 10.9796 11.8282 10.9975 11.5745L11.0035 11.4335C11.0655 10.8555 11.9345 10.8555 11.9965 11.4335L12.0025 11.5745C12.0204 11.8269 12.1332 12.063 12.3183 12.2355C12.5034 12.4079 12.747 12.5038 13 12.5038C13.253 12.5038 13.4966 12.4079 13.6817 12.2355C13.8668 12.063 13.9796 11.8269 13.9975 11.5745L14 11.5V11C14 10.8775 13.955 10.7593 13.8736 10.6678C13.7923 10.5763 13.6801 10.5178 13.5585 10.5035L13.5 10.5ZM7.5 5C8.16 5.4355 8.3315 6.044 8.2245 6.444C8.17305 6.63615 8.04737 6.79999 7.87512 6.89948C7.70287 6.99897 7.49815 7.02595 7.306 6.9745C7.11385 6.92305 6.95001 6.79737 6.85052 6.62512C6.75103 6.45287 6.72405 6.24815 6.7755 6.056C6.925 5.501 7.5 5.75 7.5 5ZM10 5C10.66 5.4355 10.8315 6.044 10.7245 6.444C10.673 6.63615 10.5474 6.79999 10.3751 6.89948C10.2029 6.99897 9.99815 7.02595 9.806 6.9745C9.61385 6.92305 9.45001 6.79737 9.35052 6.62512C9.25103 6.45287 9.22405 6.24815 9.2755 6.056C9.425 5.501 10 5.75 10 5ZM12.5 5C13.16 5.4355 13.3315 6.044 13.2245 6.444C13.173 6.63615 13.0474 6.79999 12.8751 6.89948C12.7029 6.99897 12.4981 7.02595 12.306 6.9745C12.1139 6.92305 11.95 6.79737 11.8505 6.62512C11.751 6.45287 11.724 6.24815 11.7755 6.056C11.925 5.501 12.5 5.75 12.5 5Z" fill="white"/>
</svg>
