<svg width="203" height="198" viewBox="0 0 203 198" fill="none" xmlns="http://www.w3.org/2000/svg">
<path d="M80.3192 34.439C71.9809 36.2113 63.4791 37.1006 54.9545 37.0922C53.2353 37.0498 51.5018 36.9507 49.7684 36.788C46.2281 36.4733 42.7191 35.8723 39.2758 34.9909C37.3543 34.4326 35.3903 34.0326 33.4034 33.7952C31.4284 33.5689 29.437 33.5192 27.4532 33.6466C13.3169 34.5593 0.850332 44.8183 0.631 58.7211C1.17579 70.3953 6.95625 81.3618 10.2604 92.8945C10.43 95.2366 10.4087 97.5886 10.1967 99.9272C9.97847 102.348 9.54276 104.745 8.89486 107.087C8.39959 109.125 7.79112 111.163 7.15435 113.193C4.6002 121.33 1.57908 129.374 0.29139 137.334C0.0434189 139.015 -0.0465933 140.716 0.0225316 142.414C0.188396 145.908 1.15679 149.317 2.85262 152.376C11.0174 165.111 26.9862 172.533 42.7781 170.418C44.9006 170.333 47.0232 170.163 49.1458 169.944C50.8938 169.671 52.6148 169.248 54.2895 168.677C62.5958 165.847 69.77 159.911 76.9938 155.192C85.7388 149.489 96.0969 146.27 106.349 144.579C117.669 142.704 129.407 144.94 140.798 145.824C142.723 145.973 144.675 146.086 146.642 146.185C166.969 150.041 201.688 146.327 202.537 118.542C202.34 116.494 201.863 114.483 201.122 112.564C198.242 104.83 191.839 97.9179 188.719 90.6304C187.763 88.6706 186.914 86.7036 186.15 84.7084C182.408 74.7605 180.542 64.2054 180.646 53.5775C180.582 51.4054 180.568 49.2474 180.54 47.0966C180.462 40.6723 180.243 34.3046 179.125 28.2057C178.749 26.648 178.233 25.1276 177.582 23.6634C176.925 22.1776 176.106 20.7683 175.141 19.4608C174.156 17.8609 172.993 16.3775 171.674 15.0387C168.862 12.2014 165.369 10.1332 161.529 9.03188C159.773 8.54076 157.986 8.17197 156.18 7.92815C147.145 6.68998 137.636 8.33143 128.65 10.454C126.542 10.9257 124.464 11.5129 122.417 12.2157C117.527 14.0574 112.824 16.3626 108.372 19.0999C106.887 19.9914 105.415 20.9112 103.95 21.838C98.3343 26.1449 92.2685 29.8313 85.8591 32.8329C84.253 33.3848 82.4064 33.9084 80.3192 34.439Z" fill="#CAEAD7"/>
<path d="M172.389 80.5481C171.415 81.7891 169.99 82.5942 168.424 82.7878C166.859 82.9813 165.28 82.5475 164.033 81.5811C148.326 69.2396 129.637 61.268 109.858 58.4734C98.9321 56.9263 87.8423 56.9263 76.9161 58.4734C57.1364 61.2654 38.4465 69.2373 22.7411 81.5811C21.4923 82.554 19.9082 82.9911 18.3372 82.796C16.7662 82.601 15.337 81.7898 14.3641 80.541C13.3911 79.2923 12.9541 77.7081 13.1491 76.1371C13.3442 74.5661 14.1553 73.1369 15.4041 72.164C33.0574 58.2961 54.115 49.4303 76.3713 46.4951C87.6656 44.9951 99.1087 44.9951 110.403 46.4951C132.656 49.4335 153.711 58.2991 171.363 72.164C171.984 72.6453 172.502 73.2446 172.89 73.9275C173.278 74.6103 173.526 75.3631 173.622 76.1424C173.717 76.9218 173.657 77.7124 173.446 78.4685C173.234 79.2246 172.875 79.9314 172.389 80.5481Z" fill="#47B475"/>
<path d="M154.899 103.833C154.416 104.447 153.816 104.96 153.135 105.343C152.453 105.725 151.703 105.969 150.927 106.061C150.15 106.153 149.364 106.091 148.612 105.879C147.859 105.666 147.157 105.308 146.543 104.823C135.493 96.0437 122.422 90.1675 108.521 87.7296C98.5064 85.9655 88.2606 85.9655 78.2461 87.7296C64.3453 90.169 51.2749 96.045 40.2239 104.823C38.9792 105.747 37.4235 106.149 35.8872 105.944C34.3508 105.74 32.9548 104.944 31.9953 103.727C31.0359 102.51 30.5886 100.966 30.7485 99.4247C30.9083 97.883 31.6627 96.4644 32.8515 95.4699C45.8541 85.139 61.3061 78.344 77.7084 75.7441C88.0957 74.0933 98.6785 74.0933 109.066 75.7441C125.467 78.3468 140.919 85.1415 153.923 95.4699C154.537 95.954 155.05 96.5547 155.432 97.2375C155.813 97.9202 156.056 98.6716 156.147 99.4486C156.238 100.226 156.174 101.013 155.96 101.765C155.746 102.517 155.385 103.22 154.899 103.833Z" fill="#47B475"/>
<path d="M136.32 128.709C135.324 129.935 133.882 130.715 132.311 130.878C130.74 131.042 129.169 130.574 127.943 129.579C118.165 121.661 105.965 117.34 93.3836 117.34C80.802 117.34 68.602 121.661 58.8247 129.579C57.5984 130.574 56.0273 131.041 54.457 130.877C52.8866 130.713 51.4457 129.932 50.4512 128.706C49.4567 127.479 48.99 125.908 49.1539 124.338C49.3177 122.768 50.0987 121.327 51.325 120.332C63.2378 110.696 78.0929 105.432 93.4155 105.418C108.724 105.436 123.565 110.694 135.471 120.318C136.696 121.318 137.473 122.764 137.633 124.338C137.792 125.911 137.32 127.484 136.32 128.709Z" fill="#47B475"/>
<path d="M93.3801 157.569C100.101 157.569 105.549 152.121 105.549 145.4C105.549 138.679 100.101 133.23 93.3801 133.23C86.6591 133.23 81.2107 138.679 81.2107 145.4C81.2107 152.121 86.6591 157.569 93.3801 157.569Z" fill="url(#paint0_linear_5211_193482)"/>
<path d="M93.4154 124.563C90.756 124.564 88.1987 123.539 86.2759 121.702C84.3531 119.865 83.2129 117.357 83.0926 114.7L78.8546 23.1045C78.7645 21.1381 79.0747 19.1739 79.7663 17.331C80.4579 15.488 81.5165 13.8047 82.878 12.3831C84.2394 10.9614 85.8754 9.83098 87.6867 9.06035C89.498 8.28971 91.447 7.89489 93.4154 7.89983C95.3808 7.89968 97.3259 8.29803 99.1331 9.0708C100.94 9.84357 102.572 10.9747 103.93 12.3959C105.287 13.817 106.343 15.4987 107.032 17.3393C107.722 19.1798 108.031 21.1411 107.941 23.1045L103.745 114.7C103.625 117.358 102.484 119.867 100.559 121.704C98.6351 123.542 96.076 124.566 93.4154 124.563Z" fill="url(#paint1_linear_5211_193482)"/>
<g style="mix-blend-mode:multiply">
<path d="M93.4154 105.418C98.2073 105.417 102.985 105.937 107.665 106.967L107.304 114.849C107.243 116.234 106.976 117.603 106.512 118.91C97.9143 116.79 88.9306 116.79 80.3333 118.91C79.8692 117.603 79.6021 116.234 79.5409 114.849L79.173 106.967C83.8506 105.938 88.6259 105.419 93.4154 105.418Z" fill="#CAEAD7"/>
</g>
<g style="mix-blend-mode:multiply">
<path d="M93.4155 74.506C98.6664 74.4997 103.909 74.9138 109.094 75.7441L108.521 87.7296C98.5065 85.9655 88.2607 85.9655 78.2462 87.7296L77.7085 75.7441C82.9026 74.912 88.1551 74.498 93.4155 74.506Z" fill="#CAEAD7"/>
</g>
<g style="mix-blend-mode:multiply">
<path d="M110.396 46.5234L109.851 58.4735C98.9249 56.9263 87.8352 56.9263 76.9089 58.4735L76.3641 46.5234C87.6585 45.0234 99.1016 45.0234 110.396 46.5234Z" fill="#CAEAD7"/>
</g>
<path d="M93.4154 124.563C90.756 124.564 88.1987 123.539 86.2759 121.702C84.3531 119.865 83.2129 117.357 83.0926 114.7L78.8546 23.1045C78.7645 21.1381 79.0747 19.1739 79.7663 17.331C80.4579 15.488 81.5165 13.8047 82.878 12.3831C84.2394 10.9614 85.8754 9.83098 87.6867 9.06035C89.498 8.28971 91.447 7.89489 93.4154 7.89983C95.3808 7.89968 97.3259 8.29803 99.1331 9.0708C100.94 9.84357 102.572 10.9747 103.93 12.3959C105.287 13.817 106.343 15.4987 107.032 17.3393C107.722 19.1798 108.031 21.1411 107.941 23.1045L103.745 114.7C103.625 117.358 102.484 119.867 100.559 121.704C98.6351 123.542 96.076 124.566 93.4154 124.563Z" fill="url(#paint2_linear_5211_193482)"/>
<path d="M100.816 178.165V183.075C100.818 183.346 100.927 183.605 101.119 183.796C101.311 183.987 101.571 184.094 101.842 184.094H103.682C103.8 184.094 103.915 184.133 104.01 184.204C104.104 184.276 104.173 184.376 104.205 184.49C104.581 185.816 105.146 187.082 105.882 188.247L104.332 189.79C104.142 189.983 104.035 190.243 104.035 190.515C104.035 190.786 104.142 191.047 104.332 191.24L107.806 194.707C107.997 194.888 108.25 194.99 108.514 194.99C108.777 194.99 109.031 194.888 109.221 194.707L110.82 193.108C112.122 193.884 113.538 194.45 115.016 194.785V196.971C115.015 197.105 115.041 197.239 115.092 197.363C115.142 197.487 115.217 197.601 115.312 197.696C115.407 197.791 115.519 197.867 115.643 197.919C115.767 197.97 115.9 197.997 116.035 197.997H121.009C121.28 197.995 121.539 197.886 121.73 197.694C121.92 197.502 122.028 197.242 122.028 196.971V194.714C123.497 194.34 124.898 193.739 126.181 192.931L127.723 194.48C127.916 194.671 128.177 194.778 128.448 194.778C128.72 194.778 128.98 194.671 129.174 194.48L132.64 191.006C132.825 190.817 132.929 190.563 132.929 190.299C132.929 190.034 132.825 189.78 132.64 189.591L131.331 188.283C131.249 188.198 131.195 188.089 131.18 187.971C131.165 187.854 131.188 187.735 131.247 187.632C131.85 186.557 132.311 185.408 132.619 184.214C132.648 184.096 132.714 183.991 132.809 183.916C132.904 183.84 133.021 183.798 133.143 183.797H134.904C135.17 183.782 135.419 183.665 135.599 183.469C135.778 183.273 135.874 183.015 135.867 182.75V177.847C135.867 177.574 135.759 177.314 135.566 177.121C135.374 176.929 135.113 176.821 134.841 176.821H133.037C132.918 176.821 132.803 176.782 132.708 176.71C132.614 176.639 132.545 176.538 132.513 176.424C132.178 175.235 131.691 174.093 131.063 173.028C131 172.926 130.974 172.805 130.988 172.686C131.002 172.567 131.056 172.456 131.14 172.37L132.393 171.125C132.583 170.932 132.69 170.671 132.69 170.4C132.69 170.128 132.583 169.868 132.393 169.675L128.926 166.208C128.734 166.028 128.481 165.927 128.218 165.927C127.955 165.927 127.702 166.028 127.511 166.208L125.912 167.807C124.734 167.104 123.462 166.573 122.134 166.229C122.016 166.2 121.912 166.132 121.837 166.038C121.761 165.943 121.719 165.826 121.716 165.705V163.944C121.717 163.809 121.692 163.676 121.641 163.552C121.59 163.427 121.515 163.314 121.42 163.219C121.326 163.123 121.213 163.048 121.089 162.996C120.965 162.944 120.832 162.918 120.697 162.918H115.794C115.522 162.918 115.261 163.026 115.069 163.218C114.876 163.411 114.768 163.672 114.768 163.944V165.79C114.768 165.908 114.729 166.022 114.657 166.115C114.586 166.209 114.486 166.276 114.372 166.307C113.183 166.647 112.042 167.137 110.976 167.764C110.872 167.825 110.752 167.849 110.633 167.834C110.514 167.818 110.403 167.764 110.318 167.679L109.073 166.434C108.88 166.244 108.619 166.137 108.348 166.137C108.076 166.137 107.816 166.244 107.622 166.434L104.156 169.908C103.974 170.099 103.873 170.352 103.873 170.616C103.873 170.879 103.974 171.132 104.156 171.323L105.443 172.632C105.526 172.717 105.579 172.826 105.595 172.943C105.61 173.061 105.587 173.18 105.528 173.283C104.926 174.359 104.465 175.507 104.156 176.7C104.127 176.818 104.06 176.923 103.966 176.999C103.871 177.075 103.753 177.116 103.632 177.118H101.87C101.731 177.113 101.592 177.137 101.463 177.187C101.333 177.238 101.215 177.315 101.117 177.413C101.018 177.511 100.94 177.629 100.888 177.758C100.837 177.887 100.812 178.026 100.816 178.165ZM111.316 176.127C111.917 174.991 112.843 174.06 113.976 173.453C121.695 169.307 129.492 177.068 125.381 184.816C124.774 185.952 123.843 186.883 122.707 187.49C114.995 191.58 107.24 183.846 111.316 176.127Z" fill="#13926E"/>
<path d="M118.356 185.615C121.204 185.615 123.513 183.306 123.513 180.457C123.513 177.609 121.204 175.299 118.356 175.299C115.507 175.299 113.198 177.609 113.198 180.457C113.198 183.306 115.507 185.615 118.356 185.615Z" fill="#13926E"/>
<path d="M40.3512 150.869L24.6018 178.158C24.548 178.25 24.5195 178.354 24.5192 178.46C24.5188 178.567 24.5467 178.671 24.5999 178.763C24.6531 178.855 24.7298 178.932 24.8221 178.984C24.9144 179.037 25.0191 179.064 25.1254 179.064H56.6242C56.7297 179.062 56.8331 179.034 56.9241 178.98C57.0152 178.927 57.0908 178.851 57.1436 178.76C57.1964 178.668 57.2246 178.565 57.2253 178.459C57.2261 178.354 57.1993 178.25 57.1478 178.158L41.4055 150.869C41.3536 150.774 41.2773 150.696 41.1846 150.641C41.0918 150.586 40.9861 150.557 40.8783 150.557C40.7706 150.557 40.6649 150.586 40.5721 150.641C40.4794 150.696 40.4031 150.774 40.3512 150.869Z" fill="#F59E0B"/>
<path d="M42.1343 173.955C42.1343 174.205 42.0602 174.448 41.9215 174.656C41.7828 174.863 41.5857 175.024 41.3552 175.119C41.1246 175.215 40.871 175.239 40.6266 175.19C40.3821 175.141 40.1577 175.02 39.9818 174.843C39.806 174.666 39.6866 174.441 39.6388 174.197C39.591 173.952 39.617 173.698 39.7134 173.468C39.8098 173.238 39.9723 173.042 40.1803 172.905C40.3884 172.767 40.6326 172.694 40.8819 172.696C41.047 172.696 41.2104 172.728 41.3628 172.792C41.5152 172.855 41.6536 172.948 41.77 173.065C41.8864 173.182 41.9785 173.321 42.041 173.474C42.1035 173.627 42.1352 173.79 42.1343 173.955Z" fill="white"/>
<path d="M40.8819 171.486C40.6083 171.488 40.3446 171.384 40.1465 171.195C39.9485 171.006 39.8316 170.748 39.8206 170.474L39.389 161.057C39.3794 160.856 39.411 160.654 39.4818 160.465C39.5526 160.276 39.6611 160.104 39.8008 159.958C39.9405 159.812 40.1084 159.697 40.2943 159.618C40.4801 159.539 40.6801 159.499 40.8819 159.501C41.0834 159.5 41.2829 159.541 41.4683 159.62C41.6537 159.699 41.8212 159.815 41.9607 159.96C42.1002 160.106 42.2088 160.278 42.2799 160.466C42.3511 160.655 42.3834 160.856 42.3748 161.057L41.9432 170.51C41.9218 170.776 41.8006 171.025 41.6038 171.206C41.4071 171.387 41.1492 171.487 40.8819 171.486Z" fill="white"/>
<path d="M54.0772 0.216148L42.5092 20.2461C42.4709 20.314 42.451 20.3908 42.4516 20.4688C42.4521 20.5467 42.4732 20.6232 42.5126 20.6905C42.5519 20.7578 42.6083 20.8136 42.676 20.8524C42.7437 20.8911 42.8204 20.9114 42.8984 20.9112H66.0273C66.1047 20.9101 66.1804 20.889 66.2472 20.8497C66.3139 20.8105 66.3693 20.7546 66.4078 20.6875C66.4464 20.6204 66.4668 20.5444 66.467 20.467C66.4673 20.3896 66.4474 20.3135 66.4093 20.2461L54.8413 0.216148C54.8017 0.150216 54.7457 0.0956585 54.6788 0.0577823C54.6118 0.0199061 54.5362 0 54.4593 0C54.3824 0 54.3067 0.0199061 54.2398 0.0577823C54.1728 0.0956585 54.1168 0.150216 54.0772 0.216148Z" fill="#F59E0B"/>
<path d="M54.4593 18.0811C54.9673 18.0811 55.3791 17.6693 55.3791 17.1614C55.3791 16.6534 54.9673 16.2416 54.4593 16.2416C53.9514 16.2416 53.5396 16.6534 53.5396 17.1614C53.5396 17.6693 53.9514 18.0811 54.4593 18.0811Z" fill="white"/>
<path d="M54.4592 15.35C54.2588 15.3502 54.066 15.2731 53.921 15.1347C53.7761 14.9963 53.6901 14.8074 53.681 14.6071L53.3626 7.69465C53.3559 7.54652 53.3793 7.39857 53.4314 7.25975C53.4835 7.12093 53.5632 6.99411 53.6657 6.88697C53.7682 6.77984 53.8914 6.6946 54.0278 6.63641C54.1642 6.57823 54.311 6.54831 54.4592 6.54846C54.6075 6.54831 54.7543 6.57823 54.8907 6.63641C55.027 6.6946 55.1502 6.77984 55.2527 6.88697C55.3552 6.99411 55.435 7.12093 55.4871 7.25975C55.5392 7.39857 55.5626 7.54652 55.5559 7.69465L55.2092 14.6071C55.2021 14.8031 55.1206 14.989 54.9812 15.127C54.8419 15.265 54.6553 15.3448 54.4592 15.35Z" fill="white"/>
<path d="M108.721 148.568C108.721 140.096 101.853 133.229 93.3819 133.229C84.9104 133.229 78.0428 140.096 78.0428 148.568C78.0428 157.039 84.9104 163.907 93.3819 163.907C101.853 163.907 108.721 157.039 108.721 148.568Z" fill="#F59E0B"/>
<path d="M93.4154 124.563C90.756 124.564 88.1987 123.539 86.2759 121.702C84.3531 119.865 83.2129 117.357 83.0926 114.7L78.8546 23.1045C78.7645 21.1381 79.0747 19.1739 79.7663 17.331C80.4579 15.488 81.5165 13.8047 82.878 12.3831C84.2394 10.9614 85.8754 9.83098 87.6867 9.06035C89.498 8.28971 91.447 7.89489 93.4154 7.89983C95.3808 7.89968 97.3259 8.29803 99.1331 9.0708C100.94 9.84357 102.572 10.9747 103.93 12.3959C105.287 13.817 106.343 15.4987 107.032 17.3393C107.722 19.1798 108.031 21.1411 107.941 23.1045L103.745 114.7C103.625 117.358 102.484 119.867 100.559 121.704C98.6351 123.542 96.076 124.566 93.4154 124.563Z" fill="#F59E0B"/>
<path d="M193.105 74.3574C192.989 74.7274 192.766 75.0547 192.464 75.2979C192.162 75.5411 191.795 75.6892 191.408 75.7235C191.022 75.7578 190.634 75.6768 190.294 75.4906C189.954 75.3044 189.677 75.0216 189.497 74.6777C189.318 74.3339 189.245 73.9446 189.287 73.5591C189.329 73.1736 189.484 72.8093 189.733 72.5121C189.982 72.215 190.314 71.9984 190.686 71.8899C191.059 71.7813 191.455 71.7856 191.825 71.9023C192.32 72.0585 192.733 72.4047 192.973 72.865C193.213 73.3253 193.261 73.862 193.105 74.3574Z" fill="#F59E0B"/>
<path d="M192.391 70.091C191.982 69.9631 191.639 69.6833 191.431 69.3094C191.223 68.9355 191.166 68.496 191.273 68.0816L195.023 53.8321C195.103 53.5266 195.244 53.2405 195.438 52.9912C195.632 52.742 195.875 52.5347 196.151 52.3819C196.428 52.2291 196.733 52.134 197.047 52.1023C197.361 52.0707 197.679 52.1031 197.98 52.1977C198.281 52.2925 198.56 52.4472 198.8 52.6524C199.04 52.8577 199.235 53.1093 199.375 53.3921C199.516 53.675 199.597 53.9832 199.615 54.2984C199.633 54.6135 199.587 54.929 199.48 55.2259L194.442 69.0721C194.296 69.4726 194.002 69.8017 193.62 69.9913C193.238 70.1809 192.798 70.2166 192.391 70.091Z" fill="#F59E0B"/>
<defs>
<linearGradient id="paint0_linear_5211_193482" x1="93.3801" y1="151.053" x2="93.3801" y2="51.8581" gradientUnits="userSpaceOnUse">
<stop stop-color="#9972FF"/>
<stop offset="1" stop-color="#7F85FF"/>
</linearGradient>
<linearGradient id="paint1_linear_5211_193482" x1="93.38" y1="155.708" x2="93.38" y2="30.6254" gradientUnits="userSpaceOnUse">
<stop stop-color="#8AD3FF"/>
<stop offset="1" stop-color="#5F9CFF"/>
</linearGradient>
<linearGradient id="paint2_linear_5211_193482" x1="93.38" y1="155.708" x2="93.38" y2="30.6254" gradientUnits="userSpaceOnUse">
<stop stop-color="#9972FF"/>
<stop offset="1" stop-color="#7F85FF"/>
</linearGradient>
</defs>
</svg>
