<svg width="32" height="32" viewBox="0 0 32 32" fill="none" xmlns="http://www.w3.org/2000/svg">
<g clip-path="url(#clip0_5649_197245)">
<rect width="32" height="32" rx="5" fill="#FECACA"/>
<path d="M14.6016 17.3281C12.5441 17.3281 6.48865 17.3281 6.48865 17.3281C5.84582 17.3281 5.31982 17.8334 5.31982 18.4509V26.8787C5.31982 27.4962 5.84582 28.0015 6.48865 28.0015C6.48865 28.0015 12.6708 28.0015 14.738 28.0015C15.013 28.0015 15.013 27.7177 15.013 27.7177V17.7097C15.013 17.7097 15.0129 17.3281 14.6016 17.3281Z" fill="#EF4444"/>
<path d="M25.5117 17.3281C25.5117 17.3281 19.4331 17.3281 17.407 17.3281C16.9134 17.3281 16.9873 17.822 16.9873 17.822V27.7268C16.9873 27.7268 16.9833 28.0012 17.2803 28.0012C19.3381 28.0012 25.5116 28.0012 25.5116 28.0012C26.1544 28.0012 26.6804 27.496 26.6804 26.8784V18.4509C26.6805 17.8334 26.1546 17.3281 25.5117 17.3281Z" fill="#EF4444"/>
<path d="M15.0129 10.6949C15.0129 10.6949 15.0129 10.3145 14.6216 10.3145C12.2781 10.3145 5.16882 10.3145 5.16882 10.3145C4.52599 10.3145 4 10.8198 4 11.4373V14.9423C4 15.5598 4.52599 16.0651 5.16882 16.0651C5.16882 16.0651 12.3099 16.0651 14.6536 16.0651C15.0129 16.0651 15.0129 15.7657 15.0129 15.7657V10.6949Z" fill="#EF4444"/>
<path d="M26.8313 10.3145C26.8313 10.3145 19.7192 10.3145 17.3484 10.3145C16.9873 10.3145 16.9873 10.645 16.9873 10.645V15.7726C16.9873 15.7726 16.9873 16.0651 17.4264 16.0651C19.7775 16.0651 26.8313 16.0651 26.8313 16.0651C27.4742 16.0651 28.0002 15.5598 28.0002 14.9423V11.4373C28.0002 10.8198 27.4742 10.3145 26.8313 10.3145Z" fill="#EF4444"/>
<path d="M11.0375 9.48433C10.5028 9.48433 10.0143 9.44359 9.58599 9.36317C8.49807 9.15898 7.75033 8.76157 7.30004 8.14834C6.89658 7.59876 6.77311 6.92124 6.93294 6.1345C7.21293 4.75802 8.17516 4 9.64219 4C9.95266 4 10.2936 4.03444 10.6557 4.10242C11.5767 4.27528 12.7547 4.78265 13.807 5.4596C15.5922 6.60825 15.6805 7.32234 15.5916 7.7596C15.4609 8.40211 14.8358 8.86121 13.6805 9.16324C12.9 9.36727 11.9367 9.48433 11.0375 9.48433ZM9.64228 5.79967C9.07413 5.79967 8.87887 5.95216 8.77167 6.47957C8.68396 6.91077 8.79457 7.06138 8.83085 7.11087C8.98276 7.31784 9.37847 7.49045 9.94517 7.59672C10.251 7.65415 10.6288 7.6845 11.0374 7.6845C11.9361 7.6845 12.7277 7.55369 13.2531 7.41061C13.2913 7.40022 13.3506 7.35678 13.287 7.32038C12.6003 6.78291 11.3438 6.06521 10.2965 5.86863C10.0525 5.82298 9.83234 5.79967 9.64228 5.79967Z" fill="#EF4444"/>
<path d="M20.9897 9.48425C20.9897 9.48425 20.9897 9.48425 20.9895 9.48425C20.0904 9.48425 19.1271 9.36718 18.3466 9.16316C17.1912 8.86121 16.5662 8.40203 16.4355 7.7596C16.3467 7.32234 16.4348 6.60825 18.2202 5.4596C19.2723 4.78265 20.4503 4.27528 21.3715 4.10242C21.7336 4.03444 22.0745 4 22.3848 4C23.8521 4 24.8143 4.7581 25.094 6.13459C25.254 6.92124 25.1306 7.59876 24.7271 8.14834C24.2768 8.76165 23.5291 9.15898 22.441 9.36317C22.0128 9.44343 21.5244 9.48425 20.9897 9.48425ZM18.7551 7.30917C18.6942 7.34312 18.7237 7.3967 18.7553 7.40546C19.2803 7.5505 20.0803 7.6845 20.9895 7.6845C21.3983 7.6845 21.776 7.65415 22.0819 7.59672C22.6485 7.49037 23.0444 7.31784 23.1962 7.11087C23.2326 7.06138 23.3433 6.91077 23.2554 6.47957C23.1483 5.95216 22.9529 5.79967 22.3847 5.79967C22.1947 5.79967 21.9747 5.8229 21.7305 5.86871C20.6831 6.06521 19.4418 6.77162 18.7551 7.30917Z" fill="#EF4444"/>
</g>
<defs>
<clipPath id="clip0_5649_197245">
<rect width="32" height="32" fill="white"/>
</clipPath>
</defs>
</svg>
