<svg width="12" height="12" viewBox="0 0 12 12" fill="none" xmlns="http://www.w3.org/2000/svg">
<path fill-rule="evenodd" clip-rule="evenodd" d="M10.8602 6.50494C10.8667 6.51045 10.8732 6.51596 10.8797 6.52147C10.9021 6.54129 10.9039 6.53314 10.8943 6.50869C10.8905 6.49617 10.8853 6.48413 10.8788 6.47278C10.0446 5.04961 9.2099 3.62657 8.37467 2.20369C8.09411 1.72568 7.75696 1.29634 7.29988 0.978476C6.63341 0.515661 5.92188 0.404858 5.16313 0.721846C4.5415 0.98112 4.07484 1.43292 3.70286 1.98363C3.46553 2.33555 3.24541 2.69827 3.02523 3.06109C2.95889 3.17042 2.89253 3.27976 2.8257 3.38882C2.15909 4.48142 1.49161 5.57359 0.823251 6.66531C0.800797 6.70201 0.77823 6.73867 0.755659 6.77534C0.540622 7.12468 0.325128 7.47476 0.201621 7.87048C0.188754 7.91153 0.175423 7.95267 0.162062 7.9939C0.0983489 8.19051 0.033951 8.38923 0.0159584 8.59081C-0.0116841 8.9003 -0.0101605 9.21245 0.075379 9.52591C0.227739 10.0852 0.478264 10.569 0.92925 10.9357C1.38024 11.3025 1.89173 11.5032 2.47462 11.4864C3.22336 11.4644 3.82932 11.1256 4.3517 10.6053C4.71933 10.2392 4.97072 9.79399 5.20383 9.33603C5.27339 9.19932 5.34189 9.06204 5.41039 8.92476C5.68505 8.3743 5.95968 7.8239 6.30235 7.31118C6.62274 6.83162 6.97665 6.38225 7.43569 6.02869C8.14308 5.48437 8.9051 5.3696 9.72676 5.73549C10.1262 5.91326 10.4757 6.16615 10.8022 6.45538C10.8213 6.4719 10.8408 6.48842 10.8602 6.50494ZM10.2545 6.24192C9.84201 5.97031 9.39864 5.77822 8.89128 5.78417C8.85938 5.78631 8.82732 5.78758 8.79526 5.78884C8.71858 5.79186 8.64191 5.79488 8.56762 5.80994C7.97712 5.92471 7.52722 6.2732 7.13543 6.71134C6.76803 7.12151 6.48115 7.58807 6.20582 8.06366C6.15816 8.14559 6.13589 8.17935 6.13722 8.21215C6.13851 8.24392 6.16192 8.27479 6.20582 8.34761C6.29881 8.5022 6.39073 8.65748 6.48264 8.81274C6.66824 9.12627 6.85382 9.43974 7.04815 9.74751C7.33002 10.1938 7.6552 10.6084 8.05983 10.9498C8.59526 11.4016 9.21276 11.6144 9.90774 11.5192C10.5768 11.4276 11.1229 11.0994 11.5297 10.5487C11.8432 10.1253 11.9798 9.64155 11.9988 9.11529C12.011 8.78223 11.928 8.4692 11.8136 8.16543C11.5064 7.3506 10.9727 6.71531 10.2545 6.24192Z" fill="white"/>
</svg>
