<svg width="32" height="32" viewBox="0 0 32 32" fill="none" xmlns="http://www.w3.org/2000/svg">
<path d="M8 4C5.79087 4 4 5.79087 4 8V10.8571C4 11.8039 4.76752 12.5714 5.71429 12.5714C6.66105 12.5714 7.42857 11.8039 7.42857 10.8571V8C7.42857 7.68441 7.68441 7.42857 8 7.42857H10.8571C11.8039 7.42857 12.5714 6.66105 12.5714 5.71429C12.5714 4.76752 11.8039 4 10.8571 4H8Z" fill="white"/>
<path d="M21.1429 4C20.1961 4 19.4286 4.76752 19.4286 5.71429C19.4286 6.66105 20.1961 7.42857 21.1429 7.42857H24C24.3156 7.42857 24.5714 7.68441 24.5714 8V10.8571C24.5714 11.8039 25.3389 12.5714 26.2857 12.5714C27.2325 12.5714 28 11.8039 28 10.8571V8C28 5.79087 26.2092 4 24 4H21.1429Z" fill="white"/>
<path d="M5.71429 19.4286C4.76752 19.4286 4 20.1961 4 21.1429V24C4 26.2092 5.79087 28 8 28H10.8571C11.8039 28 12.5714 27.2325 12.5714 26.2857C12.5714 25.3389 11.8039 24.5714 10.8571 24.5714H8C7.68441 24.5714 7.42857 24.3156 7.42857 24V21.1429C7.42857 20.1961 6.66105 19.4286 5.71429 19.4286Z" fill="white"/>
<path d="M26.2857 19.4286C25.3389 19.4286 24.5714 20.1961 24.5714 21.1429V24C24.5714 24.3156 24.3156 24.5714 24 24.5714H21.7143C20.7675 24.5714 20 25.3389 20 26.2857C20 27.2325 20.7675 28 21.7143 28H24C26.2092 28 28 26.2092 28 24V21.1429C28 20.1961 27.2325 19.4286 26.2857 19.4286Z" fill="white"/>
<path d="M5.71429 14.2857C4.76752 14.2857 4 15.0532 4 16C4 16.9468 4.76752 17.7143 5.71429 17.7143H26.2857C27.2325 17.7143 28 16.9468 28 16C28 15.0532 27.2325 14.2857 26.2857 14.2857H5.71429Z" fill="white"/>
</svg>
