<svg width="80" height="80" viewBox="0 0 80 80" fill="none" xmlns="http://www.w3.org/2000/svg">
  <path d="M40 80C62.0914 80 80 62.0914 80 40C80 17.9086 62.0914 0 40 0C17.9086 0 0 17.9086 0 40C0 62.0914 17.9086 80 40 80Z" fill="#E5E7EC"/>
  <path d="M40 35.4727C47.266 35.4727 53.1562 29.5824 53.1562 22.3164C53.1562 15.0504 47.266 9.16016 40 9.16016C32.734 9.16016 26.8438 15.0504 26.8438 22.3164C26.8438 29.5824 32.734 35.4727 40 35.4727Z" fill="#F6F7F8"/>
  <path d="M39.9999 70.8375C35.1662 70.8373 30.4625 69.2726 26.5919 66.3774C22.7213 63.4821 19.8918 59.4118 18.5264 54.775C16.1702 46.7734 22.1686 38.75 30.5108 38.75H49.4889C57.8311 38.75 63.8296 46.7703 61.4733 54.7719C60.1085 59.4092 57.2792 63.4802 53.4086 66.3761C49.538 69.272 44.8339 70.8371 39.9999 70.8375Z" fill="white"/>
</svg>
