<svg width="20" height="20" viewBox="0 0 20 20" fill="none" xmlns="http://www.w3.org/2000/svg">
<path d="M5 6.66683V5.8335C5 4.50741 5.52678 3.23564 6.46447 2.29796C7.40215 1.36028 8.67392 0.833496 10 0.833496C11.3261 0.833496 12.5979 1.36028 13.5355 2.29796C14.4732 3.23564 15 4.50741 15 5.8335V6.66683H16.6667C16.8877 6.66683 17.0996 6.75463 17.2559 6.91091C17.4122 7.06719 17.5 7.27915 17.5 7.50016V17.5002C17.5 17.7212 17.4122 17.9331 17.2559 18.0894C17.0996 18.2457 16.8877 18.3335 16.6667 18.3335H3.33333C3.11232 18.3335 2.90036 18.2457 2.74408 18.0894C2.5878 17.9331 2.5 17.7212 2.5 17.5002V7.50016C2.5 7.27915 2.5878 7.06719 2.74408 6.91091C2.90036 6.75463 3.11232 6.66683 3.33333 6.66683H5ZM15.8333 8.3335H4.16667V16.6668H15.8333V8.3335ZM9.16667 13.1102C8.84893 12.9267 8.6006 12.6436 8.4602 12.3046C8.3198 11.9656 8.29517 11.5898 8.39012 11.2354C8.48508 10.881 8.69432 10.5679 8.9854 10.3445C9.27647 10.1212 9.63311 10.0001 10 10.0001C10.3669 10.0001 10.7235 10.1212 11.0146 10.3445C11.3057 10.5679 11.5149 10.881 11.6099 11.2354C11.7048 11.5898 11.6802 11.9656 11.5398 12.3046C11.3994 12.6436 11.1511 12.9267 10.8333 13.1102V15.0002H9.16667V13.1102ZM6.66667 6.66683H13.3333V5.8335C13.3333 4.94944 12.9821 4.10159 12.357 3.47647C11.7319 2.85135 10.8841 2.50016 10 2.50016C9.11594 2.50016 8.2681 2.85135 7.64298 3.47647C7.01786 4.10159 6.66667 4.94944 6.66667 5.8335V6.66683Z" fill="#6B7280"/>
</svg>
