<svg width="20" height="20" viewBox="0 0 20 20" fill="none" xmlns="http://www.w3.org/2000/svg">
<path d="M3.33334 14.9998H5.00001V16.6665H15V3.33317H5.00001V4.99984H3.33334V2.49984C3.33334 2.27882 3.42114 2.06686 3.57742 1.91058C3.7337 1.7543 3.94566 1.6665 4.16668 1.6665H15.8333C16.0544 1.6665 16.2663 1.7543 16.4226 1.91058C16.5789 2.06686 16.6667 2.27882 16.6667 2.49984V17.4998C16.6667 17.7208 16.5789 17.9328 16.4226 18.0891C16.2663 18.2454 16.0544 18.3332 15.8333 18.3332H4.16668C3.94566 18.3332 3.7337 18.2454 3.57742 18.0891C3.42114 17.9328 3.33334 17.7208 3.33334 17.4998V14.9998ZM5.00001 9.1665H10.8333V10.8332H5.00001V13.3332L0.833344 9.99984L5.00001 6.6665V9.1665Z" fill="#6B7280"/>
</svg>
