<svg width="96" height="18" viewBox="0 0 96 18" fill="none" xmlns="http://www.w3.org/2000/svg">
<path d="M21.7767 10.1178C21.7767 9.20529 21.956 8.39595 22.3145 7.68982C22.6838 6.98369 23.1781 6.44051 23.7974 6.06028C24.4274 5.68006 25.1281 5.48995 25.8995 5.48995C26.573 5.48995 27.1596 5.62574 27.6594 5.89733C28.1699 6.16892 28.5773 6.51112 28.8815 6.92394V5.6366H31.1792V14.6642H28.8815V13.3443C28.5882 13.768 28.1808 14.1211 27.6594 14.4035C27.1488 14.6751 26.5567 14.8109 25.8832 14.8109C25.1227 14.8109 24.4274 14.6153 23.7974 14.2243C23.1781 13.8332 22.6838 13.2846 22.3145 12.5784C21.956 11.8614 21.7767 11.0412 21.7767 10.1178ZM28.8815 10.1504C28.8815 9.59637 28.7729 9.12381 28.5556 8.73272C28.3383 8.33077 28.045 8.02659 27.6757 7.82018C27.3063 7.60291 26.9098 7.49427 26.4861 7.49427C26.0624 7.49427 25.6713 7.59748 25.3128 7.80389C24.9543 8.01029 24.661 8.31447 24.4329 8.71643C24.2156 9.10751 24.107 9.57465 24.107 10.1178C24.107 10.661 24.2156 11.139 24.4329 11.5518C24.661 11.9538 24.9543 12.2634 25.3128 12.4807C25.6822 12.6979 26.0733 12.8066 26.4861 12.8066C26.9098 12.8066 27.3063 12.7034 27.6757 12.4969C28.045 12.2797 28.3383 11.9755 28.5556 11.5844C28.7729 11.1825 28.8815 10.7045 28.8815 10.1504Z" fill="black"/>
<path d="M44.6185 5.50624C45.7266 5.50624 46.6174 5.84844 47.2909 6.53285C47.9753 7.20639 48.3175 8.15152 48.3175 9.36824V14.6642H46.0362V9.67785C46.0362 8.97172 45.8569 8.43397 45.4984 8.06461C45.1399 7.68439 44.6511 7.49427 44.0319 7.49427C43.4126 7.49427 42.9183 7.68439 42.549 8.06461C42.1905 8.43397 42.0112 8.97172 42.0112 9.67785V14.6642H39.7299V9.67785C39.7299 8.97172 39.5506 8.43397 39.1921 8.06461C38.8336 7.68439 38.3448 7.49427 37.7256 7.49427C37.0955 7.49427 36.5957 7.68439 36.2264 8.06461C35.8679 8.43397 35.6886 8.97172 35.6886 9.67785V14.6642H33.4073V5.6366H35.6886V6.72839C35.982 6.34817 36.3567 6.04942 36.813 5.83215C37.2802 5.61488 37.7907 5.50624 38.3448 5.50624C39.0509 5.50624 39.681 5.65833 40.235 5.96251C40.7891 6.25583 41.2182 6.67951 41.5224 7.23355C41.8157 6.7121 42.2394 6.29385 42.7934 5.97881C43.3583 5.66376 43.9667 5.50624 44.6185 5.50624Z" fill="black"/>
<path d="M49.8958 10.1178C49.8958 9.20529 50.075 8.39595 50.4335 7.68982C50.8029 6.98369 51.2972 6.44051 51.9164 6.06028C52.5465 5.68006 53.2472 5.48995 54.0185 5.48995C54.692 5.48995 55.2787 5.62574 55.7784 5.89733C56.289 6.16892 56.6964 6.51112 57.0005 6.92394V5.6366H59.2982V14.6642H57.0005V13.3443C56.7072 13.768 56.2998 14.1211 55.7784 14.4035C55.2678 14.6751 54.6757 14.8109 54.0022 14.8109C53.2417 14.8109 52.5465 14.6153 51.9164 14.2243C51.2972 13.8332 50.8029 13.2846 50.4335 12.5784C50.075 11.8614 49.8958 11.0412 49.8958 10.1178ZM57.0005 10.1504C57.0005 9.59637 56.8919 9.12381 56.6746 8.73272C56.4574 8.33077 56.164 8.02659 55.7947 7.82018C55.4253 7.60291 55.0288 7.49427 54.6051 7.49427C54.1814 7.49427 53.7904 7.59748 53.4319 7.80389C53.0734 8.01029 52.78 8.31447 52.5519 8.71643C52.3346 9.10751 52.226 9.57465 52.226 10.1178C52.226 10.661 52.3346 11.139 52.5519 11.5518C52.78 11.9538 53.0734 12.2634 53.4319 12.4807C53.8012 12.6979 54.1923 12.8066 54.6051 12.8066C55.0288 12.8066 55.4253 12.7034 55.7947 12.4969C56.164 12.2797 56.4574 11.9755 56.6746 11.5844C56.8919 11.1825 57.0005 10.7045 57.0005 10.1504Z" fill="black"/>
<path d="M62.6833 4.56111C62.2813 4.56111 61.9446 4.43618 61.673 4.18632C61.4123 3.92559 61.2819 3.60512 61.2819 3.22489C61.2819 2.84467 61.4123 2.52962 61.673 2.27976C61.9446 2.01903 62.2813 1.88867 62.6833 1.88867C63.0852 1.88867 63.4166 2.01903 63.6773 2.27976C63.9489 2.52962 64.0847 2.84467 64.0847 3.22489C64.0847 3.60512 63.9489 3.92559 63.6773 4.18632C63.4166 4.43618 63.0852 4.56111 62.6833 4.56111ZM63.8077 5.6366V14.6642H61.5263V5.6366H63.8077Z" fill="black"/>
<path d="M69.5163 14.8109C68.7775 14.8109 68.1149 14.6805 67.5282 14.4198C66.9416 14.1482 66.4745 13.7843 66.1268 13.328C65.7901 12.8717 65.6054 12.3666 65.5728 11.8125H67.8704C67.9139 12.1602 68.0823 12.4481 68.3756 12.6762C68.6798 12.9043 69.0546 13.0184 69.5 13.0184C69.9345 13.0184 70.2713 12.9315 70.5103 12.7577C70.7601 12.5839 70.8851 12.3612 70.8851 12.0896C70.8851 11.7962 70.733 11.579 70.4288 11.4377C70.1355 11.2857 69.6629 11.1227 69.0111 10.9489C68.3376 10.7859 67.7835 10.6176 67.349 10.4437C66.9253 10.2699 66.5559 10.0038 66.2409 9.64526C65.9367 9.28676 65.7846 8.80333 65.7846 8.19497C65.7846 7.69525 65.9259 7.23898 66.2083 6.82616C66.5016 6.41335 66.9144 6.08744 67.4468 5.84844C67.9899 5.60945 68.6255 5.48995 69.3533 5.48995C70.4288 5.48995 71.287 5.76153 71.928 6.30471C72.5689 6.83703 72.922 7.55945 72.9872 8.47199H70.8036C70.771 8.1135 70.6189 7.83105 70.3473 7.62464C70.0866 7.40737 69.7335 7.29873 69.2881 7.29873C68.8753 7.29873 68.5548 7.37478 68.3267 7.52687C68.1094 7.67896 68.0008 7.89079 68.0008 8.16238C68.0008 8.46656 68.1529 8.70013 68.4571 8.86308C68.7612 9.01517 69.2338 9.1727 69.8748 9.33565C70.5266 9.4986 71.0643 9.66699 71.488 9.8408C71.9117 10.0146 72.2756 10.2862 72.5798 10.6556C72.8948 11.0141 73.0578 11.4921 73.0686 12.0896C73.0686 12.611 72.922 13.0781 72.6287 13.491C72.3462 13.9038 71.9334 14.2297 71.3902 14.4687C70.8579 14.6968 70.2333 14.8109 69.5163 14.8109Z" fill="black"/>
<path d="M78.95 14.8109C78.0809 14.8109 77.2987 14.6208 76.6035 14.2406C75.9082 13.8495 75.3596 13.3009 74.9576 12.5947C74.5665 11.8886 74.371 11.0738 74.371 10.1504C74.371 9.22701 74.572 8.41225 74.9739 7.70611C75.3867 6.99998 75.9462 6.4568 76.6524 6.07658C77.3585 5.68549 78.1461 5.48995 79.0152 5.48995C79.8843 5.48995 80.6719 5.68549 81.378 6.07658C82.0841 6.4568 82.6382 6.99998 83.0401 7.70611C83.453 8.41225 83.6594 9.22701 83.6594 10.1504C83.6594 11.0738 83.4475 11.8886 83.0238 12.5947C82.611 13.3009 82.0461 13.8495 81.3291 14.2406C80.623 14.6208 79.83 14.8109 78.95 14.8109ZM78.95 12.8229C79.3628 12.8229 79.7485 12.7251 80.107 12.5295C80.4763 12.3231 80.7697 12.019 80.9869 11.617C81.2042 11.215 81.3128 10.7262 81.3128 10.1504C81.3128 9.29219 81.0847 8.63495 80.6284 8.17868C80.183 7.71155 79.6344 7.47798 78.9826 7.47798C78.3308 7.47798 77.7822 7.71155 77.3368 8.17868C76.9022 8.63495 76.6849 9.29219 76.6849 10.1504C76.6849 11.0086 76.8968 11.6713 77.3205 12.1385C77.755 12.5947 78.2982 12.8229 78.95 12.8229Z" fill="black"/>
<path d="M89.4718 7.51057H87.8912V14.6642H85.5772V7.51057H84.5506V5.6366H85.5772V5.18033C85.5772 4.07225 85.8923 3.25748 86.5224 2.73603C87.1525 2.21458 88.103 1.97015 89.3741 2.00274V3.92559C88.82 3.91473 88.4344 4.00707 88.2171 4.20261C87.9998 4.39816 87.8912 4.75122 87.8912 5.26181V5.6366H89.4718V7.51057Z" fill="black"/>
<path d="M93.6064 7.51057V11.8777C93.6064 12.1819 93.677 12.4046 93.8182 12.5458C93.9703 12.6762 94.2202 12.7414 94.5678 12.7414H95.627V14.6642H94.193C92.2702 14.6642 91.3088 13.73 91.3088 11.8614V7.51057H90.2333V5.6366H91.3088V3.40414H93.6064V5.6366H95.627V7.51057H93.6064Z" fill="black"/>
<path d="M18.3902 9.78486C18.3473 9.74882 18.3041 9.71277 18.2619 9.67673C17.7212 9.20346 17.1423 8.78966 16.4809 8.49877C15.1202 7.90006 13.8583 8.08786 12.6868 8.97853C11.9266 9.55706 11.3405 10.2924 10.8099 11.0771C10.1009 12.1253 9.5678 13.2697 8.99072 14.3904C8.60467 15.1397 8.18835 15.8682 7.57955 16.4673C6.71446 17.3187 5.71097 17.873 4.47101 17.9091C3.50572 17.9365 2.65866 17.6081 1.91181 17.008C1.16495 16.4078 0.750072 15.6162 0.497756 14.7011C0.356098 14.1881 0.353575 13.6774 0.399353 13.1709C0.435398 12.7719 0.583904 12.3798 0.706818 11.9923C0.932821 11.2768 1.34482 10.6525 1.73627 10.0202C2.84309 8.23384 3.94848 6.44672 5.05242 4.65888C5.53038 3.88824 5.99356 3.10894 6.50504 2.35956C7.12105 1.45843 7.89386 0.719147 8.92331 0.294896C10.1798 -0.223794 11.3582 -0.0424868 12.4619 0.714822C13.2188 1.23495 13.7772 1.93747 14.2418 2.71965C15.6249 5.04793 17.0073 7.37645 18.3888 9.7052C18.3995 9.72377 18.4081 9.74347 18.4144 9.76396C18.4302 9.80397 18.4273 9.8173 18.3902 9.78486Z" fill="url(#paint0_linear_5906_195459)"/>
<path d="M15.0963 8.57834C15.9366 8.56861 16.6708 8.88293 17.3539 9.32736C18.5433 10.102 19.4272 11.1415 19.9358 12.4748C20.1254 12.9719 20.2627 13.4841 20.2425 14.0291C20.2112 14.8902 19.9848 15.6818 19.4657 16.3746C18.7921 17.2757 17.8877 17.8128 16.7797 17.9627C15.6287 18.1184 14.6061 17.7702 13.7194 17.0309C13.0493 16.4722 12.5108 15.7939 12.044 15.0636C11.5628 14.3106 11.1141 13.5367 10.6491 12.7729C10.5013 12.5307 10.4937 12.5721 10.6491 12.3083C11.1051 11.5301 11.5801 10.7666 12.1886 10.0955C12.8374 9.37855 13.5825 8.80831 14.5604 8.62052C14.7348 8.58555 14.9172 8.59024 15.0963 8.57834Z" fill="url(#paint1_linear_5906_195459)"/>
<defs>
<linearGradient id="paint0_linear_5906_195459" x1="6.64478" y1="0.684858" x2="13.2489" y2="23.1047" gradientUnits="userSpaceOnUse">
<stop stop-color="#50C789"/>
<stop offset="0.585312" stop-color="#3E9A6A"/>
<stop offset="1" stop-color="#3E9B6A"/>
</linearGradient>
<linearGradient id="paint1_linear_5906_195459" x1="12.5561" y1="10.0205" x2="16.9536" y2="17.9864" gradientUnits="userSpaceOnUse">
<stop stop-color="#3F9E6C"/>
<stop offset="1" stop-color="#54D190"/>
</linearGradient>
</defs>
</svg>
