<svg width="266" height="200" viewBox="0 0 266 200" fill="none" xmlns="http://www.w3.org/2000/svg">
<path d="M256.926 70.9477C255.773 72.4391 254.71 73.9976 253.741 75.6148C250.834 80.6067 248.53 85.9265 246.878 91.4624C246.333 93.7074 246.102 96.0172 246.192 98.3257C246.298 100.778 246.816 103.196 247.722 105.477C248.248 107.083 248.706 108.703 249.095 110.337C257.399 145.573 236.247 191.036 233.494 196.719H22.8296C22.0815 195.944 22.0677 194.99 22.9463 193.83C31.45 182.677 18.5262 158.072 6.61827 133.837C-5.2897 109.602 -4.96026 57.7426 40.3038 61.5861C53.3785 62.6979 65.1973 59.3829 73.4676 48.827C83.1519 36.4729 88.3475 21.2911 100.791 11.1196C110.544 3.13747 123.68 -2.24342 136.35 0.920599C149.239 4.11894 158.759 15.4229 170.207 21.6068C178.637 26.1766 188.211 28.2075 197.77 27.4544C207.812 26.6308 216.72 22.204 225.684 17.9487C234.441 13.7963 244.091 8.98507 253.014 15.7043C269.314 28.9438 268.662 54.7295 256.926 70.9477Z" fill="#CAEAD7"/>
<path d="M231.504 178.318C238.196 186.17 235.162 192.155 238.045 192.457C238.181 192.474 238.32 192.474 238.456 192.457C240.694 192.169 239.905 186.966 247.097 180.254C251.641 175.978 260.275 168.318 257.99 164.303C256.034 160.872 250.104 168.298 247.008 163.658C244.785 160.281 253.686 159.142 252.279 155.601C250.728 151.675 245.286 156.939 244.531 153.102C243.776 149.266 247.88 143.94 244.531 143.006L244.38 142.972C241.126 142.244 239.953 147.31 239.349 150.666C238.745 154.022 238.765 155.155 237.736 154.88C236.706 154.605 233.721 150.323 231.559 152.821C229.397 155.319 235.814 161.29 235.148 165.676C234.483 170.062 229.918 162.704 228.285 166.747C227.297 169.067 228.168 174.42 231.504 178.318Z" fill="#47B475"/>
<g style="mix-blend-mode:screen">
<path d="M231.133 169.272L238.951 176.5L240.385 164.942L240.378 164.949L235.526 157.708L240.509 163.96L242.183 150.467L241.586 158.415L246.789 156.946L241.531 159.163L240.625 171.283L251.799 168.655L240.57 171.997L239.369 187.261L237.935 187.117L238.848 177.344L231.133 169.272Z" fill="#13926E"/>
</g>
<path d="M231.978 186.616L232.08 187.872L233.055 198.854C233.079 199.142 233.21 199.411 233.422 199.608C233.634 199.805 233.912 199.915 234.201 199.918L243.522 200C243.811 200.003 244.092 199.898 244.308 199.705C244.524 199.512 244.659 199.245 244.689 198.957L245.739 189.08L245.979 186.76L231.978 186.616Z" fill="#F59E0B"/>
<g style="mix-blend-mode:multiply" opacity="0.2">
<path d="M232.101 187.872L233.076 198.854C233.1 199.142 233.23 199.411 233.443 199.608C233.655 199.805 233.933 199.915 234.222 199.918L238.656 199.959C234.627 198.346 233.638 194.77 234.462 192.025C235.347 189.053 244.757 189.073 245.759 189.08L236.837 187.207L232.101 187.872Z" fill="#D3DEE5"/>
</g>
<path d="M231.571 189.003L246.367 189.132C246.621 189.134 246.829 188.93 246.831 188.676L246.844 187.221C246.846 186.967 246.642 186.76 246.388 186.758L231.591 186.628C231.337 186.626 231.13 186.83 231.127 187.084L231.115 188.539C231.112 188.793 231.317 189.001 231.571 189.003Z" fill="#F59E0B"/>
<path d="M27.7026 60.5977V68.1063L27.8124 191.901C27.8178 193.578 28.4862 195.184 29.6718 196.37C30.8574 197.555 32.4638 198.224 34.1404 198.229H34.1747L180.44 197.666V72.8008C180.439 72.1059 180.302 71.418 180.035 70.7763C179.768 70.1347 179.378 69.5518 178.886 69.0611C178.394 68.5703 177.81 68.1813 177.167 67.9162C176.525 67.6511 175.837 67.5151 175.142 67.516L123.666 67.7357L65.0256 67.9484L62.8088 63.8304L59.9605 58.5593C59.6407 57.9654 59.1649 57.47 58.5844 57.1265C58.0038 56.783 57.3406 56.6045 56.666 56.6101L31.5666 56.7268C31.0579 56.7241 30.5536 56.8224 30.0831 57.016C29.6126 57.2097 29.1852 57.4948 28.8258 57.8549C28.4663 58.215 28.1819 58.6428 27.9891 59.1137C27.7963 59.5845 27.6989 60.089 27.7026 60.5977Z" fill="#13926E"/>
<path d="M189.884 59.7124L172.506 125.031C171.753 127.852 169.911 130.259 167.385 131.723C164.859 133.187 161.856 133.59 159.033 132.842L110.949 120.042C109.55 119.673 108.237 119.032 107.087 118.155C105.937 117.278 104.971 116.183 104.245 114.932C103.519 113.68 103.048 112.298 102.858 110.864C102.668 109.43 102.763 107.973 103.138 106.576L118.924 47.221L139.473 34.9081L182.067 46.2395C183.467 46.607 184.781 47.2477 185.933 48.1247C187.084 49.0018 188.051 50.0979 188.778 51.35C189.504 52.6022 189.976 53.9856 190.166 55.4207C190.356 56.8558 190.26 58.3144 189.884 59.7124Z" fill="white"/>
<path d="M139.48 34.9081L135.06 51.5175L118.931 47.221L139.48 34.9081Z" fill="#F1F5F9"/>
<path d="M154.092 54.4001C159.28 55.7727 162.012 59.8908 160.674 64.8942C159.136 70.6731 154.497 71.984 148.958 70.5084L147.839 74.2421L144.71 73.4391L146.219 67.1385L147.366 67.4405C151.882 68.6416 155.952 68.8132 157.228 64.0088C158.073 60.8379 156.542 58.3122 153.33 57.4611C150.118 56.6101 147.572 57.921 146.748 61.0095L143.316 60.1035C144.579 55.2648 148.93 53.0205 154.092 54.4001ZM144.126 81.936C143.633 81.8218 143.186 81.563 142.841 81.1928C142.496 80.8227 142.27 80.358 142.191 79.8583C142.112 79.3587 142.184 78.8468 142.398 78.3884C142.612 77.93 142.958 77.5459 143.391 77.2854C143.825 77.0248 144.326 76.8997 144.832 76.926C145.337 76.9524 145.823 77.129 146.227 77.4333C146.631 77.7375 146.935 78.1555 147.1 78.6337C147.265 79.1119 147.283 79.6284 147.153 80.1172C146.992 80.7595 146.583 81.3119 146.016 81.6529C145.448 81.994 144.769 82.0958 144.126 81.936Z" fill="#47B475"/>
<path d="M29.8782 196.541C31.0427 197.626 32.5758 198.23 34.1679 198.229H180.282C180.282 198.229 198.059 187.454 206 149.451C211.442 123.37 204.764 100.46 202.877 95.505C202.745 95.1585 202.511 94.8605 202.206 94.6508C201.9 94.4411 201.538 94.3296 201.168 94.3313H52.6029C52.3055 94.331 52.0125 94.4033 51.7494 94.542C51.4863 94.6807 51.2611 94.8815 51.0933 95.1271C50.9255 95.3727 50.8203 95.6555 50.7867 95.951C50.7532 96.2466 50.7923 96.5458 50.9008 96.8227C53.4745 103.391 58.6701 130.117 52.7882 154.166C45.7601 182.883 34.5591 192.45 29.8782 196.541Z" fill="#47B475"/>
<path d="M170.289 137.735L146.432 161.592" stroke="white" stroke-width="5.13" stroke-miterlimit="10" stroke-linecap="round"/>
<path d="M170.289 161.592L146.432 137.735" stroke="white" stroke-width="5.13" stroke-miterlimit="10" stroke-linecap="round"/>
<path d="M223.693 188.133L219.369 194.571L190.488 175.148L177.942 166.74L182.259 160.288L194.798 168.689L223.693 188.133Z" fill="url(#paint0_linear_5211_193968)"/>
<path d="M194.798 168.689L184.833 162.011C188.037 155.463 188.634 147.942 186.504 140.97C184.373 133.998 179.675 128.095 173.358 124.456C167.042 120.816 159.579 119.712 152.478 121.365C145.378 123.019 139.171 127.307 135.112 133.363C131.054 139.418 129.447 146.79 130.616 153.985C131.785 161.181 135.643 167.664 141.411 172.123C147.178 176.583 154.424 178.685 161.682 178.005C168.94 177.326 175.67 173.915 180.509 168.463L190.488 175.148L194.798 168.689ZM144.936 170.371C140.784 167.588 137.551 163.637 135.645 159.016C133.739 154.396 133.246 149.315 134.228 144.414C135.21 139.514 137.623 135.014 141.162 131.485C144.701 127.956 149.207 125.556 154.11 124.587C159.014 123.619 164.094 124.126 168.709 126.045C173.324 127.964 177.266 131.208 180.037 135.367C182.808 139.526 184.284 144.414 184.278 149.412C184.271 154.41 182.783 159.293 180.001 163.446C176.265 169.008 170.475 172.862 163.901 174.16C157.327 175.459 150.506 174.096 144.936 170.371Z" fill="#3B82F6"/>
<defs>
<linearGradient id="paint0_linear_5211_193968" x1="177.942" y1="177.433" x2="223.686" y2="177.433" gradientUnits="userSpaceOnUse">
<stop stop-color="#8AD3FF"/>
<stop offset="1" stop-color="#5F9CFF"/>
</linearGradient>
</defs>
</svg>
