<svg width="236" height="210" viewBox="0 0 236 210" fill="none" xmlns="http://www.w3.org/2000/svg">
<g clip-path="url(#clip0_4756_184411)">
<path opacity="0.16" d="M221.997 109.872C221.997 120.735 213.374 130.101 210.236 139.914C206.942 150.071 208.235 162.656 202.061 171.109C195.888 179.562 183.419 182.282 174.866 188.497C166.312 194.712 160.07 205.713 149.895 208.967C140.082 212.152 128.528 207.039 117.646 207.039C106.765 207.039 95.2277 212.204 85.398 208.967C75.2234 205.662 68.9116 194.643 60.4443 188.497C51.9769 182.351 39.4569 179.648 33.2314 171.109C27.0059 162.57 28.351 150.071 25.0572 139.914C21.8668 130.101 13.3132 120.735 13.3132 109.872C13.3132 99.0088 21.9358 89.6262 25.0572 79.8303C28.351 69.6729 27.0749 57.088 33.2314 48.635C39.3879 40.182 51.8907 37.4619 60.4443 31.2469C68.9979 25.032 75.2234 14.031 85.398 10.7772C95.2105 7.59221 106.765 12.7053 117.646 12.7053C128.528 12.7053 140.065 7.54056 149.895 10.7772C160.07 14.0826 166.399 25.1008 174.866 31.2469C183.333 37.393 195.836 40.0959 202.061 48.635C208.287 57.1741 206.942 69.6729 210.236 79.8303C213.426 89.6262 221.997 99.0088 221.997 109.872Z" fill="#47B475"/>
<path d="M183.023 143.925C182.353 143.979 181.729 144.283 181.273 144.776C180.817 145.268 180.564 145.914 180.564 146.585C180.564 147.256 180.817 147.902 181.273 148.395C181.729 148.888 182.353 149.191 183.023 149.245C183.693 149.191 184.317 148.888 184.773 148.395C185.228 147.902 185.481 147.256 185.481 146.585C185.481 145.914 185.228 145.268 184.773 144.776C184.317 144.283 183.693 143.979 183.023 143.925Z" fill="#F59E0B"/>
<path d="M233.431 120.976C232.761 121.03 232.136 121.334 231.681 121.827C231.225 122.32 230.972 122.966 230.972 123.636C230.972 124.307 231.225 124.953 231.681 125.446C232.136 125.939 232.761 126.242 233.431 126.296C234.1 126.242 234.725 125.939 235.18 125.446C235.636 124.953 235.889 124.307 235.889 123.636C235.889 122.966 235.636 122.32 235.18 121.827C234.725 121.334 234.1 121.03 233.431 120.976Z" fill="#3B82F6"/>
<path d="M178.591 73.2882C177.921 73.342 177.297 73.6456 176.841 74.1385C176.385 74.6314 176.132 75.2774 176.132 75.9481C176.132 76.6187 176.385 77.2648 176.841 77.7577C177.297 78.2505 177.921 78.5541 178.591 78.6079C179.261 78.5541 179.885 78.2505 180.341 77.7577C180.796 77.2648 181.049 76.6187 181.049 75.9481C181.049 75.2774 180.796 74.6314 180.341 74.1385C179.885 73.6456 179.261 73.342 178.591 73.2882Z" fill="#EF4444"/>
<path d="M165.329 0C164.66 0.0538244 164.035 0.357388 163.579 0.850271C163.124 1.34315 162.871 1.98921 162.871 2.65986C162.871 3.33051 163.124 3.97657 163.579 4.46945C164.035 4.96234 164.66 5.2659 165.329 5.31972C165.999 5.2659 166.624 4.96234 167.079 4.46945C167.535 3.97657 167.788 3.33051 167.788 2.65986C167.788 1.98921 167.535 1.34315 167.079 0.850271C166.624 0.357388 165.999 0.0538244 165.329 0Z" fill="#3B82F6"/>
<path d="M114.905 40.6124C114.235 40.6663 113.61 40.9698 113.155 41.4627C112.699 41.9556 112.446 42.6016 112.446 43.2723C112.446 43.9429 112.699 44.589 113.155 45.0819C113.61 45.5748 114.235 45.8783 114.905 45.9322C115.574 45.8783 116.199 45.5748 116.654 45.0819C117.11 44.589 117.363 43.9429 117.363 43.2723C117.363 42.6016 117.11 41.9556 116.654 41.4627C116.199 40.9698 115.574 40.6663 114.905 40.6124Z" fill="#F59E0B"/>
<path d="M62.7207 13.2391C62.0511 13.2929 61.4263 13.5965 60.9707 14.0893C60.5152 14.5822 60.2622 15.2283 60.2622 15.8989C60.2622 16.5696 60.5152 17.2156 60.9707 17.7085C61.4263 18.2014 62.0511 18.505 62.7207 18.5588C63.3903 18.505 64.0151 18.2014 64.4706 17.7085C64.9262 17.2156 65.1792 16.5696 65.1792 15.8989C65.1792 15.2283 64.9262 14.5822 64.4706 14.0893C64.0151 13.5965 63.3903 13.2929 62.7207 13.2391Z" fill="#EF4444"/>
<path d="M45.9239 79.4688C45.2543 79.5226 44.6295 79.8261 44.174 80.319C43.7184 80.8119 43.4655 81.458 43.4655 82.1286C43.4655 82.7993 43.7184 83.4453 44.174 83.9382C44.6295 84.4311 45.2543 84.7347 45.9239 84.7885C46.5935 84.7347 47.2183 84.4311 47.6739 83.9382C48.1294 83.4453 48.3824 82.7993 48.3824 82.1286C48.3824 81.458 48.1294 80.8119 47.6739 80.319C47.2183 79.8261 46.5935 79.5226 45.9239 79.4688Z" fill="#3B82F6"/>
<path d="M2.56956 117.447C1.89994 117.501 1.27517 117.805 0.819604 118.297C0.36404 118.79 0.111084 119.436 0.111084 120.107C0.111084 120.778 0.36404 121.424 0.819604 121.917C1.27517 122.409 1.89994 122.713 2.56956 122.767C3.23918 122.713 3.86394 122.409 4.31951 121.917C4.77507 121.424 5.02803 120.778 5.02803 120.107C5.02803 119.436 4.77507 118.79 4.31951 118.297C3.86394 117.805 3.23918 117.501 2.56956 117.447Z" fill="#EF4444"/>
<path d="M47.6828 152.757C47.0132 152.811 46.3885 153.114 45.9329 153.607C45.4773 154.1 45.2244 154.746 45.2244 155.417C45.2244 156.088 45.4773 156.734 45.9329 157.226C46.3885 157.719 47.0132 158.023 47.6828 158.077C48.3525 158.023 48.9772 157.719 49.4328 157.226C49.8884 156.734 50.1413 156.088 50.1413 155.417C50.1413 154.746 49.8884 154.1 49.4328 153.607C48.9772 153.114 48.3525 152.811 47.6828 152.757Z" fill="#F59E0B"/>
<path d="M164.745 159.956L122.017 79.6154L89.0726 97.0396L131.801 177.38L164.745 159.956Z" fill="#13926E"/>
<path d="M122.024 79.6241L119.18 81.1165L160.403 158.626L130.309 174.54L131.805 177.376L164.743 159.956L122.024 79.6241Z" fill="#13926E"/>
<path d="M132.35 167.065L97.943 102.39C98.779 101.946 99.4045 101.19 99.6825 100.287C99.9605 99.3845 99.8682 98.4086 99.4259 97.5735L116.663 88.4971C117.105 89.3298 117.861 89.9534 118.764 90.2307C119.667 90.508 120.644 90.4164 121.479 89.9759L155.886 154.61C155.05 155.054 154.424 155.81 154.147 156.713C153.869 157.616 153.961 158.591 154.403 159.426L137.166 168.544C136.948 168.13 136.651 167.763 136.29 167.465C135.93 167.167 135.514 166.942 135.066 166.805C134.619 166.667 134.148 166.619 133.682 166.664C133.216 166.709 132.763 166.845 132.35 167.065Z" fill="#FAF4CE"/>
<path d="M130.377 135.019C125.398 137.651 119.806 136.878 117.888 133.269C115.969 129.66 118.459 124.613 123.452 121.981C128.445 119.349 134.023 120.122 135.941 123.718C137.86 127.313 135.37 132.387 130.377 135.019Z" fill="#47B475"/>
<path d="M187.953 149.21H152.58C151.832 149.214 151.116 149.513 150.588 150.042C150.06 150.571 149.764 151.286 149.764 152.032C149.764 152.777 150.061 153.492 150.589 154.018C151.117 154.545 151.833 154.841 152.58 154.841H187.953C188.7 154.841 189.416 154.545 189.944 154.018C190.472 153.492 190.769 152.777 190.769 152.032C190.769 151.286 190.473 150.571 189.945 150.042C189.417 149.513 188.701 149.214 187.953 149.21Z" fill="#13926E"/>
<path d="M187.953 149.21H152.58C151.888 149.212 151.22 149.468 150.703 149.928C150.187 150.388 149.857 151.021 149.777 151.707H150.118H185.49C186.231 151.714 186.94 152.011 187.464 152.533C187.988 153.056 188.286 153.763 188.293 154.502C188.3 154.61 188.3 154.719 188.293 154.827C188.998 154.73 189.64 154.372 190.092 153.823C190.544 153.275 190.772 152.577 190.731 151.868C190.69 151.16 190.382 150.493 189.87 150C189.358 149.507 188.678 149.226 187.966 149.21H187.953Z" fill="#13926E"/>
<path d="M191.558 154.841H156.185C155.811 154.841 155.441 154.915 155.096 155.058C154.751 155.202 154.438 155.412 154.175 155.677C153.912 155.942 153.704 156.256 153.563 156.602C153.423 156.947 153.352 157.317 153.356 157.69C153.356 158.438 153.654 159.156 154.184 159.685C154.715 160.215 155.435 160.512 156.185 160.512H191.558C191.929 160.512 192.296 160.439 192.639 160.297C192.981 160.155 193.292 159.947 193.554 159.684C193.816 159.422 194.023 159.111 194.164 158.769C194.304 158.426 194.376 158.06 194.374 157.69C194.38 157.318 194.311 156.948 194.172 156.603C194.033 156.257 193.826 155.943 193.564 155.678C193.302 155.413 192.99 155.202 192.645 155.058C192.301 154.915 191.931 154.841 191.558 154.841Z" fill="#47B475"/>
<path d="M191.558 154.841H156.185C155.493 154.843 154.825 155.098 154.309 155.558C153.792 156.018 153.463 156.651 153.383 157.337H153.709H189.082C189.832 157.337 190.552 157.634 191.083 158.164C191.614 158.693 191.912 159.411 191.912 160.159C191.918 160.268 191.918 160.376 191.912 160.485C192.617 160.388 193.259 160.029 193.711 159.481C194.163 158.933 194.391 158.234 194.35 157.526C194.309 156.817 194.001 156.15 193.489 155.658C192.977 155.165 192.297 154.883 191.585 154.868L191.558 154.841Z" fill="#47B475"/>
<path d="M187.939 160.485H152.58C151.017 160.485 149.75 161.745 149.75 163.3C149.75 164.855 151.017 166.115 152.58 166.115H187.939C189.502 166.115 190.769 164.855 190.769 163.3C190.769 161.745 189.502 160.485 187.939 160.485Z" fill="#13926E"/>
<path d="M187.953 160.485H152.58C151.89 160.486 151.224 160.74 150.707 161.197C150.191 161.654 149.86 162.284 149.777 162.968H150.118H185.49C185.863 162.971 186.231 163.048 186.574 163.194C186.917 163.34 187.228 163.552 187.488 163.818C187.749 164.084 187.954 164.399 188.092 164.744C188.23 165.089 188.298 165.458 188.293 165.83C188.3 165.939 188.3 166.047 188.293 166.156C189.018 166.086 189.687 165.739 190.161 165.187C190.635 164.636 190.876 163.923 190.833 163.198C190.791 162.473 190.469 161.792 189.934 161.299C189.4 160.806 188.694 160.538 187.966 160.553L187.953 160.485Z" fill="#13926E"/>
<path d="M186.062 166.115H150.689C149.942 166.115 149.226 166.411 148.698 166.938C148.17 167.464 147.873 168.179 147.873 168.924C147.873 169.67 148.169 170.385 148.697 170.914C149.225 171.443 149.941 171.742 150.689 171.746H186.062C186.81 171.742 187.526 171.443 188.054 170.914C188.582 170.385 188.878 169.67 188.878 168.924C188.878 168.179 188.581 167.464 188.053 166.938C187.525 166.411 186.809 166.115 186.062 166.115Z" fill="#47B475"/>
<path d="M186.062 166.115H150.689C150.004 166.112 149.342 166.356 148.824 166.802C148.306 167.249 147.968 167.868 147.873 168.544H183.586C184.332 168.544 185.049 168.84 185.577 169.366C186.105 169.893 186.402 170.607 186.402 171.352C186.409 171.46 186.409 171.569 186.402 171.678C187.127 171.608 187.796 171.261 188.27 170.709C188.744 170.157 188.985 169.444 188.942 168.719C188.9 167.994 188.578 167.314 188.043 166.821C187.509 166.328 186.803 166.06 186.075 166.074L186.062 166.115Z" fill="#47B475"/>
<path d="M59.8494 140.202L50.843 135.548L67.9851 102.526L148.961 144.367L131.805 177.376" fill="#13926E"/>
<path d="M67.9851 102.526L66.5566 105.28L144.199 145.398L128.472 175.653L131.805 177.376L148.961 144.367L67.9851 102.526Z" fill="#13926E"/>
<path d="M131.806 165.83L140.145 149.78C139.728 149.565 139.358 149.271 139.056 148.913C138.753 148.555 138.525 148.141 138.383 147.694C138.241 147.248 138.19 146.778 138.231 146.312C138.272 145.846 138.404 145.392 138.622 144.977L131.819 141.464L129.098 140.107L73.4408 111.317C73.2255 111.74 72.9276 112.116 72.5645 112.422C72.2014 112.728 71.7805 112.959 71.3266 113.101C70.8728 113.242 70.3951 113.292 69.9217 113.246C69.4483 113.201 68.9888 113.062 68.5702 112.837L59.6591 130.108C60.4986 130.544 61.1303 131.295 61.4159 132.195C61.7015 133.095 61.6177 134.072 61.1828 134.911L71.4136 140.202" fill="#FAF4CE"/>
<path d="M92.0386 140.202C92.3194 138.928 92.7773 137.7 93.3991 136.552C95.9976 131.559 101.045 129.022 104.677 130.908C107.548 132.387 108.664 136.199 107.725 140.202" fill="#47B475"/>
<path d="M187.953 171.746H152.58C151.832 171.749 151.116 172.048 150.588 172.577C150.06 173.106 149.764 173.821 149.764 174.568C149.764 175.312 150.061 176.027 150.589 176.553C151.117 177.08 151.833 177.376 152.58 177.376H187.953C188.7 177.376 189.416 177.08 189.944 176.553C190.472 176.027 190.769 175.312 190.769 174.568C190.769 173.821 190.473 173.106 189.945 172.577C189.417 172.048 188.701 171.749 187.953 171.746Z" fill="#13926E"/>
<path d="M187.953 171.746H152.58C151.89 171.747 151.224 172 150.707 172.458C150.191 172.915 149.86 173.545 149.777 174.228H185.49C186.232 174.232 186.943 174.528 187.468 175.051C187.993 175.574 188.289 176.283 188.293 177.023C188.3 177.136 188.3 177.249 188.293 177.362C188.998 177.265 189.64 176.907 190.092 176.359C190.544 175.81 190.772 175.112 190.731 174.404C190.69 173.695 190.382 173.028 189.87 172.535C189.358 172.043 188.678 171.761 187.966 171.746H187.953Z" fill="#13926E"/>
<path d="M131.805 140.202H40.6122V177.39H131.805V140.202Z" fill="#13926E"/>
<path d="M40.6259 140.202V143.404H128.595V177.376H131.806V140.202H40.6259Z" fill="#13926E"/>
<path d="M122.99 172.071H49.5234C49.5162 171.131 49.1356 170.232 48.465 169.57C47.7944 168.909 46.8883 168.54 45.9453 168.544V149.061C46.4168 149.063 46.8841 148.971 47.3199 148.792C47.7557 148.612 48.1515 148.348 48.4843 148.015C48.8171 147.682 49.0803 147.286 49.2586 146.851C49.437 146.416 49.527 145.95 49.5234 145.479H122.99C122.99 146.422 123.365 147.326 124.034 147.993C124.702 148.659 125.609 149.034 126.554 149.034V168.544C125.613 168.544 124.711 168.914 124.043 169.575C123.375 170.236 122.997 171.133 122.99 172.071Z" fill="#FAF4CE"/>
<path d="M93.6166 158.789C93.6166 164.474 90.3379 168.978 86.2564 168.978C82.175 168.978 78.8146 164.474 78.8146 158.789C78.8146 153.104 82.175 148.6 86.2564 148.6C90.3379 148.6 93.6166 153.158 93.6166 158.789Z" fill="#47B475"/>
<path d="M191.558 154.23H190.592C191.011 153.729 191.278 153.12 191.362 152.473C191.446 151.827 191.343 151.169 191.066 150.579C190.789 149.988 190.35 149.488 189.798 149.138C189.247 148.787 188.607 148.601 187.953 148.6H159.383L122.568 79.3256C122.532 79.2495 122.481 79.1813 122.418 79.1254C122.354 79.0694 122.281 79.0268 122.2 79C122.047 78.9403 121.877 78.9403 121.724 79L88.787 96.4882C88.6436 96.5682 88.5375 96.7013 88.4917 96.8587C88.4459 97.0161 88.464 97.1851 88.5421 97.3293L99.63 118.182L68.3389 101.983C68.2663 101.95 68.1874 101.933 68.1076 101.933C68.0278 101.933 67.9489 101.95 67.8763 101.983C67.7214 102.034 67.5907 102.14 67.509 102.281L50.2853 135.263C50.2312 135.412 50.2312 135.576 50.2853 135.725C50.3376 135.883 50.4499 136.014 50.5982 136.091L57.4006 139.578H40.6122C40.5307 139.578 40.4499 139.594 40.3747 139.625C40.2996 139.657 40.2315 139.703 40.1744 139.761C40.1174 139.819 40.0726 139.888 40.0426 139.964C40.0127 140.04 39.9982 140.12 40 140.202V177.376C39.9945 177.46 40.0061 177.545 40.0342 177.624C40.0623 177.704 40.1063 177.777 40.1635 177.839C40.2208 177.901 40.29 177.951 40.3671 177.986C40.4443 178.02 40.5276 178.039 40.6122 178.041H131.996H132.078L147.342 169.9C147.512 170.509 147.847 171.059 148.31 171.49C148.774 171.921 149.347 172.216 149.968 172.342C149.53 172.839 149.246 173.451 149.149 174.105C149.052 174.759 149.146 175.427 149.42 176.029C149.695 176.631 150.138 177.141 150.696 177.498C151.254 177.855 151.904 178.043 152.566 178.041H187.939C188.782 178.025 189.59 177.702 190.209 177.133C190.829 176.563 191.218 175.787 191.302 174.95C191.386 174.114 191.159 173.276 190.664 172.595C190.17 171.915 189.442 171.438 188.619 171.257C189.175 170.627 189.484 169.817 189.49 168.978C189.484 168.143 189.174 167.338 188.619 166.712C189.39 166.545 190.08 166.12 190.575 165.508C191.07 164.896 191.34 164.134 191.34 163.347C191.334 162.544 191.051 161.768 190.538 161.15H191.504C192.416 161.15 193.292 160.788 193.937 160.144C194.583 159.5 194.946 158.627 194.946 157.717C194.946 156.807 194.583 155.934 193.937 155.29C193.292 154.646 192.416 154.285 191.504 154.285L191.558 154.23ZM187.953 159.861H185.735V155.465H189.055V159.861H187.953ZM147.274 168.544L133.275 175.911L136.839 169.046C136.881 169.086 136.933 169.114 136.989 169.127H137.166C137.271 169.127 137.374 169.099 137.465 169.046L149.152 162.873C149.144 163.004 149.144 163.135 149.152 163.266C149.156 164.102 149.465 164.907 150.022 165.532C149.303 165.678 148.649 166.048 148.154 166.59C147.66 167.131 147.352 167.816 147.274 168.544ZM139.315 150.024L132.418 163.307V142.495L137.86 145.276C137.563 146.119 137.545 147.034 137.807 147.888C138.069 148.742 138.597 149.491 139.315 150.024ZM149.233 143.811L131.887 134.843C136.39 131.885 138.417 127.042 136.486 123.433C135.914 122.441 135.111 121.601 134.145 120.984C133.179 120.368 132.077 119.993 130.935 119.892C128.244 119.59 125.526 120.126 123.153 121.425C120.624 122.711 118.588 124.789 117.357 127.34L109.861 123.473L98.7593 102.607C99.4828 102.074 100.016 101.324 100.28 100.467C100.545 99.6101 100.527 98.691 100.229 97.8449L116.446 89.2704C116.978 89.9907 117.727 90.5219 118.584 90.7856C119.441 91.0494 120.361 91.0319 121.207 90.7357L152.009 148.654C151.192 148.83 150.468 149.296 149.97 149.964C149.473 150.633 149.236 151.46 149.304 152.29C149.373 153.12 149.741 153.897 150.341 154.476C150.942 155.055 151.732 155.397 152.566 155.438H153.546C153.028 156.054 152.744 156.832 152.744 157.636C152.744 158.44 153.028 159.218 153.546 159.834H152.566C152.068 159.834 151.576 159.943 151.124 160.154C150.673 160.365 150.273 160.673 149.954 161.055L137.574 167.594L149.505 144.625C149.574 144.482 149.586 144.318 149.538 144.167C149.49 144.015 149.386 143.888 149.247 143.811H149.233ZM118.459 127.91C119.553 125.558 121.414 123.645 123.738 122.483C125.879 121.312 128.333 120.838 130.758 121.126C131.708 121.203 132.626 121.507 133.434 122.012C134.241 122.517 134.915 123.209 135.397 124.03C137.071 127.164 134.921 131.668 130.608 134.205L118.459 127.91ZM158.104 149.834V154.23H154.784V149.834H158.104ZM181.232 159.861V155.465H184.551V159.861H181.232ZM180.293 171.121V166.726H183.613V171.121H180.293ZM175.736 171.121V166.726H179.055V171.121H175.736ZM171.178 171.121V166.726H174.497V171.121H171.178ZM166.525 171.121V166.726H169.845V171.121H166.525ZM161.967 171.121V166.726H165.287V171.121H161.967ZM157.41 171.121V166.726H160.729V171.121H157.41ZM152.526 165.491C151.941 165.491 151.381 165.259 150.967 164.847C150.554 164.435 150.322 163.876 150.322 163.293C150.322 162.71 150.554 162.151 150.967 161.739C151.381 161.327 151.941 161.095 152.526 161.095H153.505V165.491H152.526ZM156.145 155.465H157.111V159.861H156.185C155.601 159.861 155.04 159.629 154.627 159.217C154.214 158.805 153.981 158.246 153.981 157.663C153.981 157.08 154.214 156.521 154.627 156.109C155.04 155.696 155.601 155.465 156.185 155.465H156.145ZM161.668 155.465V159.861H158.362V155.465H161.668ZM166.226 155.465V159.861H162.947V155.465H166.226ZM170.783 155.465V159.861H167.505V155.465H170.783ZM175.341 155.465V159.861H172.062V155.465H175.341ZM179.899 155.465V159.861H176.579V155.465H179.899ZM172.974 165.491V161.095H176.293V165.491H172.974ZM168.416 165.491V161.095H171.736V165.491H168.416ZM163.859 165.491V161.095H167.178V165.491H163.859ZM159.301 165.491V161.095H162.62V165.491H159.301ZM154.743 161.095H158.063V165.491H154.784L154.743 161.095ZM177.531 165.491V161.095H180.851V165.491H177.531ZM182.089 154.23V149.834H185.409V154.23H182.089ZM180.851 154.23H177.531V149.834H180.851V154.23ZM176.293 154.23H173.015V149.834H176.334L176.293 154.23ZM171.736 154.23H168.457V149.834H171.777L171.736 154.23ZM167.178 154.23H163.899V149.834H167.219L167.178 154.23ZM162.62 154.23H159.342V149.834H162.661L162.62 154.23ZM153.505 154.23H152.526C151.941 154.23 151.381 153.999 150.967 153.587C150.554 153.174 150.322 152.615 150.322 152.032C150.322 151.449 150.554 150.89 150.967 150.478C151.381 150.066 151.941 149.834 152.526 149.834H153.505V154.23ZM152.92 166.726H156.24V171.121H152.92V166.726ZM158.131 172.356V176.765H154.784V172.356H158.131ZM159.369 172.356H162.688V176.765H159.342L159.369 172.356ZM163.927 172.356H167.246V176.765H163.899L163.927 172.356ZM168.484 172.356H171.804V176.765H168.457L168.484 172.356ZM173.042 172.356H176.361V176.765H173.015L173.042 172.356ZM177.599 172.356H180.919V176.765H177.599V172.356ZM182.157 172.356H185.477V176.765H182.157V172.356ZM186.089 171.121H184.824V166.726H186.089C186.673 166.726 187.234 166.957 187.647 167.369C188.061 167.782 188.293 168.341 188.293 168.924C188.293 169.506 188.061 170.066 187.647 170.478C187.234 170.89 186.673 171.121 186.089 171.121ZM185.477 165.491H182.157V161.095H185.477V165.491ZM190.184 152.032C190.18 152.614 189.947 153.171 189.534 153.583C189.122 153.994 188.563 154.227 187.98 154.23H186.715V149.834H187.98C188.559 149.845 189.11 150.081 189.517 150.492C189.924 150.902 190.153 151.455 190.157 152.032H190.184ZM101.548 119.145L89.9162 97.2886L121.765 80.4517L158.008 148.6H153.383L122.037 89.6503C121.994 89.5744 121.936 89.5085 121.866 89.457C121.795 89.4055 121.715 89.3697 121.629 89.3518C121.554 89.3185 121.473 89.3013 121.391 89.3013C121.309 89.3013 121.228 89.3185 121.153 89.3518C120.462 89.7161 119.654 89.7921 118.907 89.5632C118.159 89.3343 117.534 88.8191 117.167 88.1308C117.089 87.9854 116.956 87.8767 116.798 87.8284C116.64 87.7802 116.469 87.7962 116.323 87.873L99.1403 97.0309C99.0686 97.068 99.005 97.119 98.9531 97.1808C98.9013 97.2426 98.8622 97.314 98.8382 97.391C98.8141 97.4679 98.8056 97.5488 98.8131 97.6291C98.8206 97.7093 98.8439 97.7873 98.8818 97.8585C99.247 98.5477 99.3232 99.3533 99.0937 100.099C98.8642 100.844 98.3476 101.468 97.6573 101.834C97.5855 101.872 97.5221 101.924 97.4707 101.987C97.4193 102.05 97.381 102.122 97.358 102.2C97.2967 102.352 97.2967 102.522 97.358 102.675L107.929 122.415L101.548 119.118V119.145ZM51.673 135.277L68.2573 103.421L148.131 144.625L132.431 174.852V165.993L140.676 150.079C140.714 150.007 140.737 149.93 140.745 149.849C140.752 149.769 140.743 149.688 140.719 149.611C140.695 149.534 140.656 149.463 140.604 149.401C140.553 149.339 140.489 149.288 140.417 149.251C139.723 148.89 139.2 148.269 138.963 147.524C138.725 146.779 138.794 145.971 139.152 145.276C139.185 145.203 139.202 145.125 139.202 145.045C139.202 144.966 139.185 144.887 139.152 144.815C139.104 144.658 138.997 144.527 138.853 144.448L132.377 141.097V140.202C132.377 140.036 132.311 139.877 132.194 139.76C132.076 139.643 131.917 139.578 131.751 139.578H129.465L73.7264 110.774C73.5802 110.698 73.4094 110.682 73.2514 110.73C73.0933 110.778 72.9609 110.887 72.8829 111.032C72.5231 111.724 71.9028 112.245 71.1581 112.482C70.4134 112.718 69.6051 112.651 68.9103 112.294C68.8381 112.257 68.7591 112.234 68.6781 112.228C68.5971 112.221 68.5155 112.231 68.4383 112.256C68.361 112.281 68.2896 112.322 68.2282 112.375C68.1667 112.428 68.1165 112.493 68.0804 112.565L59.0468 129.823C58.9929 129.977 58.9929 130.144 59.0468 130.298C59.0991 130.456 59.2114 130.587 59.3597 130.664C60.0558 131.02 60.5816 131.638 60.8214 132.381C61.0612 133.124 60.9954 133.931 60.6385 134.626C60.6007 134.697 60.5774 134.775 60.5699 134.855C60.5624 134.935 60.5709 135.016 60.595 135.093C60.619 135.17 60.6581 135.241 60.7099 135.303C60.7617 135.365 60.8253 135.416 60.897 135.453L68.8695 139.523H59.9991L51.673 135.277ZM92.814 139.578C93.0669 138.637 93.4228 137.727 93.8752 136.864C94.96 134.68 96.7005 132.887 98.8546 131.736C99.6754 131.263 100.598 130.994 101.544 130.949C102.491 130.904 103.434 131.085 104.296 131.478C106.732 132.74 107.834 135.969 107.126 139.618L92.814 139.578ZM104.882 130.352C103.845 129.861 102.705 129.627 101.559 129.67C100.413 129.712 99.2936 130.03 98.2968 130.596C95.9077 131.872 93.9769 133.859 92.7732 136.281C92.2299 137.325 91.8186 138.432 91.5488 139.578H71.5632L62.0398 134.626C62.3193 133.767 62.3111 132.84 62.0167 131.986C61.7222 131.132 61.1574 130.397 60.4073 129.891L68.8559 113.61C69.7047 113.899 70.6241 113.908 71.4787 113.637C72.3334 113.366 73.0783 112.829 73.604 112.104L126.785 139.578H108.405C109.126 135.494 107.766 131.912 104.882 130.352ZM131.152 176.765H41.238V140.812H131.152V176.765ZM148.431 168.924C148.434 168.342 148.668 167.785 149.08 167.373C149.493 166.962 150.051 166.729 150.635 166.726H151.614V171.121H150.635C150.057 171.111 149.507 170.875 149.102 170.463C148.698 170.052 148.471 169.499 148.471 168.924H148.431ZM150.322 174.568C150.322 173.983 150.553 173.423 150.966 173.009C151.379 172.594 151.94 172.36 152.526 172.356H153.505V176.765H152.526C151.949 176.751 151.401 176.514 150.997 176.104C150.594 175.693 150.366 175.142 150.363 174.568H150.322ZM190.116 174.568C190.112 175.149 189.879 175.706 189.466 176.118C189.054 176.529 188.495 176.762 187.912 176.765H186.647V172.356H187.912C188.205 172.352 188.497 172.407 188.769 172.517C189.041 172.626 189.289 172.788 189.498 172.994C189.706 173.2 189.872 173.445 189.985 173.715C190.098 173.985 190.157 174.275 190.157 174.568H190.116ZM187.912 165.491H186.647V161.095H187.912C188.496 161.095 189.057 161.327 189.47 161.739C189.884 162.151 190.116 162.71 190.116 163.293C190.116 163.876 189.884 164.435 189.47 164.847C189.057 165.259 188.496 165.491 187.912 165.491ZM191.517 159.861H190.252V155.465H191.517C192.102 155.465 192.662 155.696 193.076 156.109C193.489 156.521 193.721 157.08 193.721 157.663C193.721 158.246 193.489 158.805 193.076 159.217C192.662 159.629 192.102 159.861 191.517 159.861Z" fill="#1B1B5B"/>
<path d="M112.269 99.6493C112.191 99.5075 112.061 99.4014 111.906 99.3533C111.751 99.3052 111.584 99.3189 111.439 99.3915C111.293 99.4693 111.184 99.6014 111.136 99.759C111.087 99.9166 111.103 100.087 111.181 100.233L119.833 116.513C119.884 116.613 119.962 116.696 120.058 116.754C120.155 116.812 120.265 116.841 120.377 116.839C120.477 116.842 120.576 116.819 120.663 116.771C120.735 116.734 120.798 116.683 120.85 116.621C120.902 116.559 120.941 116.488 120.965 116.411C120.989 116.334 120.998 116.253 120.99 116.173C120.983 116.093 120.959 116.015 120.922 115.944L112.269 99.6493Z" fill="#1B1B5B"/>
<path d="M87.7938 132.998L71.468 124.532C71.3194 124.459 71.1487 124.447 70.9914 124.498C70.8342 124.548 70.7027 124.658 70.6245 124.803C70.5871 124.875 70.5645 124.954 70.558 125.034C70.5515 125.115 70.5612 125.197 70.5865 125.274C70.6118 125.351 70.6523 125.422 70.7055 125.483C70.7588 125.544 70.8237 125.595 70.8966 125.631L87.2224 134.096C87.316 134.121 87.4145 134.121 87.5081 134.096C87.6443 134.092 87.7751 134.042 87.8808 133.957C87.9864 133.871 88.0611 133.753 88.0934 133.621C88.1257 133.489 88.114 133.35 88.0599 133.225C88.0058 133.1 87.9124 132.997 87.7938 132.93V132.998Z" fill="#1B1B5B"/>
<path d="M49.5234 144.882C49.3585 144.886 49.2014 144.953 49.0847 145.069C48.9681 145.185 48.9011 145.342 48.8976 145.507C48.8976 146.285 48.5884 147.032 48.0377 147.584C47.487 148.135 46.7396 148.447 45.959 148.451C45.8774 148.449 45.7963 148.463 45.7205 148.493C45.6446 148.523 45.5755 148.568 45.5172 148.625C45.4589 148.681 45.4126 148.749 45.381 148.824C45.3494 148.899 45.3331 148.98 45.3331 149.061V168.544C45.3331 168.625 45.3494 168.705 45.381 168.78C45.4126 168.855 45.4589 168.923 45.5172 168.98C45.5755 169.037 45.6446 169.082 45.7205 169.112C45.7963 169.142 45.8774 169.156 45.959 169.154C46.7325 169.161 47.4724 169.471 48.0194 170.016C48.5664 170.562 48.8769 171.3 48.884 172.071C48.8876 172.234 48.9551 172.39 49.072 172.504C49.189 172.618 49.3462 172.682 49.5098 172.682H122.99C123.07 172.682 123.15 172.666 123.224 172.635C123.298 172.604 123.366 172.56 123.423 172.503C123.479 172.446 123.524 172.379 123.555 172.305C123.586 172.231 123.602 172.151 123.602 172.071C123.602 171.29 123.913 170.541 124.467 169.989C125.02 169.437 125.771 169.127 126.554 169.127C126.694 169.103 126.821 169.032 126.915 168.926C127.009 168.82 127.064 168.685 127.071 168.544V149.061C127.067 148.898 127 148.743 126.883 148.629C126.766 148.514 126.609 148.451 126.445 148.451C125.666 148.436 124.923 148.117 124.378 147.561C123.833 147.004 123.53 146.257 123.534 145.479C123.534 145.316 123.47 145.159 123.355 145.043C123.241 144.926 123.085 144.859 122.922 144.855L49.5234 144.882ZM125.887 149.631V167.933C125.001 168.068 124.181 168.481 123.547 169.113C122.913 169.745 122.499 170.563 122.364 171.447H50.0812C49.9443 170.564 49.529 169.747 48.8955 169.116C48.2619 168.484 47.443 168.07 46.5576 167.933V149.631C47.4439 149.496 48.2638 149.083 48.8978 148.451C49.5317 147.819 49.9464 147.001 50.0812 146.117H122.35C122.483 147.002 122.897 147.821 123.531 148.453C124.166 149.086 124.987 149.498 125.874 149.631H125.887Z" fill="#1B1B5B"/>
<path d="M86.2565 147.976C81.8349 147.976 78.2296 152.819 78.2296 158.83C78.2296 164.84 81.8349 169.683 86.2565 169.683C90.678 169.683 94.2697 164.826 94.2697 158.83C94.2697 152.833 90.6372 147.976 86.2565 147.976ZM86.2565 168.327C82.5151 168.327 79.454 164.026 79.454 158.748C79.454 153.47 82.5015 149.17 86.2565 149.17C90.0114 149.17 93.0589 153.47 93.0589 158.748C93.0589 164.026 89.957 168.367 86.2565 168.367V168.327Z" fill="#1B1B5B"/>
<path d="M118.622 158.165H100.174C100.009 158.168 99.8522 158.235 99.7356 158.351C99.619 158.468 99.5519 158.624 99.5485 158.789C99.552 158.952 99.6195 159.107 99.7365 159.221C99.8535 159.336 100.011 159.399 100.174 159.399H118.622C118.786 159.399 118.943 159.336 119.06 159.221C119.177 159.107 119.245 158.952 119.248 158.789C119.245 158.624 119.178 158.468 119.061 158.351C118.945 158.235 118.787 158.168 118.622 158.165Z" fill="#1B1B5B"/>
<path d="M72.2571 158.165H53.8089C53.7267 158.165 53.6454 158.181 53.5694 158.212C53.4935 158.244 53.4245 158.29 53.3664 158.348C53.3083 158.405 53.2622 158.474 53.2307 158.55C53.1993 158.626 53.1831 158.707 53.1831 158.789C53.1831 158.87 53.1994 158.951 53.231 159.026C53.2626 159.101 53.3089 159.169 53.3672 159.225C53.4255 159.282 53.4946 159.327 53.5705 159.357C53.6463 159.387 53.7274 159.401 53.8089 159.399H72.2571C72.4207 159.399 72.5779 159.336 72.6949 159.221C72.8119 159.107 72.8794 158.952 72.8829 158.789C72.8794 158.624 72.8124 158.468 72.6958 158.351C72.5792 158.235 72.422 158.168 72.2571 158.165Z" fill="#1B1B5B"/>
<g clip-path="url(#clip1_4756_184411)">
<path d="M205.919 57.1621C205.919 54.4051 205.587 51.726 204.968 49.1593C203.2 45.4736 200.748 42.1761 197.779 39.4304C192.332 36.1767 185.916 34.4034 179.104 34.6518C160.309 35.337 145.628 51.1291 146.313 69.924C146.414 72.6737 146.841 75.3336 147.551 77.8716C149.084 80.793 151.053 83.4512 153.373 85.7576C158.698 89.2091 165.046 91.2161 171.865 91.2161C190.672 91.2161 205.919 75.9694 205.919 57.1621ZM188.305 50.9354C192.543 50.9354 195.991 54.2429 195.991 58.6213H192.099C192.099 56.4321 190.397 54.8274 188.305 54.8274C186.213 54.8274 184.511 56.4321 184.511 58.6213H180.619C180.619 54.2429 184.067 50.9354 188.305 50.9354ZM163.695 50.9354C167.933 50.9354 171.38 54.2429 171.38 58.6213H167.489C167.489 56.4321 165.787 54.8274 163.695 54.8274C161.603 54.8274 159.901 56.4321 159.901 58.6213H156.009C156.009 54.2429 159.457 50.9354 163.695 50.9354ZM157.192 72.7016L160.461 70.5893C163.434 75.1903 168.442 78.3099 173.857 78.9346C180.804 79.7366 187.746 76.46 191.539 70.5893L194.808 72.7016C190.677 79.0949 183.461 82.9455 175.931 82.9455C175.093 82.9455 174.253 82.898 173.411 82.8007C166.853 82.0445 160.79 78.2693 157.192 72.7016Z" fill="#FFCE00"/>
<path d="M204.968 49.1593C205.587 51.7263 205.919 54.4052 205.919 57.1621C205.919 75.9694 190.672 91.2161 171.865 91.2161C165.046 91.2161 158.698 89.2091 153.372 85.7577C159.181 91.5333 167.181 95.1081 176 95.1081C193.704 95.1081 208.108 80.7045 208.108 63C208.108 58.047 206.98 53.3526 204.968 49.1593Z" fill="#FFB100"/>
<path d="M179.104 34.6518C185.917 34.4035 192.332 36.1765 197.779 39.4304C192.051 34.134 184.398 30.892 176 30.892C158.296 30.892 143.892 45.2956 143.892 63C143.892 68.3634 145.216 73.4229 147.551 77.8716C146.841 75.3336 146.414 72.6737 146.313 69.924C145.629 51.1291 160.309 35.3371 179.104 34.6518Z" fill="#FFE454"/>
<path d="M176 27C156.15 27 140 43.1496 140 63C140 82.8504 156.15 99 176 99C195.85 99 212 82.8504 212 63C212 43.1496 195.851 27 176 27ZM176 95.1081C167.181 95.1081 159.181 91.5333 153.372 85.7577C151.053 83.4512 149.084 80.793 147.551 77.8716C145.216 73.4229 143.892 68.3633 143.892 63C143.892 45.2955 158.296 30.8919 176 30.8919C184.398 30.8919 192.051 34.1339 197.779 39.4304C200.748 42.1762 203.2 45.4736 204.968 49.1593C206.98 53.3526 208.108 58.047 208.108 63C208.108 80.7045 193.704 95.1081 176 95.1081Z" fill="black"/>
<path d="M163.695 54.8274C165.787 54.8274 167.489 56.4321 167.489 58.6213H171.381C171.381 54.2429 167.933 50.9355 163.695 50.9355C159.457 50.9355 156.009 54.2429 156.009 58.6213H159.901C159.901 56.4321 161.603 54.8274 163.695 54.8274Z" fill="black"/>
<path d="M188.305 54.8274C190.397 54.8274 192.099 56.4321 192.099 58.6213H195.991C195.991 54.2429 192.543 50.9355 188.305 50.9355C184.067 50.9355 180.619 54.2429 180.619 58.6213H184.511C184.511 56.4321 186.213 54.8274 188.305 54.8274Z" fill="black"/>
<path d="M175.931 82.9455C183.461 82.9455 190.676 79.0949 194.808 72.7016L191.539 70.5893C187.745 76.46 180.804 79.7366 173.857 78.9346C168.442 78.3102 163.434 75.1903 160.461 70.5893L157.192 72.7016C160.79 78.2693 166.853 82.0445 173.411 82.8008C174.252 82.8981 175.093 82.9455 175.931 82.9455Z" fill="black"/>
</g>
</g>
<defs>
<clipPath id="clip0_4756_184411">
<rect width="236" height="210" fill="white"/>
</clipPath>
<clipPath id="clip1_4756_184411">
<rect width="72" height="72" fill="white" transform="translate(140 27)"/>
</clipPath>
</defs>
</svg>
