<svg width="236" height="210" viewBox="0 0 236 210" fill="none" xmlns="http://www.w3.org/2000/svg">
<g clip-path="url(#clip0_4756_184240)">
<path opacity="0.16" d="M221.997 109.872C221.997 120.735 213.374 130.101 210.236 139.914C206.942 150.071 208.235 162.656 202.062 171.109C195.888 179.562 183.42 182.282 174.866 188.497C166.312 194.712 160.07 205.713 149.895 208.967C140.082 212.152 128.528 207.039 117.646 207.039C106.765 207.039 95.2278 212.204 85.398 208.967C75.2234 205.662 68.9117 194.643 60.4443 188.497C51.9769 182.351 39.4569 179.648 33.2314 171.109C27.0059 162.57 28.351 150.071 25.0572 139.914C21.8669 130.101 13.3133 120.735 13.3133 109.872C13.3133 99.0088 21.9358 89.6262 25.0572 79.8303C28.351 69.6729 27.0749 57.088 33.2314 48.635C39.3879 40.182 51.8907 37.4619 60.4443 31.2469C68.9979 25.032 75.2234 14.031 85.398 10.7772C95.2105 7.59221 106.765 12.7053 117.646 12.7053C128.528 12.7053 140.065 7.54056 149.895 10.7772C160.07 14.0826 166.399 25.1008 174.866 31.2469C183.333 37.393 195.836 40.0959 202.062 48.635C208.287 57.1741 206.942 69.6729 210.236 79.8303C213.426 89.6262 221.997 99.0088 221.997 109.872Z" fill="#47B475"/>
<path d="M123.32 110.182V72.1348C123.32 71.7241 123.239 71.3175 123.081 70.9383C122.923 70.5592 122.691 70.2149 122.4 69.9253C122.108 69.6357 121.762 69.4065 121.381 69.251C121.001 69.0954 120.593 69.0165 120.182 69.0187H101.833C101.421 69.0165 101.014 69.0954 100.633 69.251C100.252 69.4065 99.906 69.6357 99.6144 69.9253C99.3227 70.2149 99.0912 70.5592 98.9333 70.9383C98.7753 71.3175 98.694 71.7241 98.694 72.1348V110.182H123.32Z" fill="#47B475"/>
<path d="M120.182 69.0187H101.833C101.421 69.0165 101.014 69.0954 100.633 69.251C100.252 69.4065 99.906 69.6357 99.6144 69.9253C99.3227 70.2149 99.0912 70.5592 98.9333 70.9383C98.7753 71.3175 98.694 71.7241 98.694 72.1348V74.0286H114.853C115.264 74.0263 115.672 74.1052 116.053 74.2608C116.433 74.4164 116.779 74.6456 117.071 74.9351C117.363 75.2247 117.594 75.569 117.752 75.9482C117.91 76.3274 117.991 76.734 117.991 77.1446V110.182H123.32V72.1348C123.32 71.7241 123.239 71.3175 123.081 70.9383C122.923 70.5592 122.691 70.2149 122.4 69.9253C122.108 69.6357 121.762 69.4065 121.381 69.251C121.001 69.0954 120.593 69.0165 120.182 69.0187Z" fill="#13926E"/>
<path d="M123.32 79.8647H98.694V97.1668H123.32V79.8647Z" fill="#47B475"/>
<path d="M123.32 79.8647H117.991V97.1668H123.32V79.8647Z" fill="#13926E"/>
<path d="M132.788 93.8958C132.788 96.3248 131.821 98.6544 130.101 100.372C128.38 102.09 126.046 103.055 123.613 103.055H123.406V110.182H168.416V103.055H168.192C166.988 103.055 165.796 102.818 164.684 102.357C163.572 101.897 162.561 101.222 161.711 100.371C160.86 99.5203 160.186 98.5105 159.727 97.3994C159.268 96.2883 159.033 95.0977 159.035 93.8958" fill="#FAF4CE"/>
<path d="M125.648 102.796C124.955 102.971 124.242 103.058 123.527 103.055H123.32V104.208C124.166 103.864 124.952 103.387 125.648 102.796Z" fill="#E8E0BA"/>
<path d="M168.106 103.055C166.902 103.055 165.71 102.818 164.598 102.357C163.485 101.897 162.475 101.222 161.625 100.371C160.774 99.5203 160.1 98.5105 159.641 97.3994C159.182 96.2883 158.946 95.0977 158.949 93.8958H132.788C132.786 94.526 132.723 95.1545 132.598 95.7723H155.206C155.195 96.9794 155.423 98.1768 155.877 99.2957C156.33 100.415 157.001 101.433 157.851 102.292C158.7 103.151 159.711 103.834 160.826 104.302C161.941 104.77 163.137 105.013 164.346 105.017H164.553V110.182H168.33V103.055H168.106Z" fill="#E8E0BA"/>
<path d="M168.313 106.188H123.32V110.199H168.313V106.188Z" fill="#47B475"/>
<path d="M168.313 106.188H164.553V110.199H168.313V106.188Z" fill="#13926E"/>
<path d="M63.8071 125.676L69.5842 188.119C69.7389 189.802 70.5179 191.367 71.7684 192.507C73.0189 193.648 74.6508 194.28 76.3443 194.282H158.983C160.67 194.257 162.289 193.617 163.535 192.481C164.781 191.345 165.566 189.793 165.743 188.119L170.727 125.676" fill="#47B475"/>
<path d="M120.578 141.188H120.268C118.249 141.188 116.612 142.822 116.612 144.838V180.01C116.612 182.026 118.249 183.66 120.268 183.66H120.578C122.597 183.66 124.234 182.026 124.234 180.01V144.838C124.234 142.822 122.597 141.188 120.578 141.188Z" fill="#13926E"/>
<path d="M95.8486 141.188H95.5382C93.519 141.188 91.8822 142.822 91.8822 144.838V180.01C91.8822 182.026 93.519 183.66 95.5382 183.66H95.8486C97.8677 183.66 99.5046 182.026 99.5046 180.01V144.838C99.5046 142.822 97.8677 141.188 95.8486 141.188Z" fill="#13926E"/>
<path d="M145.29 141.188H144.98C142.961 141.188 141.324 142.822 141.324 144.838V180.01C141.324 182.026 142.961 183.66 144.98 183.66H145.29C147.31 183.66 148.946 182.026 148.946 180.01V144.838C148.946 142.822 147.31 141.188 145.29 141.188Z" fill="#13926E"/>
<path d="M164.001 125.676H63.8071L64.1865 129.808H163.657L159.466 181.8C159.315 183.485 158.537 185.053 157.286 186.194C156.035 187.335 154.401 187.966 152.706 187.964H69.5497V188.084C69.7044 189.768 70.4834 191.333 71.7339 192.473C72.9844 193.613 74.6163 194.246 76.3098 194.247H158.983C160.67 194.223 162.289 193.582 163.535 192.447C164.781 191.311 165.566 189.759 165.743 188.084L170.727 125.676H164.001Z" fill="#13926E"/>
<path d="M65.5316 110.182C63.7118 105.512 63.2689 100.419 64.2551 95.5058C65.2413 90.5924 67.6154 86.0634 71.0971 82.4536C74.5787 78.8439 79.0225 76.3043 83.9034 75.1347C88.7844 73.9652 93.8987 74.2146 98.6423 75.8534V110.182H65.5316Z" fill="#47B475"/>
<path d="M90.0542 74.4417C83.9007 74.4352 77.9415 76.593 73.2229 80.5362C76.4771 78.6855 80.0891 77.5486 83.8181 77.2013C87.5471 76.854 91.3074 77.3042 94.8484 78.5219V110.182H98.6423V75.8879C95.8792 74.9358 92.9773 74.4471 90.0542 74.4417Z" fill="#13926E"/>
<path d="M72.0847 110.182C70.4452 107.086 69.6344 103.62 69.7308 100.12C69.8273 96.6192 70.8278 93.2029 72.6353 90.2017C74.4428 87.2006 76.9962 84.7165 80.0479 82.9899C83.0997 81.2633 86.5464 80.3529 90.0542 80.3468C93.0347 80.3385 95.9798 80.9912 98.6768 82.2577V110.182H72.0847Z" fill="#47B475"/>
<path d="M98.694 82.2578C97.4629 81.6766 96.1739 81.2265 94.8484 80.9149V110.182H98.6423V82.2578H98.694Z" fill="#13926E"/>
<path d="M82.7768 110.182C81.3645 109.215 80.1744 107.96 79.2854 106.499C78.3965 105.039 77.8289 103.406 77.6205 101.709C77.4121 100.012 77.5676 98.291 78.0767 96.6591C78.5858 95.0271 79.4368 93.5219 80.5732 92.2434C81.7097 90.9649 83.1055 89.9424 84.6682 89.2437C86.2308 88.5451 87.9244 88.1862 89.6366 88.1911C91.3488 88.1959 93.0403 88.5643 94.5989 89.2718C96.1576 89.9793 97.5476 91.0097 98.6768 92.2946V110.182H82.7768Z" fill="#FAF4CE"/>
<path d="M98.694 92.3291C97.5939 91.2122 96.2881 90.3178 94.8484 89.695V110.182H98.6423V92.3291H98.694Z" fill="#E8E0BA"/>
<path d="M94.2275 100.662C94.2211 99.7955 93.9456 98.9528 93.439 98.2497C92.9324 97.5467 92.2197 97.0179 91.3993 96.7363C90.9569 96.577 90.4901 96.4954 90.0197 96.4953C88.9159 96.4999 87.8588 96.9408 87.0799 97.7216C86.3009 98.5025 85.8636 99.5596 85.8636 100.662C85.8567 101.18 85.9504 101.694 86.1396 102.177C86.4965 103.076 87.1561 103.824 88.0052 104.291C88.8543 104.759 89.8398 104.916 90.7926 104.737C91.7453 104.558 92.6058 104.053 93.2263 103.309C93.8469 102.566 94.1887 101.629 94.193 100.662H94.2275Z" fill="#47B475"/>
<path d="M160.552 93.3792H131.063C129.851 93.3792 128.689 92.8985 127.832 92.043C126.975 91.1874 126.493 90.027 126.493 88.817C126.498 87.6084 126.981 86.4506 127.837 85.596C128.693 84.7414 129.853 84.2593 131.063 84.2548H160.552C161.763 84.2593 162.923 84.7414 163.779 85.596C164.635 86.4506 165.118 87.6084 165.122 88.817C165.122 90.027 164.641 91.1874 163.784 92.043C162.927 92.8985 161.764 93.3792 160.552 93.3792Z" fill="#47B475"/>
<path d="M160.552 84.2548H131.063C130.047 84.2574 129.06 84.5969 128.258 85.2202C127.456 85.8434 126.883 86.7149 126.631 87.6979H156.638C157.684 87.7025 158.686 88.1193 159.425 88.8577C160.165 89.596 160.582 90.5962 160.587 91.6404V92.966C160.596 93.1094 160.596 93.2531 160.587 93.3964C161.799 93.3964 162.961 92.9158 163.818 92.0602C164.675 91.2046 165.157 90.0442 165.157 88.8342C165.157 87.6242 164.675 86.4638 163.818 85.6082C162.961 84.7526 161.799 84.272 160.587 84.272L160.552 84.2548Z" fill="#13926E"/>
<path d="M177.677 110.216H57.5988C55.132 110.216 53.1323 112.213 53.1323 114.675V121.183C53.1323 123.646 55.132 125.642 57.5988 125.642H177.677C180.144 125.642 182.143 123.646 182.143 121.183V114.675C182.143 112.213 180.144 110.216 177.677 110.216Z" fill="#47B475"/>
<path d="M177.625 110.182H57.6161C56.4299 110.182 55.292 110.651 54.4517 111.487C53.6113 112.323 53.1369 113.457 53.1323 114.641V115.175H172.02C172.531 115.175 173.037 115.275 173.509 115.471C173.981 115.667 174.41 115.954 174.77 116.315C175.131 116.677 175.416 117.106 175.61 117.578C175.804 118.05 175.903 118.555 175.901 119.065V125.676H177.625C178.811 125.676 179.949 125.207 180.79 124.371C181.63 123.536 182.104 122.402 182.109 121.217V114.675C182.111 114.086 181.997 113.502 181.773 112.957C181.548 112.412 181.218 111.917 180.802 111.499C180.385 111.082 179.89 110.75 179.345 110.524C178.8 110.298 178.215 110.182 177.625 110.182Z" fill="#13926E"/>
<path d="M117.44 138.692H117.129C115.11 138.692 113.473 140.326 113.473 142.341V177.514C113.473 179.529 115.11 181.163 117.129 181.163H117.44C119.459 181.163 121.096 179.529 121.096 177.514V142.341C121.096 140.326 119.459 138.692 117.44 138.692Z" fill="#FAF4CE"/>
<path d="M92.71 138.692H92.3996C90.3804 138.692 88.7436 140.326 88.7436 142.341V177.514C88.7436 179.529 90.3804 181.163 92.3996 181.163H92.71C94.7291 181.163 96.366 179.529 96.366 177.514V142.341C96.366 140.326 94.7291 138.692 92.71 138.692Z" fill="#FAF4CE"/>
<path d="M142.169 138.692H141.859C139.84 138.692 138.203 140.326 138.203 142.341V177.514C138.203 179.529 139.84 181.163 141.859 181.163H142.169C144.188 181.163 145.825 179.529 145.825 177.514V142.341C145.825 140.326 144.188 138.692 142.169 138.692Z" fill="#FAF4CE"/>
<path d="M91.6925 95.9961C91.1397 95.7985 90.555 95.705 89.968 95.7206C88.7268 95.743 87.5391 96.2286 86.6387 97.0817C85.7384 97.9348 85.1906 99.0936 85.1035 100.33C85.0163 101.566 85.396 102.79 86.1677 103.761C86.9395 104.731 88.0474 105.378 89.2731 105.574C90.4989 105.77 91.7536 105.5 92.7902 104.818C93.8268 104.137 94.5701 103.092 94.8736 101.89C95.1772 100.689 95.019 99.4172 94.4302 98.3262C93.8414 97.2352 92.8647 96.4039 91.6925 95.9961ZM89.968 104.053C89.288 104.045 88.6257 103.836 88.0642 103.453C87.5027 103.07 87.0671 102.53 86.8121 101.901C86.668 101.503 86.5922 101.084 86.5879 100.662C86.5879 99.7484 86.9513 98.8726 87.5981 98.2269C88.245 97.5812 89.1222 97.2184 90.037 97.2184C90.4185 97.2192 90.7973 97.2832 91.1579 97.4078C91.8574 97.719 92.4332 98.2538 92.7945 98.9277C93.1559 99.6017 93.2824 100.377 93.1539 101.13C93.0255 101.884 92.6494 102.573 92.0851 103.09C91.5207 103.607 90.8002 103.921 90.037 103.984L89.968 104.053Z" fill="#1B1B5B"/>
<path d="M177.625 109.424H169.003V103.055C169.005 102.951 168.986 102.849 168.948 102.753C168.911 102.657 168.854 102.569 168.781 102.496C168.709 102.422 168.623 102.363 168.528 102.323C168.432 102.283 168.33 102.263 168.227 102.263H168.002C165.829 102.255 163.743 101.409 162.181 99.9006C160.619 98.3923 159.701 96.3393 159.621 94.1712H160.449C161.817 94.0937 163.103 93.4967 164.043 92.5027C164.984 91.5087 165.508 90.1931 165.508 88.8256C165.508 87.4581 164.984 86.1425 164.043 85.1485C163.103 84.1545 161.817 83.5576 160.449 83.4801H131.063C129.696 83.5576 128.41 84.1545 127.469 85.1485C126.528 86.1425 126.004 87.4581 126.004 88.8256C126.004 90.1931 126.528 91.5087 127.469 92.5027C128.41 93.4967 129.696 94.0937 131.063 94.1712H131.874C131.804 96.2266 130.981 98.1849 129.56 99.6737C128.138 101.162 126.218 102.078 124.165 102.245V72.1348C124.161 71.0967 123.744 70.1027 123.007 69.3703C122.271 68.6379 121.273 68.2267 120.233 68.2267H101.833C100.793 68.2267 99.7953 68.6379 99.0585 69.3703C98.3216 70.1027 97.9053 71.0967 97.9008 72.1348V74.8204C95.3574 74.0478 92.7127 73.659 90.0542 73.667C85.7507 73.6721 81.5104 74.7013 77.6849 76.6692C73.8594 78.6371 70.5589 81.487 68.0571 84.9827C65.5552 88.4783 63.9241 92.519 63.299 96.7696C62.6738 101.02 63.0727 105.358 64.4624 109.424H57.5643C56.2005 109.451 54.8999 110.004 53.9354 110.966C52.9708 111.929 52.4173 113.228 52.3908 114.589V121.08C52.395 122.456 52.9388 123.776 53.9056 124.758C54.8725 125.739 56.1858 126.304 57.5643 126.331H63.031L68.7219 188.05C68.8863 189.934 69.7541 191.688 71.1532 192.964C72.5523 194.239 74.3806 194.943 76.2753 194.936H158.983C160.875 194.939 162.699 194.233 164.094 192.958C165.49 191.683 166.355 189.931 166.519 188.05L171.486 126.348H177.625C178.312 126.348 178.992 126.211 179.625 125.947C180.258 125.682 180.833 125.293 181.314 124.805C181.796 124.316 182.175 123.736 182.43 123.1C182.685 122.463 182.81 121.782 182.799 121.097V114.675C182.81 113.99 182.685 113.309 182.43 112.672C182.175 112.036 181.796 111.456 181.314 110.968C180.833 110.479 180.258 110.091 179.625 109.826C178.992 109.561 178.312 109.424 177.625 109.424ZM99.4183 109.424V97.9415H122.544V109.424H99.4183ZM83.0182 109.424C81.861 108.468 80.908 107.29 80.2161 105.959C79.5241 104.628 79.1071 103.171 78.99 101.676C78.8729 100.181 79.0579 98.6779 79.5342 97.2557C80.0105 95.8334 80.7683 94.5213 81.7625 93.3971C82.7568 92.273 83.9672 91.3598 85.3219 90.7119C86.6767 90.0639 88.148 89.6944 89.6486 89.6253C91.1491 89.5562 92.6483 89.7889 94.057 90.3095C95.4658 90.8302 96.7553 91.6282 97.849 92.6562V109.424H83.0182ZM72.5159 109.424C71.0118 106.443 70.2989 103.126 70.4452 99.7902C70.5915 96.4549 71.5921 93.2127 73.3515 90.3735C75.1108 87.5343 77.5701 85.1929 80.4943 83.5731C83.4186 81.9533 86.71 81.1092 90.0542 81.1215C92.7616 81.1405 95.4349 81.727 97.9008 82.8431V90.6763C95.6623 88.9255 92.8979 87.9793 90.0542 87.9906C86.6665 87.9952 83.4188 89.3407 81.0234 91.7321C78.6279 94.1235 77.2801 97.3657 77.2755 100.748C77.2498 104.003 78.4856 107.143 80.7246 109.511L72.5159 109.424ZM122.527 96.3748H99.4701V82.275V80.6394H122.544L122.527 96.3748ZM124.165 106.98H167.537V109.424H124.165V106.98ZM127.373 88.817C127.372 87.8318 127.759 86.8856 128.448 86.181C129.138 85.4763 130.077 85.0692 131.063 85.0467H160.552C161.512 85.1114 162.412 85.5377 163.068 86.2392C163.725 86.9408 164.091 87.8653 164.091 88.8256C164.091 89.7859 163.725 90.7104 163.068 91.412C162.412 92.1135 161.512 92.5398 160.552 92.6045H131.063C130.066 92.5909 129.114 92.1859 128.414 91.4771C127.714 90.7683 127.321 89.8126 127.321 88.817H127.373ZM133.478 94.1712H158.173C158.242 96.6565 159.242 99.0256 160.976 100.811C162.709 102.596 165.05 103.667 167.537 103.812V105.413H124.165V103.812C126.642 103.654 128.971 102.578 130.694 100.794C132.417 99.0103 133.409 96.6481 133.478 94.1712ZM101.833 69.7934H120.182C120.491 69.7911 120.798 69.85 121.084 69.9667C121.371 70.0833 121.631 70.2554 121.851 70.473C122.071 70.6907 122.245 70.9496 122.364 71.2348C122.483 71.52 122.544 71.8258 122.544 72.1348V79.0211H99.4701V72.1348C99.4701 71.8258 99.5313 71.52 99.6502 71.2348C99.7692 70.9496 99.9435 70.6907 100.163 70.473C100.383 70.2554 100.643 70.0833 100.93 69.9667C101.216 69.85 101.523 69.7911 101.833 69.7934ZM64.5831 100.662C64.5883 96.6523 65.5418 92.7009 67.366 89.1291C69.1902 85.5573 71.8334 82.466 75.0807 80.1068C78.3279 77.7477 82.0872 76.1874 86.0527 75.553C90.0182 74.9186 94.0777 75.228 97.9008 76.456V81.0526C93.9786 79.4882 89.6771 79.1323 85.5505 80.0308C81.4239 80.9294 77.6615 83.0412 74.7482 86.094C71.8349 89.1469 69.9043 93.0008 69.2052 97.1591C68.5061 101.317 69.0706 105.589 70.8259 109.424H66.1352C65.1024 106.618 64.5768 103.651 64.5831 100.662ZM164.95 187.981C164.824 189.473 164.141 190.862 163.035 191.874C161.929 192.885 160.483 193.444 158.983 193.438H76.3271C74.8245 193.448 73.3737 192.891 72.2644 191.88C71.155 190.868 70.4689 189.476 70.343 187.981L64.6521 126.417H169.848L164.95 187.981ZM181.367 121.166C181.367 121.654 181.27 122.137 181.082 122.588C180.893 123.038 180.616 123.447 180.268 123.789C179.92 124.132 179.507 124.402 179.053 124.584C178.6 124.767 178.114 124.857 177.625 124.85H57.6161C56.6373 124.85 55.6986 124.462 55.0065 123.771C54.3144 123.08 53.9256 122.143 53.9256 121.166V114.675C53.9256 113.698 54.3144 112.761 55.0065 112.07C55.6986 111.379 56.6373 110.991 57.6161 110.991H177.625C178.604 110.991 179.543 111.379 180.235 112.07C180.927 112.761 181.316 113.698 181.316 114.675L181.367 121.166Z" fill="#1B1B5B"/>
<path d="M117.112 181.955H117.457C118.631 181.951 119.755 181.483 120.586 180.654C121.416 179.826 121.884 178.703 121.889 177.531V142.324C121.884 141.152 121.416 140.029 120.586 139.201C119.755 138.372 118.631 137.904 117.457 137.9H117.112C115.938 137.904 114.813 138.372 113.983 139.201C113.153 140.029 112.684 141.152 112.68 142.324V177.531C112.684 178.703 113.153 179.826 113.983 180.654C114.813 181.483 115.938 181.951 117.112 181.955ZM114.249 142.359C114.245 141.98 114.315 141.603 114.457 141.252C114.598 140.9 114.808 140.58 115.074 140.309C115.34 140.039 115.657 139.824 116.007 139.676C116.357 139.529 116.732 139.451 117.112 139.449H117.457C118.215 139.454 118.94 139.756 119.476 140.291C120.012 140.826 120.315 141.55 120.319 142.307V177.514C120.315 178.27 120.012 178.994 119.476 179.529C118.94 180.064 118.215 180.367 117.457 180.371H117.112C116.354 180.367 115.629 180.064 115.093 179.529C114.557 178.994 114.254 178.27 114.249 177.514V142.359Z" fill="#1B1B5B"/>
<path d="M92.3823 181.955H92.7272C93.9013 181.951 95.0259 181.483 95.8561 180.654C96.6863 179.826 97.1547 178.703 97.1592 177.531V142.324C97.1547 141.152 96.6863 140.029 95.8561 139.201C95.0259 138.372 93.9013 137.904 92.7272 137.9H92.3823C91.2083 137.904 90.0836 138.372 89.2534 139.201C88.4233 140.029 87.9549 141.152 87.9503 142.324V177.531C87.9549 178.703 88.4233 179.826 89.2534 180.654C90.0836 181.483 91.2083 181.951 92.3823 181.955ZM89.5196 142.359C89.5151 141.98 89.5856 141.603 89.7272 141.252C89.8689 140.9 90.0787 140.58 90.3448 140.309C90.6108 140.039 90.9278 139.824 91.2775 139.676C91.6272 139.529 92.0027 139.451 92.3823 139.449H92.7272C93.4851 139.454 94.2106 139.756 94.7465 140.291C95.2823 140.826 95.5854 141.55 95.5899 142.307V177.514C95.5854 178.27 95.2823 178.994 94.7465 179.529C94.2106 180.064 93.4851 180.367 92.7272 180.371H92.3823C91.6245 180.367 90.899 180.064 90.3631 179.529C89.8272 178.994 89.5242 178.27 89.5196 177.514V142.359Z" fill="#1B1B5B"/>
<path d="M141.841 181.955H142.169C143.34 181.946 144.46 181.477 145.287 180.648C146.113 179.82 146.579 178.7 146.584 177.531V142.324C146.579 141.152 146.111 140.029 145.281 139.201C144.451 138.372 143.326 137.904 142.152 137.9H141.824C140.65 137.904 139.525 138.372 138.695 139.201C137.865 140.029 137.397 141.152 137.392 142.324V177.531C137.397 178.706 137.867 179.831 138.701 180.66C139.535 181.49 140.664 181.955 141.841 181.955ZM138.979 142.359C138.974 141.98 139.045 141.603 139.186 141.252C139.328 140.9 139.538 140.58 139.804 140.309C140.07 140.039 140.387 139.824 140.737 139.676C141.086 139.529 141.462 139.451 141.841 139.449H142.169C142.928 139.449 143.656 139.75 144.193 140.286C144.73 140.822 145.032 141.549 145.032 142.307V177.514C145.032 178.271 144.73 178.998 144.193 179.534C143.656 180.07 142.928 180.371 142.169 180.371H141.841C141.084 180.367 140.358 180.064 139.822 179.529C139.286 178.994 138.983 178.27 138.979 177.514V142.359Z" fill="#1B1B5B"/>
<path d="M183.023 143.925C182.353 143.979 181.728 144.283 181.273 144.776C180.817 145.268 180.564 145.914 180.564 146.585C180.564 147.256 180.817 147.902 181.273 148.395C181.728 148.888 182.353 149.191 183.023 149.245C183.692 149.191 184.317 148.888 184.773 148.395C185.228 147.902 185.481 147.256 185.481 146.585C185.481 145.914 185.228 145.268 184.773 144.776C184.317 144.283 183.692 143.979 183.023 143.925Z" fill="#F59E0B"/>
<path d="M233.43 120.976C232.761 121.03 232.136 121.334 231.68 121.827C231.225 122.32 230.972 122.966 230.972 123.636C230.972 124.307 231.225 124.953 231.68 125.446C232.136 125.939 232.761 126.242 233.43 126.296C234.1 126.242 234.725 125.939 235.18 125.446C235.636 124.953 235.889 124.307 235.889 123.636C235.889 122.966 235.636 122.32 235.18 121.827C234.725 121.334 234.1 121.03 233.43 120.976Z" fill="#3B82F6"/>
<path d="M178.591 73.2882C177.921 73.342 177.296 73.6456 176.841 74.1385C176.385 74.6314 176.132 75.2774 176.132 75.9481C176.132 76.6187 176.385 77.2648 176.841 77.7577C177.296 78.2505 177.921 78.5541 178.591 78.6079C179.26 78.5541 179.885 78.2505 180.341 77.7577C180.796 77.2648 181.049 76.6187 181.049 75.9481C181.049 75.2774 180.796 74.6314 180.341 74.1385C179.885 73.6456 179.26 73.342 178.591 73.2882Z" fill="#EF4444"/>
<path d="M165.329 0C164.66 0.0538244 164.035 0.357388 163.579 0.850271C163.124 1.34315 162.871 1.98921 162.871 2.65986C162.871 3.33051 163.124 3.97657 163.579 4.46945C164.035 4.96234 164.66 5.2659 165.329 5.31972C165.999 5.2659 166.624 4.96234 167.079 4.46945C167.535 3.97657 167.788 3.33051 167.788 2.65986C167.788 1.98921 167.535 1.34315 167.079 0.850271C166.624 0.357388 165.999 0.0538244 165.329 0Z" fill="#3B82F6"/>
<path d="M114.904 40.6124C114.235 40.6663 113.61 40.9698 113.155 41.4627C112.699 41.9556 112.446 42.6016 112.446 43.2723C112.446 43.9429 112.699 44.589 113.155 45.0819C113.61 45.5748 114.235 45.8783 114.904 45.9322C115.574 45.8783 116.199 45.5748 116.654 45.0819C117.11 44.589 117.363 43.9429 117.363 43.2723C117.363 42.6016 117.11 41.9556 116.654 41.4627C116.199 40.9698 115.574 40.6663 114.904 40.6124Z" fill="#F59E0B"/>
<path d="M62.7206 13.2391C62.051 13.2929 61.4262 13.5965 60.9707 14.0893C60.5151 14.5822 60.2621 15.2283 60.2621 15.8989C60.2621 16.5696 60.5151 17.2156 60.9707 17.7085C61.4262 18.2014 62.051 18.505 62.7206 18.5588C63.3902 18.505 64.015 18.2014 64.4706 17.7085C64.9261 17.2156 65.1791 16.5696 65.1791 15.8989C65.1791 15.2283 64.9261 14.5822 64.4706 14.0893C64.015 13.5965 63.3902 13.2929 62.7206 13.2391Z" fill="#EF4444"/>
<path d="M45.9239 79.4688C45.2542 79.5226 44.6295 79.8261 44.1739 80.319C43.7183 80.8119 43.4654 81.458 43.4654 82.1286C43.4654 82.7993 43.7183 83.4453 44.1739 83.9382C44.6295 84.4311 45.2542 84.7347 45.9239 84.7885C46.5935 84.7347 47.2183 84.4311 47.6738 83.9382C48.1294 83.4453 48.3823 82.7993 48.3823 82.1286C48.3823 81.458 48.1294 80.8119 47.6738 80.319C47.2183 79.8261 46.5935 79.5226 45.9239 79.4688Z" fill="#3B82F6"/>
<path d="M2.56953 117.447C1.89991 117.501 1.27514 117.805 0.819574 118.297C0.364009 118.79 0.111053 119.436 0.111053 120.107C0.111053 120.778 0.364009 121.424 0.819574 121.917C1.27514 122.409 1.89991 122.713 2.56953 122.767C3.23915 122.713 3.86391 122.409 4.31948 121.917C4.77504 121.424 5.028 120.778 5.028 120.107C5.028 119.436 4.77504 118.79 4.31948 118.297C3.86391 117.805 3.23915 117.501 2.56953 117.447Z" fill="#EF4444"/>
<path d="M47.6829 152.757C47.0132 152.811 46.3885 153.114 45.9329 153.607C45.4774 154.1 45.2244 154.746 45.2244 155.417C45.2244 156.088 45.4774 156.734 45.9329 157.226C46.3885 157.719 47.0132 158.023 47.6829 158.077C48.3525 158.023 48.9773 157.719 49.4328 157.226C49.8884 156.734 50.1413 156.088 50.1413 155.417C50.1413 154.746 49.8884 154.1 49.4328 153.607C48.9773 153.114 48.3525 152.811 47.6829 152.757Z" fill="#F59E0B"/>
</g>
<defs>
<clipPath id="clip0_4756_184240">
<rect width="236" height="210" fill="white"/>
</clipPath>
</defs>
</svg>
