<svg width="20" height="20" viewBox="0 0 20 20" fill="none" xmlns="http://www.w3.org/2000/svg">
<path d="M15.0258 13.8478L18.595 17.4162L17.4158 18.5953L13.8475 15.0262C12.5198 16.0905 10.8683 16.6694 9.16666 16.667C5.02666 16.667 1.66666 13.307 1.66666 9.16699C1.66666 5.02699 5.02666 1.66699 9.16666 1.66699C13.3067 1.66699 16.6667 5.02699 16.6667 9.16699C16.6691 10.8687 16.0902 12.5201 15.0258 13.8478ZM13.3542 13.2295C14.4118 12.1419 15.0024 10.684 15 9.16699C15 5.94366 12.3892 3.33366 9.16666 3.33366C5.94332 3.33366 3.33332 5.94366 3.33332 9.16699C3.33332 12.3895 5.94332 15.0003 9.16666 15.0003C10.6837 15.0027 12.1416 14.4121 13.2292 13.3545L13.3542 13.2295Z" fill="#4B5563"/>
</svg>
