<svg width="21" height="20" viewBox="0 0 21 20" fill="none" xmlns="http://www.w3.org/2000/svg">
<path d="M9.08333 2.5V4.16667H4.91667V15.8333H16.5833V11.6667H18.25V16.6667C18.25 16.8877 18.1622 17.0996 18.0059 17.2559C17.8496 17.4122 17.6377 17.5 17.4167 17.5H4.08333C3.86232 17.5 3.65036 17.4122 3.49408 17.2559C3.3378 17.0996 3.25 16.8877 3.25 16.6667V3.33333C3.25 3.11232 3.3378 2.90036 3.49408 2.74408C3.65036 2.5878 3.86232 2.5 4.08333 2.5H9.08333ZM15.5058 6.4225L10.75 11.1783L9.57167 10L14.3275 5.24417L11.5833 2.5H18.25V9.16667L15.5058 6.4225Z" fill="#47B475"/>
</svg>
