<svg width="201" height="200" viewBox="0 0 201 200" fill="none" xmlns="http://www.w3.org/2000/svg">
<path d="M102.019 107.228C98.9351 107.228 96.9739 106.254 94.3275 104.94C93.1913 104.376 92.0452 103.898 90.9376 103.434C88.4562 102.396 86.1111 101.416 83.8915 99.5687C82.6013 98.4955 81.5179 97.2398 80.7182 96.266C80.6324 96.1611 80.6478 96.007 80.7534 95.9217C80.859 95.8365 81.0141 95.8518 81.0999 95.9567C81.8863 96.9141 82.95 98.1469 84.2083 99.1939C86.3718 100.994 88.6828 101.961 91.129 102.984C92.2443 103.451 93.397 103.933 94.5475 104.504C97.3204 105.88 99.3234 106.876 102.687 106.725C106.021 106.576 109.561 105.537 112.925 103.718C114.616 102.805 116.263 101.689 117.824 100.402C118.003 100.253 118.55 99.6693 119.127 99.0518C120.388 97.7032 121.102 96.9709 121.537 96.5884C111.595 94.7917 110.233 91.1611 108.915 87.6463C108.627 86.8791 108.328 86.0846 107.943 85.3338C106.085 81.7119 105.122 77.948 104.191 74.3086C102.909 69.2977 101.698 64.5654 98.2763 61.3195C96.545 59.6769 94.8764 59.5174 93.1099 59.3491C91.3028 59.1764 89.4351 58.9993 87.4948 57.1786C84.183 54.0715 84.3436 49.4485 84.4866 45.3709C84.5053 44.8452 84.5229 44.3239 84.5338 43.8135C84.5965 40.8562 84.1423 33.7786 78.58 31.9403C77.4493 31.5665 76.2327 31.4113 75.0569 31.2605C74.3277 31.1676 73.5742 31.0704 72.8395 30.9228C68.2198 29.995 64.16 26.9622 61.9789 22.8103C59.503 18.0955 54.0584 15.5884 47.4159 16.1021C41.2509 16.5796 34.0475 19.9578 31.8521 26.4277C30.5135 30.3709 31.389 35.2671 34.1927 39.525C34.2675 39.6376 34.2356 39.7895 34.1212 39.8638C34.0068 39.9381 33.855 39.9064 33.7802 39.7928C30.894 35.4103 29.9987 30.3545 31.3846 26.2715C33.6526 19.5895 41.0507 16.1042 47.3774 15.6146C54.2223 15.0846 59.845 17.6889 62.4145 22.584C64.5263 26.6059 68.4596 29.5447 72.9352 30.443C73.6523 30.5873 74.397 30.6824 75.1174 30.7742C76.3174 30.9283 77.5571 31.0868 78.7329 31.4747C84.6064 33.4146 85.0893 40.7556 85.0244 43.8223C85.0134 44.3348 84.9947 44.8572 84.9771 45.3862C84.8308 49.5545 84.6801 53.866 87.8314 56.8212C89.6485 58.5261 91.3523 58.6879 93.155 58.8605C94.927 59.0299 96.7595 59.2037 98.6139 60.9633C102.138 64.3064 103.366 69.1053 104.666 74.1862C105.591 77.8004 106.547 81.537 108.38 85.1097C108.778 85.8857 109.081 86.6933 109.374 87.4736C110.67 90.9272 112.01 94.4988 122.22 96.2092C122.22 96.2092 122.222 96.2092 122.223 96.2092C122.357 96.2321 122.447 96.3578 122.425 96.4911C122.405 96.6059 122.308 96.6879 122.197 96.6944C121.86 96.8463 120.378 98.431 119.488 99.3829C118.848 100.067 118.343 100.608 118.139 100.776C116.554 102.083 114.88 103.217 113.161 104.146C109.733 106 106.119 107.061 102.71 107.211C102.474 107.222 102.244 107.228 102.019 107.228Z" fill="#47B475"/>
<path d="M114.271 97.9216C113.565 97.9216 112.857 97.8976 112.148 97.8495C106.021 97.432 100.678 95.5293 96.27 92.1938C91.6745 88.7162 89.6408 84.8276 86.2717 78.385C83.9311 73.9096 83.0379 71.1828 82.1745 68.5468C81.3386 65.997 80.5499 63.5883 78.5228 59.7675C76.8498 56.6134 73.737 50.7435 68.0196 45.291C62.2923 39.8287 54.8547 35.8036 46.5129 33.6495C46.3809 33.6156 46.3028 33.4823 46.3369 33.3511C46.371 33.22 46.5052 33.1413 46.6372 33.1763C55.0604 35.3511 62.5728 39.4178 68.3617 44.938C74.1363 50.4451 77.2733 56.361 78.9594 59.5391C81.0053 63.397 81.8005 65.8244 82.6431 68.3949C83.501 71.0123 84.3886 73.7194 86.7084 78.1577C90.0466 84.5413 92.0606 88.3938 96.5692 91.8047C100.9 95.0812 106.153 96.9511 112.184 97.361C116.383 97.6473 120.556 97.0703 124.587 95.6473C124.716 95.6025 124.856 95.6681 124.902 95.796C124.947 95.9227 124.881 96.0626 124.752 96.1085C121.336 97.314 117.82 97.9216 114.271 97.9216Z" fill="#47B475"/>
<path d="M119.492 31.2953C119.478 31.2953 119.464 31.2942 119.451 31.292C119.317 31.2702 119.226 31.1434 119.248 31.0101C120.602 22.9915 119.068 18.362 114.421 16.4396C113.384 16.0101 112.247 15.7838 111.149 15.5642C110.125 15.3598 109.066 15.1489 108.068 14.774C104.936 13.598 102.778 11.1215 100.691 8.7259C99.0671 6.86252 97.3875 4.93574 95.2691 3.65487C92.8218 2.17508 84.3909 -2.24677 78.6328 2.95432C75.5299 5.75651 75.0196 10.9926 74.5697 15.6111C74.43 17.0418 74.2991 18.3915 74.0978 19.6133C73.7811 21.5379 73.5545 23.2603 73.9779 24.8483C74.0131 24.9784 73.935 25.1128 73.8031 25.1478C73.6722 25.1827 73.5369 25.1051 73.5017 24.974C73.0518 23.2931 73.285 21.5161 73.6106 19.5346C73.8086 18.3292 73.9394 16.986 74.078 15.5642C74.5367 10.8571 75.057 5.52153 78.3006 2.59257C84.3117 -2.83584 93.0033 1.71388 95.5243 3.23738C97.7087 4.5576 99.4136 6.51388 101.062 8.40569C103.109 10.7554 105.227 13.1838 108.242 14.3161C109.203 14.6767 110.241 14.8844 111.245 15.0844C112.367 15.3084 113.528 15.5401 114.61 15.9882C119.437 17.9849 121.113 22.9248 119.734 31.092C119.714 31.2101 119.609 31.2953 119.492 31.2953Z" fill="#47B475"/>
<path d="M100.148 23.1061C100.071 23.1061 99.9954 23.07 99.947 23.0033C95.3582 16.5727 89.2602 12.3203 84.9518 9.88422C84.8341 9.81756 84.7923 9.66783 84.8594 9.55089C84.9265 9.43395 85.0772 9.39242 85.1949 9.45909C89.5462 11.9192 95.7069 16.2165 100.347 22.7203C100.426 22.8307 100.4 22.9837 100.289 23.0613C100.247 23.0919 100.198 23.1061 100.148 23.1061Z" fill="#47B475"/>
<path d="M193.91 49.4197C192.049 45.0383 187.802 42.3826 183.306 42.3104C183.156 40.8503 182.79 39.388 182.186 37.9651C178.927 30.2908 170.023 26.6941 162.299 29.9323C162.168 29.9869 162.042 30.0471 161.914 30.105C161.903 29.4514 161.77 28.7891 161.499 28.1509C160.362 25.4766 157.261 24.223 154.568 25.352C154.506 25.3782 154.446 25.4066 154.385 25.4339C154.268 24.6591 154.052 23.8875 153.732 23.1323C151.663 18.2602 146.011 15.9771 141.108 18.0329C140.685 18.2099 140.283 18.4154 139.901 18.6438C139.876 18.5826 139.853 18.5203 139.828 18.4591C137.759 13.5869 132.106 11.3039 127.204 13.3596C124.938 14.3094 123.231 16.0208 122.251 18.0656C120.107 15.3859 116.357 14.3312 113.027 15.7268C110.554 16.764 108.894 18.9094 108.381 21.3367C107.274 21.4558 106.165 21.7334 105.086 22.1859C101.362 23.7476 98.8735 27.0001 98.1476 30.6656C97.4711 30.8154 96.798 31.0241 96.1369 31.3017C92.9691 32.6296 90.6956 35.1815 89.6408 38.1706C88.8675 38.1301 88.0261 38.2788 87.265 38.5979C84.5734 39.7268 83.2645 42.8296 84.3997 45.5039C84.3997 45.505 84.4008 45.5061 84.4008 45.5072C80.5554 49.693 79.2234 55.9564 81.6125 61.5848C83.2238 65.3782 86.2376 68.1629 89.7827 69.6307C92.4764 75.8973 98.9549 79.4165 105.447 78.6886C111.373 86.5476 122.163 99.4744 133.464 106.208C136.589 112.883 144.498 115.953 151.379 113.067C151.656 112.95 151.928 112.823 152.194 112.691C155.987 116.863 161.922 118.668 167.532 117.108C171.584 122.658 179.081 124.918 185.711 122.138C190.888 119.967 194.218 115.275 194.871 110.107C197.152 108.802 198.15 105.984 197.101 103.513C196.85 102.922 196.504 102.402 196.088 101.961C199.581 99.3935 200.993 94.6995 199.229 90.5454C199.187 90.4471 199.141 90.3509 199.097 90.2547C200.839 88.8132 201.511 86.3574 200.584 84.1727C200.023 82.8514 198.982 81.8777 197.748 81.3662C199.071 78.9061 199.307 75.8973 198.13 73.1268C197.184 70.9006 195.489 69.2165 193.461 68.2383C193.622 66.411 193.351 64.5203 192.583 62.7137C192.409 62.3028 192.212 61.9094 191.997 61.5301C194.801 58.2875 195.696 53.6263 193.91 49.4197Z" fill="#47B475"/>
<path d="M76.2679 166.626C76.181 166.626 76.1007 166.58 76.0567 166.506L54.4521 130.315C54.3905 130.212 54.4136 130.08 54.506 130.002C54.8932 129.679 93.3244 97.5869 100.824 90.1388C108.206 82.8066 97.4447 60.2427 97.3347 60.0153C97.2819 59.9061 97.3182 59.7738 97.4194 59.7061L101.663 56.8809C101.729 56.8372 101.812 56.8274 101.887 56.8547C101.962 56.882 102.018 56.9443 102.038 57.0208C103.311 61.7618 107.233 73.9192 110.059 73.2492C110.277 73.1968 110.45 73.0514 110.585 72.8044C112.387 69.5093 106.39 52.658 106.329 52.4875C106.3 52.4066 106.316 52.317 106.371 52.2503C106.426 52.1837 106.511 52.1509 106.597 52.164L118.832 53.9629C118.898 53.9727 118.957 54.0088 118.995 54.0623C119.034 54.1159 119.049 54.1837 119.037 54.2481C119.026 54.3104 117.889 60.5924 117.775 66.5847C117.76 67.3563 117.893 67.8285 118.159 67.9498C118.89 68.2831 120.837 66.5487 122.556 65.0197C124.971 62.8722 127.469 60.6514 128.763 61.7509C128.843 61.8197 128.871 61.9312 128.831 62.0285C128.671 62.4175 127.985 63.3541 126.946 64.7705C122.883 70.3093 113.368 83.2798 118.521 87.941C119.185 88.541 119.919 88.7399 120.772 88.5487C127.476 87.0405 137.639 62.411 137.741 62.1629C137.789 62.0481 137.914 61.9858 138.035 62.0197L145.417 64.0656C145.494 64.0875 145.556 64.1443 145.583 64.2197C145.609 64.2951 145.597 64.3782 145.551 64.4438C145.42 64.6252 132.468 82.6897 133.939 89.2459C134.057 89.7683 134.31 90.0744 134.714 90.1826C138.257 91.1235 151.295 78.3017 157.694 71.3869C157.75 71.3257 157.834 71.2984 157.915 71.3115C157.996 71.3246 158.067 71.3782 158.1 71.4536C158.142 71.5465 162.261 80.8153 161.896 87.8733C161.89 87.9815 161.814 88.0722 161.709 88.0984C153.114 90.2022 139.991 96.2897 139.797 100.67C139.785 100.949 139.901 101.201 140.15 101.442C143.411 104.58 165.328 102.976 165.55 102.96C165.656 102.952 165.754 103.012 165.795 103.108L168.064 108.451C168.097 108.53 168.087 108.621 168.036 108.69C167.986 108.759 167.903 108.797 167.818 108.79C167.543 108.768 140.052 106.689 122.689 112.013C105.371 117.324 76.7695 166.012 76.4824 166.503C76.4384 166.578 76.3581 166.624 76.2712 166.624C76.269 166.626 76.269 166.626 76.2679 166.626ZM54.9812 130.244L76.2668 165.899C77.5251 163.776 84.239 152.574 92.638 140.963C105.125 123.7 115.186 113.802 122.543 111.546C138.842 106.549 163.974 108.038 167.454 108.274L165.41 103.461C163.154 103.623 143.102 104.966 139.807 101.793C139.455 101.455 139.287 101.07 139.305 100.649C139.51 96.0088 152.468 89.8962 161.413 87.6678C161.662 81.5159 158.525 73.7137 157.8 71.9968C155.522 74.435 140.125 90.7126 135.07 90.7148C134.896 90.7148 134.735 90.6962 134.588 90.6558C133.998 90.4984 133.619 90.0602 133.459 89.3531C132.026 82.9662 143.222 66.8733 144.948 64.4438L138.114 62.5509C137.057 65.0995 127.579 87.5203 120.881 89.0274C119.875 89.2536 118.97 89.0099 118.19 88.3039C112.71 83.3465 122.057 70.6055 126.547 64.4831C127.361 63.3727 128.029 62.4634 128.284 62.0208C127.229 61.5214 124.927 63.5673 122.884 65.3847C120.787 67.2492 118.976 68.8612 117.954 68.3946C117.483 68.1804 117.263 67.5847 117.282 66.5749C117.384 61.2197 118.297 55.6394 118.509 54.4088L106.928 52.7061C107.846 55.3235 112.786 69.8011 111.018 73.0372C110.814 73.4088 110.53 73.6394 110.173 73.7246C110.067 73.7498 109.961 73.7618 109.854 73.7618C106.308 73.7629 102.415 60.2547 101.652 57.4765L97.8693 59.9946C98.362 61.0492 100.752 66.2918 102.362 72.2175C104.789 81.1443 104.387 87.2897 101.172 90.4831C93.904 97.7028 57.7101 127.965 54.9812 130.244Z" fill="#47B475"/>
<path d="M130.95 53.2405C130.926 52.6263 130.793 52.0055 130.538 51.4044C129.547 49.0711 127.058 47.8208 124.651 48.293C124.598 47.0427 124.326 45.7815 123.808 44.5607C121.482 39.0864 115.131 36.5214 109.622 38.8307C105.641 40.4995 103.19 44.258 103.013 48.2799C100.158 45.9105 96.1039 45.1695 92.4412 46.705C87.6477 48.7148 85.1971 53.9203 86.5335 58.7738C85.6976 60.1607 85.5161 61.9105 86.1969 63.5148C87.3321 66.187 90.4305 67.4383 93.1198 66.3115C93.3673 66.2077 93.6016 66.0875 93.8249 65.9531C95.9389 66.5061 98.2466 66.3979 100.418 65.4875C104.098 63.9443 106.397 60.5159 106.662 56.8099C109.685 59.4591 114.08 60.3181 118.042 58.6569C119.311 58.1247 120.422 57.3782 121.357 56.4809C122.219 57.6941 123.548 58.4656 124.987 58.6536C125.011 59.2678 125.144 59.8886 125.399 60.4897C126.534 63.1618 129.633 64.4132 132.322 63.2864C135.011 62.1585 136.271 59.0799 135.137 56.4077C134.38 54.6241 132.75 53.4755 130.95 53.2405Z" fill="#47B475"/>
<path d="M169.57 95.9399C168.349 94.1574 165.995 93.4164 163.918 94.2863C161.551 95.2787 160.443 97.9891 161.441 100.341C161.65 100.832 161.934 101.268 162.275 101.642C161.099 104.158 160.955 107.141 162.127 109.898C164.329 115.084 170.346 117.515 175.565 115.327C180.785 113.139 183.231 107.161 181.029 101.974C179.101 97.435 174.25 95.0076 169.57 95.9399Z" fill="#47B475"/>
<path d="M165.806 71.5488C166.812 69.5215 166.963 67.0887 166.009 64.8428C164.488 61.2603 160.665 59.3401 156.97 60.0625C156.855 59.163 156.618 58.2647 156.246 57.3893C154.044 52.2035 148.027 49.7729 142.808 51.9609C137.589 54.1488 135.142 60.127 137.344 65.3139C139.546 70.4997 145.564 72.9303 150.783 70.7423C150.819 70.727 150.854 70.7095 150.89 70.6942C150.94 70.8341 150.994 70.974 151.054 71.1128C152.139 73.6701 154.399 75.3805 156.946 75.8865C154.994 78.6625 154.473 82.3434 155.897 85.6942C158.099 90.88 164.116 93.3106 169.336 91.1226C174.555 88.9346 177.001 82.9565 174.799 77.7696C173.208 74.0275 169.634 71.7215 165.806 71.5488Z" fill="#47B475"/>
<path d="M69.9291 169.659C63.7377 169.659 56.5101 163.451 52.5559 154.142C50.2988 148.827 49.4277 143.302 50.1042 138.584C50.7872 133.821 52.9639 130.443 56.234 129.071C59.5041 127.7 63.4583 128.507 67.3685 131.345C71.2413 134.156 74.6181 138.631 76.8751 143.945C79.1321 149.26 80.0033 154.786 79.3268 159.504C78.6438 164.267 76.467 167.645 73.197 169.016C72.1609 169.451 71.062 169.659 69.9291 169.659ZM59.5393 128.909C58.4481 128.909 57.4032 129.112 56.4254 129.522C53.3203 130.824 51.2492 134.067 50.5914 138.653C49.9282 143.284 50.7861 148.717 53.009 153.952C57.5803 164.716 66.5502 171.272 73.0056 168.566C76.1107 167.265 78.1818 164.022 78.8396 159.436C79.5028 154.804 78.6449 149.372 76.4219 144.137C74.199 138.903 70.8805 134.501 67.0781 131.741C64.4988 129.869 61.9107 128.909 59.5393 128.909Z" fill="#47B475"/>
<path d="M68.5872 166.443C66.8548 166.443 64.9432 165.717 63.0183 164.303C62.9094 164.222 62.8863 164.069 62.9666 163.961C63.048 163.853 63.202 163.83 63.3109 163.91C65.9353 165.839 68.5102 166.428 70.5594 165.569C72.7526 164.649 74.1495 162.188 74.4927 158.64C74.8414 155.036 74.0604 150.762 72.295 146.604C71.0356 143.639 69.3571 140.946 67.4411 138.818C67.3509 138.717 67.3597 138.562 67.4609 138.472C67.5621 138.383 67.7183 138.39 67.8085 138.492C69.7597 140.66 71.4679 143.4 72.7482 146.414C74.5455 150.647 75.3385 155.006 74.9832 158.688C74.6214 162.424 73.1189 165.029 70.7508 166.021C70.0754 166.303 69.3484 166.443 68.5872 166.443Z" fill="#47B475"/>
<path d="M55.562 135.831C55.5004 135.831 55.4388 135.808 55.3904 135.762C55.2925 135.668 55.2903 135.513 55.3849 135.415C55.9228 134.862 56.5398 134.438 57.2207 134.153C58.3448 133.682 59.5976 133.601 60.945 133.913C61.077 133.943 61.1595 134.074 61.1287 134.207C61.0979 134.338 60.9648 134.42 60.8328 134.389C59.5888 134.102 58.4372 134.174 57.412 134.604C56.7939 134.863 56.2307 135.251 55.7391 135.756C55.6907 135.806 55.6258 135.831 55.562 135.831Z" fill="#47B475"/>
<path d="M161.488 181.876C157.266 181.876 152.98 181.307 148.747 180.16C126.075 174.017 112.026 152.995 117.432 133.299C120.053 123.751 126.797 115.938 136.423 111.296C146.037 106.66 157.377 105.745 168.354 108.72C191.027 114.864 205.075 135.885 199.669 155.582C197.049 165.129 190.304 172.942 180.679 177.584C174.771 180.432 168.212 181.876 161.488 181.876ZM155.613 107.494C148.961 107.494 142.477 108.921 136.637 111.737C127.141 116.315 120.489 124.019 117.908 133.427C112.573 152.864 126.466 173.615 148.877 179.688C159.739 182.631 170.957 181.727 180.465 177.143C189.96 172.565 196.612 164.861 199.194 155.453C204.529 136.017 190.635 115.265 168.225 109.192C164.034 108.057 159.79 107.494 155.613 107.494Z" fill="#47B475"/>
<path d="M176.602 133.663C176.528 133.663 176.456 133.631 176.408 133.571C176.33 133.473 168.551 123.811 161.959 123.441C153.691 122.975 148.075 126.019 144.29 133.019C144.236 133.119 144.119 133.169 144.009 133.139C143.898 133.108 143.823 133.007 143.828 132.893C143.834 132.761 144.492 119.81 154.042 118.778C153.155 117.626 149.577 113.884 141.098 114.72C140.99 114.731 140.887 114.669 140.847 114.569C140.806 114.469 140.836 114.354 140.92 114.286C141.004 114.22 149.094 107.894 155.747 113.603C155.149 111.61 153.114 106.4 147.699 104.059C147.588 104.011 147.529 103.89 147.559 103.773C147.59 103.656 147.701 103.578 147.822 103.591C148.232 103.633 157.374 104.618 160.27 110.585C160.261 108.848 160.085 105.56 159.017 102.87C158.421 101.367 159.117 99.6394 160.602 98.9378L161.001 98.7487C161.945 98.3028 163.045 98.3509 163.945 98.8766C164.846 99.4034 165.423 100.338 165.489 101.376C165.747 105.434 165.796 110.967 164.664 114.959C166.738 113.433 173.741 109.197 183.978 112.456C184.08 112.489 184.149 112.584 184.148 112.691C184.147 112.798 184.077 112.892 183.973 112.922C183.857 112.957 172.522 116.392 168.504 120.114C170.278 120.939 178.323 125.176 176.844 133.461C176.827 133.556 176.756 133.632 176.662 133.656C176.642 133.661 176.623 133.663 176.602 133.663ZM160.419 122.907C160.932 122.907 161.455 122.922 161.989 122.952C168.065 123.294 174.823 130.907 176.443 132.838C177.542 124.353 168.079 120.457 167.982 120.418C167.906 120.387 167.85 120.32 167.833 120.241C167.817 120.161 167.841 120.078 167.898 120.019C171.231 116.643 180.345 113.56 183.069 112.692C171.544 109.389 164.432 115.759 164.361 115.825C164.278 115.902 164.154 115.912 164.059 115.85C163.965 115.789 163.924 115.672 163.96 115.566C165.31 111.619 165.269 105.686 164.999 101.406C164.942 100.517 164.467 99.7487 163.696 99.2973C162.926 98.8471 162.022 98.8077 161.215 99.1891L160.816 99.3782C159.563 99.9706 158.975 101.425 159.477 102.69C161.038 106.623 160.752 111.612 160.74 111.822C160.732 111.94 160.642 112.036 160.524 112.05C160.408 112.065 160.295 111.994 160.259 111.881C158.653 106.787 152.303 104.931 149.327 104.331C155.092 107.686 156.427 114.234 156.44 114.305C156.461 114.411 156.409 114.517 156.314 114.567C156.218 114.618 156.101 114.6 156.024 114.525C150.693 109.247 144.117 112.751 141.955 114.157C151.523 113.537 154.572 118.637 154.702 118.861C154.744 118.934 154.745 119.024 154.706 119.098C154.666 119.173 154.59 119.221 154.505 119.227C146.665 119.766 144.836 128.601 144.431 131.783C148.014 125.823 153.265 122.907 160.419 122.907Z" fill="#47B475"/>
<path d="M162.15 103.442C161.741 103.442 161.254 103.371 160.677 103.192C160.547 103.151 160.475 103.015 160.515 102.886C160.556 102.757 160.693 102.685 160.823 102.725C163.117 103.434 163.662 102.252 163.684 102.2C163.738 102.078 163.881 102.019 164.006 102.071C164.131 102.124 164.19 102.265 164.139 102.388C164.117 102.442 163.683 103.442 162.15 103.442Z" fill="#47B475"/>
<path d="M190.576 156.086C190.193 156.086 189.815 155.952 189.449 155.686C186.369 153.44 184.683 141.428 185.914 138.348C186.699 136.382 187.77 135.988 188.523 136.01C190.41 136.056 192.642 138.747 193.948 142.554C195.423 146.849 195.66 152.521 191.899 155.557C191.463 155.908 191.017 156.086 190.576 156.086ZM188.471 136.499C187.616 136.499 186.91 137.182 186.371 138.529C185.21 141.435 186.866 153.195 189.74 155.292C190.343 155.733 190.948 155.695 191.588 155.177C195.153 152.299 194.904 146.852 193.482 142.713C192.259 139.153 190.168 136.54 188.509 136.5C188.497 136.499 188.484 136.499 188.471 136.499ZM191.744 155.366H191.746H191.744Z" fill="#47B475"/>
<path d="M101.013 200C99.0825 200 97.2841 199.135 95.6364 197.409C94.8621 197.662 91.4259 198.675 88.8862 197.744C77.4745 193.557 76.4582 186.406 76.5517 183.526C76.5748 182.808 76.0721 182.18 75.3572 182.032C72.7097 181.485 70.4637 178.738 69.4957 174.866C68.3859 170.426 68.9238 163.731 74.0912 159.476C81.652 153.249 83.765 147.087 83.7848 147.026C90.0455 130.654 94.1273 126.809 104.022 122.869C108.14 121.229 112.607 122.166 116.939 125.578C119.856 127.875 121.815 130.598 122.198 131.151C123.472 131.259 134.126 132.447 138.188 142.335C139.147 142.643 145.565 144.969 146.182 152.168C146.865 160.137 131.33 186.86 104.284 199.228C103.158 199.742 102.065 200 101.013 200ZM95.7079 196.883C95.775 196.883 95.841 196.91 95.8883 196.961C98.3323 199.59 101.013 200.184 104.078 198.782C115.863 193.393 126.965 184.464 135.344 173.641C142.546 164.335 146.002 155.815 145.693 152.208C145.058 144.801 138.011 142.789 137.939 142.77C137.866 142.75 137.805 142.696 137.777 142.626C133.628 132.338 122.167 131.638 122.051 131.631C121.973 131.627 121.901 131.586 121.857 131.522C121.777 131.402 113.763 119.518 104.206 123.324C94.4639 127.204 90.4404 131.002 84.249 147.19C84.2314 147.242 82.0744 153.537 74.4058 159.853C69.4143 163.963 68.8985 170.447 69.9742 174.749C70.8959 178.438 72.9979 181.045 75.4584 181.554C76.4087 181.75 77.0753 182.586 77.0445 183.543C76.9334 186.989 78.3457 193.355 89.0578 197.286C91.7086 198.259 95.5869 196.912 95.6254 196.898C95.6518 196.887 95.6804 196.883 95.7079 196.883Z" fill="#47B475"/>
<path d="M95.7079 197.372C95.6034 197.372 95.5066 197.306 95.4736 197.203C95.4318 197.074 95.5033 196.936 95.632 196.894C102.796 194.6 112.626 186.598 121.287 176.009C129.841 165.551 135.164 155.262 135.182 149.157C135.19 146.252 133.999 144.389 131.644 143.621C128.227 142.506 124.824 142.056 121.531 142.281C121.398 142.29 121.278 142.189 121.268 142.054C121.259 141.919 121.361 141.803 121.497 141.793C124.854 141.562 128.319 142.022 131.797 143.156C134.378 143.997 135.682 146.017 135.673 149.158C135.656 155.37 130.29 165.776 121.668 176.317C112.818 187.137 103.141 195.003 95.7827 197.359C95.7574 197.368 95.7321 197.372 95.7079 197.372Z" fill="#47B475"/>
<path d="M114.327 143.526C114.143 143.526 113.941 143.512 113.725 143.484C111.1 143.139 106.974 140.864 106.054 137.49C104.799 132.896 107.795 131.607 107.825 131.595C107.833 131.592 107.843 131.589 107.852 131.585C108.655 131.363 109.354 131.442 109.928 131.821C111.339 132.752 111.664 135.285 111.879 136.96C111.901 137.134 111.923 137.299 111.944 137.452C112.071 138.374 113.113 139.303 114.032 140.124C115.147 141.119 116.199 142.058 115.655 142.986C115.447 143.344 114.993 143.526 114.327 143.526ZM108.002 132.052C107.782 132.149 105.421 133.304 106.529 137.362C107.384 140.49 111.364 142.68 113.79 142.998C114.54 143.097 115.079 143.001 115.23 142.74C115.574 142.157 114.665 141.346 113.704 140.488C112.722 139.611 111.608 138.619 111.457 137.519C111.436 137.364 111.414 137.197 111.392 137.022C111.188 135.436 110.88 133.038 109.656 132.23C109.204 131.931 108.662 131.873 108.002 132.052Z" fill="#47B475"/>
<path d="M115.53 131.878C115.53 131.878 121.493 133.054 125.544 130.514C129.595 127.974 133.39 116.326 135.13 115.89C136.87 115.454 140.409 119.346 140.409 119.346C140.409 119.346 128.038 135.541 129.88 139.465C131.722 143.388 131.722 143.388 131.722 143.388L124.909 143.53C121.424 143.604 118.323 141.346 117.343 138.023L115.53 131.878Z" fill="#47B475"/>
<path d="M60.0492 62.2336C60.3461 67.2022 57.5046 74.5355 48.6547 75.0619C40.214 75.5635 36.5226 68.6194 36.2257 63.6509C35.936 58.7925 38.6073 53.9381 45.7369 53.6055C45.8811 53.5991 47.4561 53.9565 47.6016 53.9472C47.7168 53.9398 49.6157 53.3752 49.7295 53.3679C56.8993 52.9407 59.758 57.3524 60.0492 62.2336Z" fill="#47B475"/>
<path d="M47.0914 55.2512C47.0093 55.2564 46.928 55.23 46.8624 55.1767C46.7798 55.1073 46.7369 55.0022 46.7488 54.8951C47.4539 48.6877 51.9508 46.8496 56.2587 45.8702C56.4226 45.8324 56.5908 45.9294 56.6403 46.0916C57.1459 47.7653 57.0764 49.1554 56.4297 50.3426C55.1194 52.7466 51.6118 53.9348 47.1615 55.2395C47.1387 55.2453 47.1158 55.2496 47.0914 55.2512ZM56.1039 46.5658C52.0464 47.5248 48.2611 49.2065 47.4569 54.4817C51.5331 53.2743 54.7159 52.1415 55.8618 50.0369C56.387 49.0746 56.4656 47.9369 56.1039 46.5658Z" fill="#47B475"/>
<path d="M47.3693 55.0008L46.2813 50.8162C46.1947 50.4826 46.4057 50.1442 46.7452 50.0706C47.2645 49.9597 47.7556 49.9267 48.2007 50.0117C48.5801 50.0851 48.8186 50.465 48.7415 50.8408L47.875 55.0603C47.7041 55.1905 47.5361 55.1194 47.3693 55.0008Z" fill="#47B475"/>
<path d="M49.2977 53.6923C49.1796 53.6999 49.0617 53.6428 48.9982 53.5333C48.9087 53.3795 48.9598 53.1836 49.1146 53.0946C51.68 51.6047 52.6748 50.8121 54.1831 49.0565C54.2988 48.9211 54.5032 48.9052 54.6393 49.02C54.7754 49.1349 54.7914 49.338 54.6757 49.4733C53.1283 51.2745 52.0525 52.1327 49.4411 53.6501C49.3949 53.6746 49.3453 53.6893 49.2977 53.6923Z" fill="#47B475"/>
<path d="M20.142 133.973C26.0302 138.372 37.3844 140.823 45.2218 130.345C52.6962 120.351 47.1282 110.165 41.2401 105.766C35.4821 101.465 27.324 100.816 21.1229 109.332C20.9979 109.505 20.1596 111.736 20.0299 111.907C19.9272 112.043 17.6884 113.925 17.5869 114.059C11.2365 122.548 14.357 129.652 20.142 133.973Z" fill="#47B475"/>
<path d="M22.0525 112.333C22.1257 112.236 22.1591 112.115 22.1467 111.991C22.1281 111.833 22.0334 111.694 21.8915 111.622C13.6614 107.453 7.7413 111.502 3.03414 116.016C2.85435 116.187 2.83737 116.473 2.99716 116.666C4.65122 118.647 6.42254 119.69 8.41223 119.857C12.4421 120.193 16.7569 116.835 21.9811 112.41C22.0067 112.387 22.0307 112.362 22.0525 112.333ZM4.01793 116.39C8.49659 112.168 13.6458 108.869 20.8064 112.159C16.006 116.202 12.0234 119.205 8.49642 118.909C6.88276 118.775 5.41547 117.948 4.01793 116.39Z" fill="#47B475"/>
<path d="M21.517 112.474L17.2384 107.736C16.8971 107.358 16.3082 107.344 15.9417 107.703C15.383 108.252 14.9435 108.831 14.6867 109.449C14.4691 109.976 14.7441 110.578 15.2703 110.788L21.1797 113.146C21.4793 113.041 21.528 112.776 21.517 112.474Z" fill="#47B475"/>
<path d="M18.3374 113.787C18.4427 113.648 18.4681 113.456 18.3845 113.289C18.2675 113.054 17.9844 112.958 17.7489 113.076C13.8272 115.028 12.0416 115.611 8.65088 116.044C8.38996 116.077 8.20425 116.316 8.23539 116.577C8.26654 116.838 8.50408 117.022 8.765 116.99C12.2437 116.545 14.1761 115.916 18.1688 113.929C18.2366 113.893 18.2951 113.843 18.3374 113.787Z" fill="#47B475"/>
<path d="M90.8305 180.299C90.5014 188.395 84.7034 199.811 70.2827 199.226C56.5288 198.667 51.6815 186.82 52.0106 178.724C52.3333 170.808 57.4516 163.379 69.0542 163.999C69.2889 164.012 71.7818 164.847 72.0189 164.855C72.2068 164.862 75.3747 164.256 75.5602 164.263C87.2433 164.736 91.1546 172.346 90.8305 180.299Z" fill="#47B475"/>
<path d="M70.9768 166.885C70.8429 166.88 70.7156 166.824 70.618 166.727C70.4956 166.601 70.4432 166.424 70.4799 166.253C72.6344 156.313 80.2183 154.066 87.3559 153.18C87.6275 153.145 87.8842 153.33 87.9379 153.6C88.4839 156.393 88.1445 158.634 86.9034 160.451C84.3889 164.132 78.5136 165.487 71.0922 166.877C71.0544 166.883 71.0167 166.886 70.9768 166.885ZM86.9917 154.281C80.263 155.176 73.8574 157.285 71.6943 165.698C78.4938 164.404 83.8341 163.087 86.0334 159.864C87.0411 158.391 87.354 156.561 86.9917 154.281Z" fill="#47B475"/>
<path d="M71.469 166.523L70.3887 159.568C70.3028 159.014 70.6999 158.5 71.2618 158.436C72.1211 158.341 72.9219 158.367 73.6291 158.577C74.2315 158.758 74.556 159.412 74.3699 160.008L72.2785 166.702C71.9803 166.885 71.7197 166.742 71.469 166.523Z" fill="#47B475"/>
<path d="M74.805 164.718C74.6124 164.711 74.4307 164.599 74.3457 164.411C74.2259 164.148 74.3405 163.839 74.6058 163.72C79.0041 161.723 80.7446 160.601 83.474 158.003C83.6834 157.802 84.017 157.81 84.2188 158.018C84.4206 158.226 84.4133 158.558 84.2039 158.758C81.4039 161.424 79.5214 162.639 75.0441 164.673C74.9653 164.705 74.8825 164.72 74.805 164.718Z" fill="#47B475"/>
</svg>
