<svg width="281" height="47" viewBox="0 0 281 47" fill="none" xmlns="http://www.w3.org/2000/svg">
<path d="M81.9741 26.4926C82.2154 25.7747 82.4317 25.0487 82.7021 24.3428C83.4905 22.2873 84.2061 20.1937 85.8121 18.5453C86.6795 17.6549 87.7134 17.1315 89.0177 17.1455C90.9627 17.1676 91.308 17.9437 91.4744 19.3675C91.7282 21.5333 91.4183 23.6931 91.0251 25.8348C91.0189 25.8669 91.0105 25.901 91.0064 25.9331C90.7318 28.133 90.4364 30.3309 90.1951 32.5348C90.1098 33.3109 90.1514 34.103 90.1597 34.8871C90.1639 35.218 90.1681 35.5749 90.2887 35.8737C90.4052 36.1605 90.6278 36.5114 90.8899 36.6017C91.0688 36.6639 91.5015 36.3831 91.6388 36.1545C92.319 35.0174 92.9951 33.8724 93.563 32.6812C94.1517 31.4439 94.6405 30.1604 95.1294 28.883C95.6723 27.4652 96.1695 26.0313 96.6875 24.6055C97.3656 22.7405 97.9835 20.8515 98.7469 19.0206C99.1297 18.1041 99.7724 17.308 100.623 16.6703C101.661 15.8902 103.87 15.7458 104.988 16.6983C105.156 16.8427 105.329 16.9851 105.516 17.1014C105.799 17.2759 106.084 17.2739 106.152 16.9029C106.413 15.5031 108.516 15.4329 109.366 16.0827C109.599 16.2591 109.787 16.6622 109.766 16.947C109.662 18.3909 109.477 19.8287 109.331 21.2706C109.271 21.8682 109.225 22.4678 109.188 23.0654C109.023 25.6804 108.826 28.2934 108.724 30.9104C108.684 31.9031 108.853 32.9058 108.961 33.9004C108.982 34.0869 109.127 34.3577 109.277 34.4038C109.414 34.4479 109.676 34.2795 109.816 34.1411C110.779 33.1825 111.426 32.0314 111.983 30.8222C112.572 29.5468 113.209 28.2914 113.783 27.01C114.534 25.3295 115.289 23.649 115.95 21.9344C116.217 21.2425 116.264 20.4664 116.36 19.7224C116.425 19.2251 116.674 18.8581 117.103 18.6455C117.968 18.2184 118.981 18.054 119.736 18.822C119.98 19.0687 120.138 19.4898 120.144 19.8347C120.169 21.1523 120.111 22.4718 120.096 23.7893C120.092 24.0821 120.14 24.3749 120.288 24.6857C120.448 24.2827 120.633 23.8876 120.762 23.4745C121.132 22.2973 121.417 21.0921 121.852 19.939C122.574 18.0199 123.323 16.0947 124.571 14.4222C125.324 13.4155 126.202 12.4991 127.701 12.6094C128.764 12.6876 129.761 13.5439 129.979 14.5566C130.443 16.7104 130.333 18.8722 130.146 21.038C130.071 21.9023 130.031 22.7706 129.952 23.6349C129.773 25.5781 129.528 27.5153 129.411 29.4605C129.318 31.0247 129.353 32.597 129.368 34.1652C129.372 34.7046 129.478 35.2982 130.108 35.4747C130.728 35.6471 131.076 35.1297 131.317 34.7186C131.914 33.7119 132.503 32.6872 132.952 31.6143C133.665 29.9057 134.281 28.1591 134.899 26.4144C135.457 24.8422 135.91 23.2379 136.509 21.6817C136.755 21.042 136.765 20.4223 136.794 19.7766C136.915 17.2598 136.938 14.7331 137.216 12.2324C137.435 10.2731 137.901 8.32789 138.4 6.41275C138.718 5.1975 139.199 3.99828 139.786 2.87928C141.013 0.539007 142.606 -0.221031 145.336 0.0416737C146.815 0.184055 148.017 1.18674 148.269 2.59853C148.606 4.4896 148.443 6.35259 147.732 8.15743C147.378 9.05785 147.089 9.98834 146.648 10.8486C145.242 13.596 143.601 16.189 141.032 18.1041C140.707 18.3467 140.53 18.6195 140.534 19.0326C140.557 21.1703 140.559 23.306 140.574 25.4438C140.576 25.6182 140.607 25.7927 140.626 25.9672C140.684 25.9892 140.742 26.0113 140.801 26.0334C140.919 25.8509 141.081 25.6804 141.152 25.4819C141.82 23.6309 142.452 21.7699 143.133 19.925C143.748 18.2565 144.58 16.6843 145.589 15.2083C146.355 14.0873 147.247 13.0185 148.502 12.4108C150.515 11.4342 153.074 11.8373 153.434 14.7531C153.779 17.5566 152.722 19.8748 150.584 21.7719C149.908 22.3715 149.144 22.7967 148.267 23.0433C148.183 23.0674 148.1 23.0915 148.023 23.1276C147.37 23.4344 147.32 23.5186 147.64 24.1443C148.487 25.8027 148.741 27.5996 148.999 29.3984C149.238 31.0648 149.463 32.7353 149.752 34.3938C149.848 34.9432 150.089 35.4767 150.309 35.9981C150.574 36.6237 151.108 36.7822 151.626 36.327C152.157 35.8597 152.658 35.3303 153.045 34.7507C154.349 32.7955 155.3 30.6698 156.13 28.494C156.839 26.639 157.532 24.778 158.235 22.919C158.431 22.4056 158.649 21.8983 158.834 21.3809C158.959 21.0319 159.2 20.9638 159.525 21.052C159.903 21.1563 159.86 21.421 159.764 21.6957C159.34 22.907 158.936 24.1242 158.483 25.3235C157.91 26.8355 157.34 28.3516 156.685 29.8335C155.988 31.4078 155.248 32.97 154.422 34.484C153.81 35.605 152.995 36.6237 151.851 37.3076C151.472 37.5342 150.981 37.6706 150.532 37.6906C149.09 37.7548 147.884 37.2875 147.104 36.0422C147.016 35.9018 146.977 35.7354 146.912 35.581C146.438 34.4519 146.13 33.2848 145.908 32.0816C145.521 29.986 145.082 27.8964 144.547 25.8328C144.35 25.0668 143.865 24.3549 143.428 23.669C143.143 23.2198 142.798 23.296 142.648 23.8094C142.353 24.8181 142.088 25.8348 141.83 26.8536C141.518 28.0788 141.256 29.3182 140.896 30.5294C140.805 30.8362 140.478 31.1451 140.174 31.3155C139.525 31.6785 138.787 31.6384 138.123 31.3737C137.84 31.2614 137.58 30.9004 137.476 30.5996C136.906 28.9672 137.006 27.2406 136.784 25.5581C136.757 25.3515 136.725 25.143 136.676 24.792C136.534 25.0006 136.457 25.0788 136.424 25.171C135.843 26.7914 135.319 28.4298 134.681 30.0281C134.067 31.5602 133.374 33.0662 132.642 34.5502C132.374 35.0956 131.939 35.583 131.498 36.0201C131.269 36.2487 130.87 36.3951 130.531 36.4292C129.861 36.4954 129.181 36.4713 128.507 36.4573C127.144 36.4252 126.759 35.9479 126.27 34.6926C125.879 33.6859 125.838 32.633 125.844 31.5862C125.858 29.3162 125.831 27.0401 125.998 24.78C126.168 22.4558 126.553 20.1456 126.832 17.8294C126.967 16.7043 127.084 15.5753 127.192 14.4463C127.215 14.2077 127.165 13.963 127.146 13.6802C126.164 13.8748 125.671 14.5365 125.224 15.1983C124.134 16.8126 123.368 18.5774 122.803 20.4203C122.335 21.9484 121.837 23.4685 121.43 25.0126C120.935 26.8796 120.535 28.7687 120.065 30.6417C119.888 31.3496 119.693 32.0695 119.374 32.7233C119.235 33.0101 118.796 33.2467 118.445 33.3389C117.51 33.5876 116.425 32.9038 116.352 31.9753C116.196 29.9639 116.125 27.9465 116.019 25.9311C116.006 25.7045 115.979 25.4799 115.844 25.2232C115.697 25.4498 115.524 25.6664 115.407 25.907C114.363 28.0628 113.371 30.2426 112.275 32.3723C111.7 33.4853 111.014 34.5522 109.938 35.3283C108.917 36.0642 107.205 35.8557 106.446 34.853C105.847 34.0609 105.622 33.1544 105.495 32.1919C105.21 30.0321 105.175 27.8683 105.187 25.6965C105.189 25.4217 105.133 25.145 105.104 24.8702C105.06 24.8642 105.015 24.8562 104.971 24.8502C104.815 25.2352 104.667 25.6243 104.503 26.0073C104.035 27.0962 103.631 28.2192 103.063 29.26C102.706 29.9158 102.177 30.5394 101.58 31.0047C100.823 31.5923 99.3855 31.3215 98.7282 30.6197C97.919 29.7533 97.4717 28.7286 97.299 27.5815C97.2824 27.4652 97.2658 27.3509 97.2387 27.2366C97.2283 27.1905 97.195 27.1483 97.1098 26.9839C96.9267 27.2426 96.7312 27.4251 96.6521 27.6457C95.6286 30.5294 94.4367 33.343 92.8619 35.9941C92.6414 36.3671 92.3398 36.7 92.0507 37.0308C91.6741 37.46 91.1915 37.7367 90.5924 37.6525C89.7291 37.5302 88.8513 37.4259 88.0233 37.1832C87.004 36.8844 86.6982 35.984 86.4881 35.0896C86.0679 33.2928 86.1116 31.488 86.3758 29.6691C86.5797 28.2653 86.6566 26.8455 86.8314 25.4398C86.952 24.4652 87.1663 23.5026 87.3015 22.528C87.4554 21.4049 87.5803 20.2759 87.6863 19.1469C87.7009 19.0025 87.5678 18.7859 87.4367 18.7097C87.3452 18.6556 87.0768 18.7398 86.9936 18.8421C86.382 19.6001 85.6893 20.322 85.2338 21.1603C84.6222 22.2873 84.125 23.4865 83.7152 24.6998C83.1868 26.26 82.854 27.8803 82.3256 29.4405C81.9741 30.4753 81.818 30.8683 80.5616 30.9666C80.183 30.9967 79.7981 31.0247 79.4216 30.9886C78.6977 30.9225 78.421 30.6517 78.3129 29.9619C78.0882 28.5301 77.8719 27.0982 77.6472 25.6664C77.6285 25.5481 77.5682 25.4358 77.5286 25.3214C77.4829 25.3154 77.435 25.3074 77.3892 25.3014C77.2416 25.6263 77.0772 25.9431 76.9503 26.274C76.526 27.381 76.1245 28.498 75.698 29.6029C75.3319 30.5535 74.9783 31.512 74.5518 32.4385C73.8737 33.9105 73.1934 35.3884 71.9973 36.5716C70.9655 37.5923 69.3388 37.843 68.099 37.4139C67.1067 37.0709 66.4556 36.2888 66.1186 35.3503C65.6901 34.1591 65.3177 32.9439 65.0265 31.7166C64.2027 28.2453 64.3109 24.6898 64.0696 21.1663C64.0363 20.681 63.924 20.6088 63.4538 20.8434C62.0518 21.5473 60.5603 22.0005 59.0479 22.4277C56.639 23.1095 54.1698 23.2459 51.7006 23.2419C49.1045 23.2379 46.5021 23.1256 43.9143 22.935C42.1607 22.8067 40.4216 22.4738 38.6784 22.2151C36.8332 21.9404 34.9902 21.6516 33.1492 21.3588C32.6041 21.2726 32.0674 21.1402 31.5245 21.042C30.0122 20.7672 28.5019 20.4905 26.9875 20.2278C26.0182 20.0593 25.0446 19.9029 24.0711 19.7666C22.0512 19.4858 20.0354 19.1108 18.0051 18.9845C15.5754 18.83 13.1145 18.7238 10.6932 18.9103C7.65396 19.1449 4.94967 20.31 2.81745 22.5199C2.58446 22.7606 2.28075 22.9371 2.00824 23.1416C1.61508 23.4384 1.23232 23.4685 0.843316 23.1215C0.448073 22.7686 0.398148 22.4638 0.666497 21.9644C1.26352 20.8575 2.28283 20.1456 3.37495 19.6382C4.673 19.0346 6.05635 18.5353 7.45842 18.2324C8.85009 17.9316 10.3083 17.8915 11.7395 17.8033C14.5873 17.6288 17.4227 17.9076 20.2414 18.2244C22.644 18.4951 25.0197 18.9744 27.4078 19.3575C28.2939 19.4998 29.1884 19.6101 30.0725 19.7645C31.7201 20.0533 33.3634 20.3742 35.013 20.665C35.7952 20.8033 36.5857 20.8976 37.372 21.0139C38.7741 21.2225 40.1741 21.441 41.5761 21.6436C44.9919 22.1369 48.4284 22.3555 51.8795 22.2813C53.2462 22.2512 54.6275 22.2251 55.9734 22.0226C58.141 21.6957 60.2794 21.2044 62.2598 20.2298C62.7362 19.9952 63.225 19.7826 63.6764 19.5099C63.8449 19.4076 64.0134 19.169 64.028 18.9825C64.1736 17.0372 64.2818 15.088 64.4149 13.1408C64.4898 12.0418 64.5792 10.9449 64.6895 9.84796C64.7311 9.43285 64.6292 9.23833 64.157 9.20624C62.1183 9.06988 60.0797 8.76907 58.0453 8.78712C56.0483 8.80517 54.0492 9.09595 52.0605 9.34862C51.4073 9.43084 50.7832 9.7497 50.155 9.98232C49.6536 10.1688 49.7389 10.624 49.6994 11.0111C49.6224 11.8032 48.7987 12.3306 48.0103 12.086C47.2239 11.8413 46.9577 10.9228 47.6254 10.3212C48.2287 9.77978 48.9713 9.31854 49.7369 9.01974C51.4114 8.36599 53.1713 7.96893 54.9936 7.99299C58.0577 8.0351 61.1219 8.11131 64.184 8.1835C64.65 8.19353 64.9079 8.01906 64.9703 7.52574C65.0202 7.12867 65.0078 6.72359 65.0639 6.32853C65.3032 4.64602 65.5424 2.9615 65.8128 1.283C65.9189 0.619222 66.4639 0.153975 67.167 0.107851C67.7495 0.0717543 68.3424 0.0737597 68.9227 0.135926C69.6446 0.212131 70.0003 0.593152 69.9462 1.27899C69.8568 2.40601 69.6945 3.52902 69.5572 4.65203C69.4178 5.7951 69.2639 6.93616 69.1266 8.07922C69.0892 8.39005 69.162 8.63471 69.5718 8.6688C72.2615 8.8934 74.9491 9.14408 77.641 9.34862C78.4918 9.4128 78.4751 9.35665 78.7039 8.58057C79.2074 6.86396 79.7503 5.15538 80.6926 3.60723C81.4623 2.34184 82.4442 1.23487 83.8879 0.645292C85.0985 0.149964 86.3841 -0.0545844 87.6947 0.10384C88.4165 0.192077 88.8679 0.723502 89.1654 1.3191C89.3547 1.70012 89.4899 2.13529 89.519 2.55441C89.6293 4.09053 89.571 5.62063 89.1758 7.12667C89.1342 7.28108 89.2112 7.46357 89.2319 7.63403C89.4212 7.5879 89.6251 7.56986 89.7957 7.48563C90.0557 7.35929 90.2929 7.18482 90.5404 7.03442C91.0584 6.72359 91.3288 6.32251 91.1853 5.69884C91.0584 5.14335 91.3704 4.77637 91.8697 4.53773C92.2649 4.34722 92.6352 4.38532 92.9847 4.64802C93.3237 4.90471 93.434 5.51836 93.1095 5.96355C92.7559 6.44885 92.371 6.95421 91.8842 7.29712C91.0105 7.91077 90.0204 8.37401 89.1363 8.97562C88.7493 9.23833 88.3832 9.64141 88.2064 10.0585C87.3743 12.0418 86.4486 13.975 85.136 15.7057C84.2977 16.8106 83.3907 17.9076 82.1114 18.5413C81.3812 18.9042 81.2793 19.3635 81.3209 20.0112C81.4498 22.0407 81.5684 24.0721 81.6974 26.1015C81.7057 26.2259 81.7723 26.3462 81.8118 26.4665C81.868 26.4745 81.92 26.4826 81.9741 26.4926ZM68.2113 21.5433C68.5067 25.901 68.1718 29.9298 69.1141 33.8724C69.2743 34.5442 69.4906 35.218 69.7985 35.8376C70.1438 36.5275 70.6722 36.5696 71.1777 35.972C71.6874 35.3704 72.2033 34.7487 72.5673 34.0629C73.208 32.8516 73.7717 31.5983 74.3022 30.3389C74.8867 28.9552 75.411 27.5454 75.9352 26.1396C76.4365 24.794 76.9129 23.4384 77.383 22.0808C77.4849 21.786 77.5557 21.4691 77.564 21.1603C77.6097 19.3073 77.5869 17.4523 77.6805 15.6034C77.747 14.2738 77.876 12.9362 78.1256 11.6287C78.3586 10.4115 78.3649 10.3533 77.1188 10.2671C74.633 10.0926 72.1513 9.88607 69.6695 9.6755C69.2119 9.6374 68.9872 9.84596 68.8707 10.2149C68.8146 10.3874 68.8063 10.5779 68.7979 10.7604C68.5941 14.4724 68.3923 18.1883 68.2113 21.5433ZM147.545 4.76634C147.514 4.75631 147.482 4.74428 147.451 4.73425C147.451 4.36727 147.48 3.99828 147.445 3.63531C147.349 2.59652 147.002 1.6941 145.945 1.19476C145.173 0.829787 144.385 0.994228 143.865 1.62392C143.024 2.63663 142.608 3.84587 142.267 5.05912C141.866 6.48695 141.522 7.93884 141.314 9.40277C140.994 11.6468 140.805 13.9089 140.578 16.1669C140.555 16.3935 140.668 16.6322 140.715 16.8648C140.957 16.7605 141.204 16.6642 141.439 16.5479C141.512 16.5138 141.562 16.4316 141.614 16.3654C142.446 15.3026 143.378 14.2999 144.079 13.1628C145.019 11.6428 145.885 10.0625 146.582 8.42816C147.077 7.27306 147.237 5.98962 147.545 4.76634ZM88.6973 3.91205C88.6703 3.90403 88.6432 3.89601 88.6141 3.88598C88.5808 3.40469 88.6308 2.90134 88.4976 2.44612C88.2106 1.44945 87.8736 1.06442 87.0124 1.09049C85.9369 1.12057 85.3003 1.74825 84.7574 2.49224C83.4573 4.26901 82.9185 6.33454 82.4608 8.41813C82.2903 9.19822 82.4588 9.3406 83.2825 9.3005C83.3865 9.29448 83.4905 9.29247 83.5925 9.27242C84.7948 9.04581 86.0014 8.83926 87.1933 8.57254C87.4326 8.5184 87.755 8.26773 87.807 8.05516C88.1398 6.68147 88.4082 5.29375 88.6973 3.91205ZM100.613 28.2553C100.642 28.2613 100.671 28.2673 100.7 28.2734C100.7 28.6905 100.673 29.1096 100.711 29.5227C100.731 29.7533 100.856 29.9739 100.935 30.1985C101.162 30.0762 101.399 29.9679 101.616 29.8275C101.709 29.7674 101.778 29.6531 101.83 29.5488C102.213 28.7867 102.624 28.0367 102.953 27.2526C103.38 26.2359 103.775 25.2051 104.12 24.1603C104.532 22.911 104.782 21.6035 105.277 20.3862C105.878 18.9143 105.191 18.0881 104.051 17.328C103.621 17.0412 103.292 17.1134 103.086 17.5907C102.714 18.4631 102.352 19.3514 102.117 20.2659C101.78 21.5874 101.545 22.935 101.295 24.2766C101.052 25.6002 100.84 26.9298 100.613 28.2553ZM150.434 14.1655C150.39 14.1555 150.349 14.1455 150.305 14.1355C150.305 13.9349 150.338 13.7284 150.297 13.5379C150.224 13.201 149.977 12.9824 149.623 13.0887C149.201 13.213 148.743 13.3554 148.41 13.6181C147.21 14.5686 146.363 15.8099 145.602 17.0954C145.115 17.9136 144.693 18.7679 144.285 19.6262C143.977 20.2739 143.734 20.9497 143.474 21.6175C143.368 21.8902 143.465 22.1169 143.78 22.1088C144.223 22.0968 144.703 22.1028 145.1 21.9444C146.752 21.2947 147.934 20.1175 148.762 18.6275C149.182 17.8735 149.506 17.0633 149.81 16.2571C150.068 15.5753 150.23 14.8634 150.434 14.1655ZM81.3604 17.683C81.4498 17.711 81.5372 17.7391 81.6267 17.7672C82.0885 17.3741 82.5794 17.0112 83.0058 16.584C84.0168 15.5733 84.8988 14.4744 85.5146 13.1829C85.9972 12.1742 86.5547 11.1996 87.0602 10.2029C87.1288 10.0686 87.0935 9.88807 87.108 9.72764C86.9479 9.72162 86.7835 9.68753 86.6296 9.7136C86.3072 9.76975 85.9951 9.88607 85.6727 9.92617C84.6617 10.0565 83.6486 10.1768 82.6335 10.2751C82.2382 10.3132 82.0448 10.4837 82.0053 10.8607C81.9553 11.342 81.8742 11.8192 81.8222 12.3005C81.6932 13.4596 81.5622 14.6167 81.4561 15.7779C81.3958 16.4136 81.3895 17.0493 81.3604 17.683Z" fill="#47B475"/>
<path d="M173.597 20.9015C173.514 21.1823 173.441 21.467 173.346 21.7438C172.578 23.9557 171.661 26.1095 170.406 28.1068C169.951 28.8308 169.483 29.5928 168.617 30.0019C167.269 30.6396 165.536 30.0099 165.004 28.6403C164.43 27.1583 164.303 25.6222 164.48 24.06C164.627 22.7525 164.781 21.443 164.964 20.1395C165.071 19.3815 165.218 18.6274 165.395 17.8814C165.555 17.2036 165.992 16.8647 166.712 16.8005C167.107 16.7644 167.509 16.7544 167.904 16.7705C169.254 16.8286 169.897 17.7431 169.526 18.9944C169.362 19.5519 169.266 20.1335 169.185 20.711C168.865 22.9871 168.549 25.2652 168.264 27.5453C168.212 27.9665 168.312 28.4056 168.347 28.9511C169.158 28.544 169.441 27.9183 169.714 27.3628C170.517 25.7265 171.311 24.076 171.956 22.3775C172.576 20.7451 172.998 19.0425 173.527 17.3761C173.662 16.9489 173.855 16.5398 174.043 16.1287C174.461 15.2083 176.331 14.9195 177.152 15.6454C177.552 15.9984 177.808 16.6582 177.851 17.1976C178.055 19.7244 178.157 22.2572 178.311 24.7879C178.328 25.0687 178.448 25.3434 178.521 25.6202C178.808 25.4999 179.141 25.4357 179.372 25.2492C180.5 24.3428 181.585 23.3902 182.713 22.4858C183.175 22.1148 183.218 21.6515 183.131 21.1743C182.794 19.3052 183.605 17.9556 185.18 16.989C186.112 16.4175 187.169 16.3172 188.232 16.6261C190.164 17.1836 191.144 18.5472 191.529 20.3701C191.681 21.086 191.764 21.814 191.878 22.5359C191.97 23.1074 192.138 23.2619 192.663 23.0292C193.753 22.5459 194.82 22.0065 195.866 21.441C196.08 21.3247 196.22 21.0118 196.309 20.7611C196.432 20.4162 196.499 20.0492 196.544 19.6863C196.611 19.1568 196.954 18.846 197.408 18.6475C198.088 18.3507 198.791 18.4068 199.479 18.6475C199.92 18.8019 200.043 19.1528 200.029 19.57C199.975 20.9878 199.92 22.4056 199.871 23.8234C199.798 25.8749 199.725 27.9264 199.658 29.9799C199.652 30.1844 199.702 30.391 199.725 30.5955C199.783 30.6176 199.844 30.6376 199.902 30.6597C200.145 30.2987 200.457 29.9638 200.622 29.5708C201.372 27.7679 202.115 25.9591 202.795 24.1302C203.515 22.189 204.158 20.2197 204.836 18.2645C205.025 17.719 205.375 17.354 206.013 17.4202C206.569 17.4783 207.126 17.5606 207.663 17.705C208.081 17.8173 208.225 18.1963 208.206 18.5853C208.137 20.1174 208.052 21.6495 207.967 23.1816C207.921 23.9978 207.834 24.812 207.811 25.6282C207.723 28.6984 207.651 31.7687 207.588 34.8369C207.582 35.1798 207.642 35.5368 207.746 35.8656C207.867 36.2547 208.154 36.3309 208.445 36.0341C208.905 35.5668 209.4 35.0956 209.72 34.5381C210.295 33.5394 210.769 32.4846 211.249 31.4398C212.115 29.5567 212.961 27.6657 213.806 25.7726C214.505 24.2044 215.379 22.7485 216.591 21.4851C217.638 20.3962 218.886 19.6301 220.307 19.0887C222.649 18.1963 225.104 17.9416 227.59 17.9677C230.691 18.0018 233.795 18.0198 236.888 18.2063C238.987 18.3326 241.071 18.7237 243.158 19.0285C244.697 19.2531 246.23 19.5138 247.761 19.7805C249.394 20.0653 251.019 20.3841 252.65 20.6729C253.415 20.8093 254.187 20.9095 254.957 21.0279C256.305 21.2344 257.649 21.4891 259.005 21.6435C261.443 21.9223 263.887 22.181 266.334 22.3715C268.187 22.5159 270.049 22.3855 271.865 22.0025C274.168 21.5172 276.217 20.5065 277.966 18.9583C278.349 18.6194 278.734 18.2685 279.177 18.0178C279.439 17.8694 279.895 17.7711 280.119 17.8955C280.348 18.0218 280.562 18.4891 280.494 18.7277C280.363 19.1869 280.101 19.6642 279.757 20.0051C278.592 21.1662 277.126 21.8641 275.543 22.3574C271.917 23.4865 268.181 23.5205 264.441 23.316C262.439 23.2077 260.449 22.9009 258.458 22.6442C257.141 22.4737 255.829 22.2511 254.52 22.0165C252.448 21.6455 250.385 21.2224 248.309 20.8634C246.538 20.5586 244.76 20.3019 242.981 20.0452C240.913 19.7464 238.848 19.3774 236.767 19.207C233.992 18.9804 231.203 18.9002 228.417 18.7919C226.341 18.7096 224.307 19.0786 222.297 19.5098C219.439 20.1234 217.278 21.7017 215.93 24.2184C214.871 26.1997 213.893 28.2211 212.882 30.2245C212.061 31.8529 211.272 33.4993 210.401 35.1056C210.078 35.7012 209.612 36.2447 209.117 36.7219C208.836 36.9927 208.381 37.1551 207.975 37.2293C207.526 37.3115 207.045 37.2433 206.579 37.2293C205.531 37.2012 205.086 36.5114 204.792 35.6811C204.083 33.6657 204.164 31.5721 204.154 29.4906C204.145 28.0206 204.154 26.5527 204.143 25.0827C204.141 24.8321 204.085 24.5834 204.054 24.3327C203.996 24.3267 203.939 24.3227 203.881 24.3167C203.729 24.6957 203.565 25.0687 203.426 25.4517C202.698 27.4451 201.94 29.4224 200.738 31.2132C199.916 32.4385 198.504 32.4084 197.503 31.7947C197.1 31.5461 196.779 30.9966 196.661 30.5293C196.436 29.6289 196.311 28.6904 196.274 27.7619C196.214 26.2619 196.259 24.7579 196.257 23.2558C196.257 22.6342 196.128 22.582 195.571 22.8447C194.52 23.3421 193.457 23.8173 192.384 24.2665C192.036 24.4129 191.891 24.6075 191.837 24.9644C191.508 27.1683 190.921 29.302 189.8 31.2673C188.82 32.9839 187.697 33.2607 185.733 32.8034C185.332 32.7092 184.914 32.3221 184.691 31.9632C184.308 31.3435 183.955 30.6657 183.803 29.9678C183.431 28.2552 183.152 26.5226 183.564 24.7619C183.664 24.3387 183.62 23.8855 183.645 23.4463C183.593 23.4183 183.543 23.3902 183.491 23.3621C183.27 23.4945 183.027 23.6028 182.829 23.7612C181.49 24.8381 180.16 25.931 178.823 27.0099C178.473 27.2927 178.284 27.6055 178.261 28.0728C178.155 30.2546 178.082 32.4425 177.851 34.6143C177.66 36.4151 177.327 38.2079 176.944 39.9807C176.68 41.21 176.306 42.4312 175.836 43.6044C175.16 45.2929 173.82 46.446 172.018 46.8531C170.248 47.2542 168.38 46.8792 167.249 45.2247C166.554 44.208 166.541 43.0228 166.595 41.8477C166.71 39.3309 167.754 37.1511 169.198 35.1076C170.448 33.3349 171.971 31.7907 173.537 30.2847C173.97 29.8696 174.194 29.4444 174.174 28.8368C174.092 26.4684 174.065 24.0981 174.001 21.7277C173.993 21.451 173.889 21.1743 173.83 20.8995C173.753 20.8975 173.674 20.8995 173.597 20.9015ZM167.652 41.95C167.652 42.2508 167.665 42.5516 167.65 42.8504C167.592 44.0055 168.139 44.8557 169.069 45.5255C169.895 46.1211 170.901 45.9968 171.546 45.2227C172.499 44.0777 172.774 42.6679 173.104 41.3102C173.441 39.9205 173.62 38.4887 173.772 37.0669C173.947 35.4265 174.022 33.774 174.122 32.1256C174.132 31.9511 174.02 31.7707 173.963 31.5942C173.789 31.6844 173.581 31.7406 173.448 31.8689C171.964 33.2927 170.56 34.7867 169.493 36.5314C168.468 38.1979 167.527 39.9105 167.652 41.95ZM184.714 19.588C184.727 19.6482 184.739 19.7083 184.754 19.7685C185.193 19.7685 185.638 19.7204 186.068 19.7785C187.142 19.9209 187.685 20.4804 187.508 21.4971C187.414 22.0386 187.364 22.588 187.277 23.1315C187.208 23.5627 187.387 23.7692 187.836 23.7532C188.683 23.7231 189.53 23.687 190.376 23.6589C190.782 23.6449 190.911 23.4123 190.913 23.0673C190.917 21.7919 190.822 20.5345 190.123 19.3995C189.544 18.463 188.696 17.8413 187.566 17.8774C186.326 17.9195 185.378 18.5833 184.714 19.588ZM188.935 24.6937C188.935 24.7137 188.935 24.7318 188.935 24.7518C188.521 24.7518 188.105 24.7679 187.691 24.7478C187.256 24.7258 187.098 24.9083 187.023 25.3154C186.661 27.2445 186.794 29.1617 187.125 31.0748C187.173 31.3556 187.404 31.6082 187.549 31.8749C187.836 31.7225 188.126 31.5741 188.411 31.4177C188.45 31.3957 188.469 31.3355 188.5 31.2974C189.648 29.9157 190.052 28.2432 190.476 26.5808C190.587 26.1456 190.686 25.7084 190.77 25.2672C190.844 24.8682 190.664 24.6776 190.231 24.6937C189.798 24.7057 189.365 24.6937 188.935 24.6937Z" fill="#47B475"/>
</svg>
