<svg width="20" height="20" viewBox="0 0 20 20" fill="none" xmlns="http://www.w3.org/2000/svg">
<path d="M9.99997 10.4877L13.5358 14.0227L12.3566 15.2018L10.8333 13.6785V18.3327H9.16664V13.6768L7.64331 15.2018L6.46414 14.0227L9.99997 10.4877ZM9.99997 1.66602C11.4308 1.66608 12.8117 2.19194 13.8801 3.14361C14.9486 4.09528 15.63 5.4064 15.795 6.82768C16.8319 7.11045 17.7364 7.7486 18.3505 8.63062C18.9646 9.51264 19.2493 10.5824 19.1547 11.653C19.06 12.7236 18.5922 13.7269 17.8329 14.4875C17.0737 15.2482 16.0712 15.7178 15.0008 15.8143V14.136C15.3843 14.0813 15.753 13.9506 16.0855 13.7518C16.4179 13.553 16.7074 13.29 16.9371 12.978C17.1668 12.6661 17.332 12.3115 17.4232 11.935C17.5144 11.5586 17.5296 11.1677 17.4681 10.7852C17.4065 10.4028 17.2694 10.0364 17.0647 9.70756C16.8601 9.37868 16.5919 9.09386 16.276 8.86974C15.96 8.64562 15.6026 8.48667 15.2246 8.40219C14.8465 8.31771 14.4554 8.30938 14.0741 8.37768C14.2046 7.77009 14.1976 7.14099 14.0535 6.53648C13.9094 5.93196 13.6319 5.36734 13.2413 4.88396C12.8507 4.40058 12.357 4.01069 11.7962 3.74284C11.2354 3.475 10.6218 3.33599 10.0004 3.33599C9.37894 3.33599 8.76535 3.475 8.20458 3.74284C7.64381 4.01069 7.15005 4.40058 6.75948 4.88396C6.3689 5.36734 6.0914 5.93196 5.94729 6.53648C5.80319 7.14099 5.79613 7.77009 5.92664 8.37768C5.16635 8.23491 4.38049 8.4 3.74193 8.83665C3.10336 9.2733 2.66441 9.94573 2.52164 10.706C2.37886 11.4663 2.54396 12.2522 2.98061 12.8907C3.41726 13.5293 4.08969 13.9682 4.84997 14.111L4.99997 14.136V15.8143C3.92951 15.718 2.92698 15.2484 2.16758 14.4878C1.40819 13.7273 0.940245 12.724 0.845535 11.6534C0.750824 10.5828 1.03537 9.51292 1.64945 8.63083C2.26352 7.74874 3.16806 7.1105 4.20497 6.82768C4.36973 5.40633 5.05114 4.09511 6.11962 3.1434C7.1881 2.1917 8.5691 1.6659 9.99997 1.66602Z" fill="#47B475"/>
</svg>
