<svg width="145" height="158" viewBox="0 0 145 158" fill="none" xmlns="http://www.w3.org/2000/svg">
<path d="M41.9947 65.8215C41.9406 65.7955 41.8861 65.7696 41.8327 65.7434C41.1454 65.3959 40.4357 65.1212 39.6758 64.998C38.1125 64.7443 36.8713 65.2879 35.9203 66.5433C35.3034 67.3585 34.9089 68.2902 34.5853 69.2585C34.1527 70.5519 33.9275 71.8979 33.6505 73.231C33.4652 74.1226 33.2429 75.0005 32.7869 75.7956C32.139 76.9257 31.2658 77.7824 30.0046 78.1609C29.0225 78.4548 28.0618 78.3433 27.1274 77.9195C26.1931 77.4956 25.5454 76.7799 25.0297 75.89C24.7404 75.3913 24.5944 74.8567 24.4991 74.3133C24.424 73.8852 24.4661 73.4333 24.4833 72.9934C24.5141 72.1814 24.7612 71.4138 24.985 70.6436C25.6181 68.4672 26.2496 66.2903 26.8794 64.1131C27.153 63.1741 27.4091 62.23 27.7231 61.304C28.1016 60.1903 28.6864 59.2031 29.6227 58.4756C30.7654 57.5867 32.0245 57.453 33.3689 57.9436C34.2911 58.2808 35.0608 58.8637 35.7569 59.5559C37.829 61.6163 39.9003 63.6771 41.9708 65.7384C41.987 65.7549 42.0014 65.7732 42.0136 65.7929C42.0411 65.8305 42.0419 65.8453 41.9947 65.8215Z" fill="#47B475"/>
<path d="M38.2786 65.462C39.1374 65.221 39.9785 65.3487 40.8036 65.6269C42.2408 66.112 43.439 66.9587 44.3349 68.2165C44.6689 68.6854 44.9536 69.1845 45.0859 69.7613C45.2956 70.6725 45.2858 71.5643 44.9482 72.4331C44.5105 73.5627 43.7341 74.374 42.6401 74.8356C41.5038 75.315 40.3575 75.231 39.2407 74.6998C38.3967 74.2983 37.654 73.7352 36.9703 73.098C36.2655 72.441 35.588 71.7531 34.8967 71.0803C34.6772 70.867 34.681 70.9126 34.7662 70.5933C35.0152 69.6524 35.2879 68.7217 35.7233 67.8511C36.1872 66.9214 36.7909 66.119 37.7409 65.6535C37.9099 65.5689 38.0982 65.5237 38.2786 65.462Z" fill="#47B475"/>
<path d="M91.0321 78.7415C91.0054 78.7025 90.9785 78.6634 90.9524 78.6245C90.6208 78.1173 90.2451 77.6508 89.7757 77.2679C88.8102 76.4799 87.7504 76.3619 86.6084 76.8433C85.8671 77.1561 85.2317 77.6359 84.6302 78.1685C83.8264 78.8797 83.1433 79.7084 82.43 80.508C81.9529 81.0426 81.456 81.5535 80.8324 81.916C79.9462 82.4312 79.014 82.6715 78.0055 82.4331C77.2206 82.247 76.6097 81.793 76.1397 81.1366C75.6698 80.4801 75.51 79.7375 75.5086 78.9281C75.5077 78.4744 75.6185 78.0526 75.7674 77.6447C75.8847 77.3234 76.0912 77.032 76.276 76.739C76.6165 76.1977 77.0869 75.7719 77.5425 75.335C78.8303 74.1009 80.1172 72.8658 81.4031 71.6298C81.9591 71.0975 82.505 70.5549 83.0833 70.0474C83.7795 69.4373 84.5665 68.9946 85.4909 68.8672C86.6194 68.7111 87.5301 69.1154 88.2532 69.9786C88.749 70.5713 89.0443 71.2715 89.2463 72.0171C89.8478 74.2365 90.4485 76.456 91.0485 78.6755C91.0531 78.6931 91.0556 78.7112 91.0562 78.7294C91.0601 78.7659 91.0549 78.7763 91.0321 78.7415Z" fill="#47B475"/>
<path d="M88.641 77.0351C89.3211 77.2087 89.8441 77.6267 90.297 78.141C91.0855 79.037 91.5689 80.0856 91.6846 81.2953C91.7278 81.7462 91.7254 82.1984 91.5886 82.6436C91.373 83.3471 91.0154 83.951 90.4435 84.4102C89.7008 85.0078 88.8524 85.2553 87.9252 85.1394C86.9621 85.019 86.214 84.5107 85.6619 83.7092C85.2447 83.1035 84.9601 82.4276 84.7449 81.7243C84.523 80.9992 84.332 80.2639 84.1256 79.5333C84.0599 79.3016 84.0446 79.3342 84.2283 79.1501C84.7682 78.6068 85.3202 78.0798 85.9595 77.6578C86.6415 77.2067 87.3686 76.8975 88.1992 76.954C88.3477 76.9629 88.4938 77.0062 88.641 77.0351Z" fill="#47B475"/>
<path d="M113.872 134.029L65.5374 154.721V157.732L143.01 142.648L113.872 134.029Z" fill="#003829"/>
<path d="M60.064 155.602L42.3064 148.704L34.5341 145.685L15.0968 138.134L13.063 93.4834L58.4827 85.4824L59.0233 107.606L59.0248 107.668L60.064 155.602Z" fill="#1EA67F"/>
<path d="M58.4827 85.4824L113.977 98.766L113.848 145.279L60.064 155.603L58.4827 85.4824Z" fill="#0F926C"/>
<path d="M65.5571 157.736L60.064 155.601L42.3064 148.703L34.5341 145.684L15.0968 138.133L13.063 93.4824L32.9161 99.6088L42.4337 102.546L59.0248 107.667L64.2359 109.274L65.5571 157.736Z" fill="#47B475"/>
<path d="M113.977 98.7656L113.848 145.278L95.9268 149.901L88.5341 151.809L65.5571 157.736L65.4704 154.564L64.2358 109.274L83.5385 105.197L86.5733 104.555L92.3044 103.344L95.4053 102.689L113.977 98.7656Z" fill="#037958"/>
<path d="M42.4336 102.545L42.3063 148.704L34.534 145.685L32.916 99.6094V99.6074L42.4336 102.545Z" fill="#FFAC21"/>
<path d="M95.9268 149.902L88.5341 151.809L88.465 150.151L86.5728 104.606L92.3044 103.395L95.4053 102.74L95.9136 148.721L95.9268 149.902Z" fill="#F59E0B"/>
<path d="M61.2378 5.87891L55.4709 13.9871L88.923 53.3118L94.8877 43.8363L61.2378 5.87891Z" fill="#47B475"/>
<path d="M134.17 64.12L129.485 73.3403L119.17 68.2463L112.302 64.8545L88.9429 53.3173L94.8875 43.8359L115.468 54.4628L123.782 58.7556L134.17 64.12Z" fill="#037958"/>
<path d="M61.2378 5.87891L103.435 31.6634L134.17 64.1203L94.8877 43.8363L61.2378 5.87891Z" fill="#5ACA89"/>
<path d="M123.787 58.7449L123.782 58.7552L119.17 68.2459L112.302 64.8541L110.299 63.8532L115.468 54.4624L82.9453 19.1426L90.7308 23.5916L123.787 58.7449Z" fill="#FFCD50"/>
<path d="M74.2611 20.5703L69.624 30.6256L74.3424 36.1722L79.4766 26.4528L120.78 49.9802L115.326 43.9802L74.2611 20.5703Z" fill="#FFE36C"/>
<path d="M123.787 58.7455L123.782 58.7557L119.17 68.2464L112.302 64.8547L110.3 63.8537L115.468 54.4629L123.787 58.7455Z" fill="#F59E0B"/>
<path d="M69.624 30.6256L74.2611 20.5703L79.4766 26.4528L74.3424 36.1722L69.624 30.6256Z" fill="#FFAC21"/>
<path d="M144.14 35.7534C144.14 35.7534 131.251 58.5213 101.923 38.1584C101.923 38.1584 128.506 46.9811 136.947 32.2637L141.703 34.2279C141.734 34.2406 141.764 34.256 141.792 34.274L144.075 35.6976L144.14 35.7534Z" fill="#FFBC00"/>
<path d="M101.962 37.7659C101.962 37.7659 111.452 27.6777 119.865 25.2556C128.279 22.8335 136.753 26.0881 136.753 26.0881L144.14 35.7527C144.14 35.7527 129.036 25.6067 101.962 37.7659Z" fill="#F7D64D"/>
<path d="M103.624 0.265625C103.624 0.265625 83.461 11.7965 101.653 37.7514C101.653 37.7514 93.7196 14.1868 106.75 6.63634L104.987 2.42135C104.976 2.39412 104.962 2.36791 104.946 2.343L103.673 0.321942L103.624 0.265625Z" fill="#FFBC00"/>
<path d="M102.002 37.7162C102.002 37.7162 110.922 29.2524 113.04 21.7739C115.157 14.2955 112.234 6.7857 112.234 6.7857L103.624 0.265625C103.624 0.265625 112.689 13.6344 102.002 37.7162Z" fill="#F7D64D"/>
<path d="M40.4293 84.2044C39.373 84.035 38.2544 85.3219 37.6702 87.2274C36.1683 85.9277 34.5429 85.4336 33.7388 86.1354C32.7682 86.9821 33.3617 89.2509 35.0649 91.2029C36.6364 93.0046 38.6036 93.9062 39.6609 93.3685C40.6927 92.9331 41.656 91.2837 41.9895 89.2059C42.3999 86.6476 41.7011 84.4086 40.4293 84.2044Z" fill="#FFBC00"/>
<path d="M28.6183 23.4241C27.3891 23.4466 26.3842 25.1292 26.1094 27.4035C24.1462 26.238 22.2074 26.0083 21.44 26.9627C20.5135 28.118 21.6447 30.5646 23.9674 32.428C26.1109 34.1479 28.5218 34.7693 29.607 33.9461C30.6844 33.2443 31.4415 31.1826 31.3974 28.7629C31.343 25.7884 30.0987 23.3971 28.6183 23.4241Z" fill="#47B475"/>
<path d="M64.558 38.6321C63.3376 38.0258 61.488 39.1674 60.0526 41.2638C58.7181 39.1125 56.9282 37.8951 55.6838 38.4436C54.1814 39.1057 54.0428 42.0919 55.3743 45.113C56.6035 47.901 58.6554 49.7447 60.1452 49.4916C61.5653 49.3535 63.3641 47.7114 64.5585 45.3089C66.0296 42.3539 66.0271 39.3667 64.558 38.6321Z" fill="#EF4444"/>
<path d="M61.4107 72.7765L59.7947 71.8015C59.6703 71.7263 59.5295 71.6826 59.3845 71.674C59.2394 71.6655 59.0944 71.6924 58.9621 71.7525L57.2423 72.5317C57.09 72.6006 56.9216 72.6256 56.7559 72.6038C56.5902 72.5819 56.434 72.5142 56.3048 72.4083C56.1756 72.3023 56.0786 72.1623 56.0248 72.0041C55.971 71.8459 55.9625 71.6758 56.0003 71.5131L56.4279 69.6737C56.4609 69.5323 56.459 69.3851 56.4223 69.2446C56.3856 69.1041 56.3152 68.9747 56.2173 68.8676L54.944 67.4724C54.8313 67.3488 54.7554 67.196 54.7251 67.0315C54.6947 66.867 54.711 66.6972 54.7722 66.5415C54.8334 66.3857 54.937 66.2503 55.0712 66.1504C55.2054 66.0505 55.3649 65.9902 55.5317 65.9763L57.4132 65.8152C57.5578 65.8028 57.6973 65.7553 57.8195 65.677C57.9418 65.5987 58.0432 65.4919 58.1149 65.3657L59.0483 63.7241C59.131 63.5789 59.2526 63.4597 59.3994 63.38C59.5462 63.3003 59.7124 63.2632 59.8792 63.273C60.046 63.2828 60.2067 63.339 60.3432 63.4354C60.4797 63.5317 60.5866 63.6643 60.6517 63.8182L61.3862 65.5576C61.4429 65.6913 61.5311 65.8092 61.6433 65.9012C61.7556 65.9933 61.8885 66.0567 62.0307 66.086L63.8804 66.4665C64.0441 66.5002 64.1951 66.579 64.3164 66.6941C64.4376 66.8091 64.5243 66.9558 64.5665 67.1175C64.6088 67.2792 64.6049 67.4496 64.5554 67.6092C64.5059 67.7689 64.4127 67.9115 64.2863 68.0209L62.8593 69.2574C62.7495 69.3525 62.6645 69.4728 62.6116 69.608C62.5588 69.7433 62.5395 69.8893 62.5557 70.0336L62.7653 71.9102C62.7841 72.0766 62.7558 72.2449 62.6838 72.396C62.6118 72.5471 62.4989 72.6751 62.3578 72.7653C62.2168 72.8555 62.0533 72.9043 61.8859 72.9063C61.7185 72.9083 61.5539 72.8633 61.4107 72.7765Z" fill="#47B475"/>
<path d="M40.7656 49.1972L38.8772 49.1624C38.7321 49.1598 38.5885 49.1926 38.4588 49.2579C38.3291 49.3231 38.2173 49.4189 38.1329 49.5371L37.0359 51.0723C36.9386 51.2082 36.8053 51.3142 36.651 51.3783C36.4966 51.4424 36.3274 51.4621 36.1625 51.435C35.9975 51.408 35.8435 51.3353 35.7177 51.2252C35.5919 51.1152 35.4994 50.9721 35.4507 50.8123L34.9002 49.0057C34.8578 48.8666 34.7821 48.74 34.6797 48.6367C34.5773 48.5335 34.4513 48.4567 34.3126 48.4132L32.5124 47.8426C32.3532 47.7921 32.2112 47.698 32.1027 47.5711C31.9941 47.4441 31.9232 47.2893 31.898 47.1241C31.8727 46.959 31.8942 46.7901 31.96 46.6365C32.0257 46.4829 32.1331 46.3507 32.27 46.255L33.818 45.1732C33.9369 45.09 34.0339 44.9791 34.1005 44.8501C34.1671 44.7212 34.2014 44.5779 34.2004 44.4328L34.1867 42.5444C34.1856 42.3774 34.2312 42.2133 34.3184 42.0708C34.4055 41.9283 34.5308 41.813 34.6801 41.738C34.8293 41.663 34.9966 41.6312 35.163 41.6462C35.3293 41.6612 35.4882 41.7225 35.6216 41.8231L37.1289 42.9607C37.2448 43.0482 37.3801 43.1063 37.5234 43.1298C37.6666 43.1534 37.8134 43.1417 37.9512 43.0958L39.7431 42.4994C39.9016 42.4464 40.0718 42.439 40.2344 42.4778C40.3969 42.5167 40.5454 42.6002 40.6629 42.7191C40.7804 42.8379 40.8624 42.9873 40.8994 43.1503C40.9364 43.3133 40.927 43.4834 40.8723 43.6414L40.2563 45.4259C40.2087 45.5632 40.1953 45.71 40.2173 45.8536C40.2392 45.9972 40.2958 46.1333 40.3821 46.2501L41.5031 47.7682C41.6028 47.9027 41.6629 48.0625 41.6764 48.2294C41.6899 48.3963 41.6563 48.5637 41.5795 48.7125C41.5027 48.8613 41.3858 48.9856 41.2419 49.0713C41.098 49.1569 40.933 49.2006 40.7656 49.1972Z" fill="#FFBC00"/>
<path d="M8.46449 63.247L6.76713 62.8499C6.6364 62.8197 6.50029 62.8218 6.37053 62.8559C6.24077 62.89 6.12126 62.9552 6.02228 63.0457L4.73236 64.2211C4.61825 64.3249 4.47737 64.3947 4.32565 64.4226C4.17392 64.4505 4.01742 64.4354 3.87383 64.379C3.73024 64.3226 3.6053 64.2272 3.51314 64.1034C3.42098 63.9797 3.36529 63.8327 3.35235 63.679L3.20543 61.9419C3.19411 61.8083 3.15049 61.6794 3.07832 61.5664C3.00615 61.4534 2.90759 61.3596 2.79113 61.2931L1.27693 60.4258C1.14298 60.3492 1.0331 60.2368 0.959704 60.1011C0.886312 59.9654 0.852332 59.8119 0.861603 59.6579C0.870874 59.5039 0.923027 59.3556 1.01217 59.2296C1.10131 59.1037 1.22389 59.0053 1.36606 58.9454L2.97282 58.2691C3.09658 58.2173 3.20586 58.1362 3.29119 58.0327C3.37653 57.9292 3.43534 57.8064 3.46253 57.675L3.8166 55.9674C3.84791 55.8164 3.92085 55.6771 4.02717 55.5654C4.13348 55.4537 4.26894 55.3739 4.41821 55.3351C4.56749 55.2964 4.72464 55.3001 4.87189 55.346C5.01914 55.3919 5.15062 55.478 5.25147 55.5947L6.39152 56.914C6.47922 57.0154 6.59026 57.094 6.71507 57.143C6.83988 57.1919 6.97472 57.2098 7.10798 57.1951L8.84059 57.0041C8.99391 56.9873 9.14888 57.0137 9.28799 57.0803C9.42711 57.1469 9.54483 57.2511 9.62785 57.3811C9.71088 57.5111 9.7559 57.6617 9.75784 57.8159C9.75978 57.9701 9.71856 58.1218 9.63883 58.2539L8.73628 59.7456C8.66706 59.8604 8.62671 59.9902 8.61869 60.1241C8.61068 60.2579 8.63523 60.3917 8.69025 60.5139L9.40769 62.103C9.47101 62.2437 9.49371 62.3993 9.47321 62.5522C9.45272 62.7051 9.38985 62.8492 9.29171 62.9682C9.19357 63.0873 9.06409 63.1765 8.9179 63.2257C8.77171 63.275 8.61465 63.2824 8.46449 63.247Z" fill="#47B475"/>
<path d="M71.1189 99.6624C72.1708 98.6105 72.1708 96.9051 71.1189 95.8533C70.0671 94.8014 68.3617 94.8014 67.3098 95.8533C66.258 96.9051 66.258 98.6105 67.3098 99.6624C68.3617 100.714 70.0671 100.714 71.1189 99.6624Z" fill="white"/>
<path d="M69.9159 82.1955C70.0331 81.7229 69.7449 81.2449 69.2724 81.1278C68.7999 81.0107 68.3218 81.2988 68.2047 81.7714C68.0876 82.2439 68.3757 82.7219 68.8483 82.839C69.3208 82.9561 69.7988 82.668 69.9159 82.1955Z" fill="white"/>
<path d="M51.29 26.9484C51.6896 25.5296 50.8634 24.0555 49.4446 23.6559C48.0258 23.2563 46.5516 24.0825 46.152 25.5013C45.7524 26.9201 46.5786 28.3943 47.9975 28.7939C49.4163 29.1935 50.8904 28.3673 51.29 26.9484Z" fill="white"/>
<path d="M103.887 80.3662C104.346 79.9072 104.346 79.1631 103.887 78.7041C103.428 78.2451 102.683 78.2451 102.224 78.7041C101.765 79.1631 101.765 79.9072 102.224 80.3662C102.683 80.8252 103.428 80.8252 103.887 80.3662Z" fill="white"/>
<path d="M83.119 98.9056C83.7316 98.6908 84.054 98.0202 83.8393 97.4076C83.6245 96.7951 82.9539 96.4726 82.3413 96.6873C81.7288 96.9021 81.4063 97.5727 81.621 98.1853C81.8358 98.7979 82.5064 99.1203 83.119 98.9056Z" fill="white"/>
<path d="M120.601 79.9586C121.469 78.2453 120.783 76.1534 119.07 75.286C117.356 74.4187 115.264 75.1045 114.397 76.8178C113.53 78.531 114.216 80.623 115.929 81.4903C117.642 82.3576 119.734 81.6719 120.601 79.9586Z" fill="white"/>
<path d="M75.3808 66.3333C76.7872 66.3333 77.9273 65.1932 77.9273 63.7868C77.9273 62.3804 76.7872 61.2402 75.3808 61.2402C73.9743 61.2402 72.8342 62.3804 72.8342 63.7868C72.8342 65.1932 73.9743 66.3333 75.3808 66.3333Z" fill="white"/>
<path d="M18.8955 85.0924C19.468 84.6391 19.5646 83.8075 19.1114 83.235C18.6581 82.6625 17.8265 82.5658 17.2539 83.0191C16.6814 83.4724 16.5848 84.304 17.038 84.8765C17.4913 85.449 18.3229 85.5457 18.8955 85.0924Z" fill="white"/>
<path d="M17.8277 47.4559C18.3632 46.9204 18.3632 46.0522 17.8277 45.5167C17.2922 44.9813 16.424 44.9813 15.8885 45.5167C15.353 46.0522 15.353 46.9204 15.8885 47.4559C16.424 47.9914 17.2922 47.9914 17.8277 47.4559Z" fill="white"/>
<path d="M55.5836 101.38C56.1191 100.844 56.1191 99.9761 55.5836 99.4406C55.0481 98.9051 54.1799 98.9051 53.6444 99.4406C53.1089 99.9761 53.1089 100.844 53.6444 101.38C54.1799 101.915 55.0481 101.915 55.5836 101.38Z" fill="white"/>
<path d="M93.5819 62.2443C94.0696 61.7567 94.0696 60.966 93.5819 60.4783C93.0942 59.9906 92.3036 59.9906 91.8159 60.4783C91.3282 60.966 91.3282 61.7567 91.8159 62.2443C92.3036 62.732 93.0942 62.732 93.5819 62.2443Z" fill="white"/>
</svg>
